<svg xmlns="http://www.w3.org/2000/svg" viewBox="0 0 860 440" font-family="-apple-system,BlinkMacSystemFont,Segoe UI,Helvetica,Arial,sans-serif">
<rect width="860" height="440" fill="#101716"/>
<line x1="64" y1="58.0" x2="840" y2="58.0" stroke="#2a3432" stroke-width="1"/>
<text x="54" y="62.0" fill="#7d8a88" font-size="12" text-anchor="end">1,866,218</text>
<line x1="64" y1="142.5" x2="840" y2="142.5" stroke="#2a3432" stroke-width="1"/>
<text x="54" y="146.5" fill="#7d8a88" font-size="12" text-anchor="end">1,399,739</text>
<line x1="64" y1="227.0" x2="840" y2="227.0" stroke="#2a3432" stroke-width="1"/>
<text x="54" y="231.0" fill="#7d8a88" font-size="12" text-anchor="end">933,259</text>
<line x1="64" y1="311.5" x2="840" y2="311.5" stroke="#2a3432" stroke-width="1"/>
<text x="54" y="315.5" fill="#7d8a88" font-size="12" text-anchor="end">466,780</text>
<line x1="64" y1="396.0" x2="840" y2="396.0" stroke="#2a3432" stroke-width="1"/>
<text x="54" y="400.0" fill="#7d8a88" font-size="12" text-anchor="end">300</text>
<text x="64.0" y="418" fill="#7d8a88" font-size="12" text-anchor="middle">2014-01</text>
<text x="321.7" y="418" fill="#7d8a88" font-size="12" text-anchor="middle">2018-03</text>
<text x="581.3" y="418" fill="#7d8a88" font-size="12" text-anchor="middle">2022-06</text>
<text x="840.0" y="418" fill="#7d8a88" font-size="12" text-anchor="middle">2026-09</text>
<polyline points="64.0,396.0 64.2,395.9 64.3,395.9 64.8,395.8 65.0,395.8 65.2,395.7 65.3,395.7 65.5,395.6 66.0,395.6 66.2,395.5 66.4,395.5 66.5,395.4 67.9,395.3 68.4,395.3 68.5,395.2 68.7,395.2 68.9,395.1 69.0,395.1 69.5,395.0 69.7,395.0 69.9,394.9 70.0,394.9 70.2,394.8 70.7,394.8 70.9,394.7 71.1,394.6 71.2,394.6 71.4,394.5 71.9,394.5 72.1,394.4 72.2,394.4 72.4,394.3 72.6,394.3 73.1,394.2 73.2,394.2 73.4,394.1 73.6,394.0 73.7,394.0 74.2,393.9 74.4,393.9 74.6,393.8 74.8,393.8 74.9,393.7 75.4,393.7 75.6,393.6 75.8,393.6 75.9,393.5 76.1,393.4 76.6,393.4 76.8,393.3 76.9,393.3 77.1,393.2 77.3,393.2 77.9,393.1 78.1,393.1 78.3,393.0 78.4,393.0 79.0,392.9 79.1,392.8 79.3,392.8 79.5,392.7 79.6,392.7 80.1,392.6 80.3,392.6 80.5,392.5 80.6,392.5 80.8,392.4 81.3,392.4 81.5,392.3 81.6,392.3 82.5,392.2 82.6,392.1 82.8,392.1 83.0,392.0 83.2,392.0 83.7,391.9 83.8,391.9 84.0,391.8 84.2,391.8 84.3,391.7 84.8,391.7 85.0,391.6 85.2,391.5 85.3,391.5 85.5,391.4 86.0,391.4 86.2,391.3 86.3,391.3 86.5,391.2 86.7,391.2 87.4,391.1 87.5,391.1 87.7,391.0 87.9,390.9 88.4,390.9 88.5,390.8 88.7,390.8 88.9,390.7 89.0,390.7 89.5,390.6 89.7,390.6 89.9,390.5 90.0,390.5 90.2,390.4 90.7,390.3 90.9,390.3 91.0,390.2 91.2,390.2 91.4,390.1 91.9,390.1 92.1,390.0 92.2,390.0 92.4,389.9 92.6,389.9 93.1,389.8 93.2,389.8 93.4,389.7 93.6,389.6 93.7,389.6 94.2,389.5 94.4,389.5 94.6,389.4 94.7,389.4 94.9,389.3 95.4,389.3 95.6,389.2 95.8,389.2 95.9,389.1 96.1,389.0 96.6,389.0 96.8,388.9 96.9,388.9 97.1,388.8 97.3,388.8 97.8,388.7 97.9,388.7 98.1,388.6 98.3,388.6 98.4,388.5 98.9,388.4 99.1,388.4 99.3,388.3 99.4,388.3 99.6,388.2 100.1,388.2 100.3,388.1 100.5,388.1 100.6,388.0 100.8,388.0 101.3,387.9 101.5,387.8 101.6,387.8 101.8,387.7 102.0,387.7 102.5,387.6 102.6,387.6 102.8,387.5 103.0,387.5 103.1,387.4 103.8,387.4 104.0,387.3 104.2,387.3 104.3,387.2 104.8,387.1 105.0,387.1 105.2,387.0 105.3,387.0 105.5,386.9 106.0,386.9 106.2,386.8 106.3,386.8 106.5,386.7 106.7,386.7 107.2,386.6 107.3,386.5 108.7,386.5 108.9,386.4 109.0,386.4 109.5,386.3 109.7,386.3 109.9,386.2 110.0,386.2 110.2,386.1 110.7,386.1 110.9,386.0 111.0,385.9 111.2,385.9 111.4,385.8 111.9,385.8 112.0,385.7 112.2,385.7 112.4,385.6 112.6,385.6 113.1,385.5 113.2,385.5 113.4,385.4 113.6,385.3 113.7,385.3 114.2,385.2 114.4,385.2 114.6,385.1 114.7,385.1 114.9,385.0 115.4,385.0 115.6,384.9 115.7,384.9 115.9,384.8 116.1,384.8 116.6,384.7 116.8,384.6 116.9,384.6 117.1,384.5 117.3,384.5 117.8,384.4 117.9,384.4 118.1,384.3 118.3,384.3 118.4,384.2 118.9,384.2 119.1,384.1 119.3,384.0 119.4,384.0 119.6,383.9 120.1,383.9 120.3,383.8 120.4,383.8 120.6,383.7 120.8,383.7 121.3,383.6 121.5,383.6 121.6,383.5 121.8,383.4 122.0,383.4 122.5,383.3 122.6,383.3 122.8,383.2 123.6,383.2 123.8,383.1 124.0,383.1 124.1,383.0 124.3,383.0 124.8,382.9 125.0,382.8 125.2,382.8 125.3,382.7 125.5,382.7 126.0,382.6 126.2,382.6 126.3,382.5 126.5,382.5 126.7,382.4 127.2,382.4 127.3,382.3 127.5,382.3 127.7,382.2 127.8,382.1 128.3,382.1 128.5,382.0 128.7,382.0 128.8,381.9 129.0,381.9 129.5,381.8 129.7,381.8 129.9,381.7 130.0,381.7 130.2,381.6 130.7,381.5 130.9,381.5 132.2,381.4 132.4,381.4 132.5,381.3 133.0,381.3 133.2,381.2 133.4,381.2 133.6,381.1 133.7,381.1 134.2,381.0 134.4,380.9 134.6,380.9 134.7,380.8 134.9,380.8 135.4,380.7 135.6,380.7 135.7,380.6 135.9,380.6 136.1,380.5 136.6,380.5 136.7,380.4 136.9,380.3 137.1,380.3 137.2,380.2 137.8,380.2 137.9,380.1 138.1,380.1 138.3,380.0 138.4,380.0 139.1,379.9 139.3,379.9 139.4,379.8 139.6,379.8 140.1,379.7 140.3,379.6 140.4,379.6 140.6,379.5 140.8,379.5 141.3,379.4 141.4,379.4 141.6,379.3 141.8,379.3 142.0,379.2 142.5,379.2 142.6,379.1 142.8,379.0 143.0,379.0 143.6,378.9 143.8,378.9 144.0,378.8 144.1,378.8 144.3,378.7 144.8,378.7 145.0,378.6 145.1,378.6 145.3,378.5 145.5,378.4 146.0,378.4 146.2,378.3 146.3,378.3 146.5,378.2 146.7,378.2 147.2,378.1 147.3,378.1 147.5,378.0 147.7,378.0 147.8,377.9 148.3,377.8 148.5,377.8 148.7,377.7 148.8,377.7 149.0,377.6 149.5,377.6 149.7,377.5 149.8,377.5 150.0,377.4 150.2,377.4 150.7,377.3 150.9,377.3 151.0,377.2 151.2,377.1 151.4,377.1 152.0,377.0 152.2,377.0 152.4,376.9 152.5,376.9 153.0,376.8 153.2,376.8 153.4,376.7 153.5,376.7 153.7,376.6 154.2,376.5 154.4,376.5 154.6,376.4 154.7,376.4 154.9,376.3 155.4,376.3 155.6,376.2 155.7,376.2 155.9,376.1 156.1,376.1 156.6,376.0 156.7,375.9 156.9,375.9 157.1,375.8 157.2,375.8 157.7,375.7 157.9,375.7 158.1,375.6 158.2,375.6 158.4,375.5 158.9,375.5 159.1,375.4 159.3,375.3 159.4,375.3 159.6,375.2 160.1,375.2 160.3,375.1 160.4,375.1 160.6,375.0 160.8,375.0 161.3,374.9 161.4,374.9 161.6,374.8 161.8,374.8 161.9,374.7 162.4,374.6 162.6,374.6 162.8,374.5 163.0,374.5 163.1,374.4 163.6,374.4 163.8,374.3 164.0,374.3 164.8,374.2 165.0,374.2 165.1,374.1 165.3,374.0 165.5,374.0 166.0,373.9 166.1,373.9 166.3,373.8 166.5,373.8 166.6,373.7 167.2,373.7 167.3,373.6 167.5,373.6 167.7,373.5 167.8,373.4 168.3,373.4 168.5,373.3 168.7,373.3 170.0,373.2 170.2,373.2 170.7,373.1 170.8,373.1 171.0,373.0 171.2,373.0 171.4,372.9 171.9,372.8 172.0,372.8 172.2,372.7 172.4,372.7 172.5,372.6 173.0,372.6 173.2,372.5 173.4,372.5 173.5,372.4 173.7,372.4 174.2,372.3 174.4,372.3 174.5,372.2 174.7,372.1 174.9,372.1 175.4,372.0 175.6,372.0 175.7,371.9 175.9,371.9 176.1,371.8 176.6,371.8 176.7,371.7 176.9,371.7 177.1,371.6 177.2,371.5 177.7,371.5 177.9,371.4 178.1,371.4 178.2,371.3 178.4,371.3 178.9,371.2 179.1,371.2 179.2,371.1 179.4,371.1 179.6,371.0 180.1,370.9 180.3,370.9 180.4,370.8 180.6,370.8 180.8,370.7 181.3,370.7 181.4,370.6 181.6,370.6 181.8,370.5 181.9,370.5 182.4,370.4 182.6,370.4 182.8,370.3 182.9,370.2 183.1,370.2 183.6,370.1 183.8,370.1 184.0,370.0 184.1,370.0 184.8,369.9 185.0,369.9 185.1,369.8 185.3,369.8 185.5,369.7 186.0,369.6 186.1,369.6 186.3,369.5 186.5,369.5 186.6,369.4 187.1,369.4 187.3,369.3 187.5,369.3 187.6,369.2 187.8,369.2 188.3,369.1 188.5,369.0 188.7,369.0 188.8,368.9 189.0,368.9 189.5,368.8 189.7,368.8 189.8,368.7 190.0,368.7 190.2,368.6 191.8,368.6 192.0,368.5 192.2,368.4 192.4,368.4 192.5,368.3 193.0,368.3 193.2,368.2 193.4,368.2 193.5,368.1 193.7,368.1 194.2,368.0 194.4,368.0 194.5,367.9 194.7,367.9 194.9,367.8 195.4,367.7 195.5,367.7 195.7,367.6 195.9,367.6 196.0,367.5 196.6,367.5 196.7,367.4 196.9,367.4 197.1,367.3 197.2,367.3 197.7,367.2 197.9,367.1 198.1,367.1 198.2,367.0 198.4,367.0 198.9,366.9 199.1,366.9 199.2,366.8 199.4,366.8 199.6,366.7 200.2,366.7 200.4,366.6 200.6,366.5 200.8,366.5 201.3,366.4 201.4,366.4 201.6,366.3 201.8,366.3 201.9,366.2 202.4,366.2 202.6,366.1 202.8,366.1 202.9,366.0 203.1,365.9 203.6,365.9 203.8,365.8 203.9,365.8 204.1,365.7 204.3,365.7 205.0,365.6 205.1,365.6 205.3,365.5 205.5,365.5 206.0,365.4 206.1,365.4 206.3,365.3 206.5,365.2 206.6,365.2 207.1,365.1 207.3,365.1 207.5,365.0 207.6,365.0 207.8,364.9 208.3,364.9 208.5,364.8 208.6,364.8 208.8,364.7 209.0,364.6 209.5,364.6 209.7,364.5 209.8,364.5 210.0,364.4 210.2,364.4 210.7,364.3 210.8,364.3 211.0,364.2 211.8,364.2 212.0,364.1 212.2,364.0 212.3,364.0 212.5,363.9 213.0,363.9 213.2,363.8 213.4,363.8 213.5,363.7 213.7,363.7 214.2,363.6 214.4,363.6 214.5,363.5 214.7,363.4 214.9,363.4 215.4,363.3 215.5,363.3 215.7,363.2 215.9,363.2 216.0,363.1 216.5,363.1 216.7,363.0 216.9,363.0 217.0,362.9 217.2,362.9 217.7,362.8 217.9,362.7 218.1,362.7 218.2,362.6 218.4,362.6 218.9,362.5 219.1,362.5 219.2,362.4 219.4,362.4 219.6,362.3 220.1,362.3 220.2,362.2 220.4,362.1 220.6,362.1 220.7,362.0 221.2,362.0 221.4,361.9 221.6,361.9 221.8,361.8 221.9,361.8 222.4,361.7 222.6,361.7 222.8,361.6 222.9,361.5 223.1,361.5 223.6,361.4 223.8,361.4 223.9,361.3 224.1,361.3 224.3,361.2 224.8,361.2 224.9,361.1 225.1,361.1 225.3,361.0 225.4,360.9 226.0,360.9 226.1,360.8 226.3,360.8 226.5,360.7 226.6,360.7 227.1,360.6 227.3,360.6 227.5,360.5 228.3,360.5 228.5,360.4 228.6,360.4 228.8,360.3 229.0,360.2 229.5,360.2 229.6,360.1 229.8,360.1 230.0,360.0 230.2,360.0 231.8,359.9 232.0,359.9 232.2,359.8 232.3,359.8 232.5,359.7 233.0,359.6 233.2,359.6 233.3,359.5 233.5,359.5 233.7,359.4 234.2,359.4 234.4,359.3 234.5,359.3 234.7,359.2 234.9,359.2 235.4,359.1 235.5,359.0 235.7,359.0 235.9,358.9 236.0,358.9 236.5,358.8 236.7,358.8 236.9,358.7 237.0,358.7 237.2,358.6 237.7,358.6 237.9,358.5 238.0,358.4 238.2,358.4 238.4,358.3 238.9,358.3 239.1,358.2 239.2,358.2 239.4,358.1 239.6,358.1 240.1,358.0 240.2,358.0 240.4,357.9 240.6,357.9 240.7,357.8 241.2,357.7 241.4,357.7 241.6,357.6 241.7,357.6 241.9,357.5 242.4,357.5 242.6,357.4 242.8,357.4 242.9,357.3 243.1,357.3 243.6,357.2 243.8,357.1 243.9,357.1 244.1,357.0 244.3,357.0 244.8,356.9 244.9,356.9 245.1,356.8 245.3,356.8 245.4,356.7 246.1,356.7 246.3,356.6 246.4,356.5 246.6,356.5 247.1,356.4 247.3,356.4 247.5,356.3 247.6,356.3 247.8,356.2 248.3,356.2 248.5,356.1 248.6,356.1 248.8,356.0 249.0,355.9 249.5,355.9 249.6,355.8 249.8,355.8 250.0,355.7 251.3,355.7 251.8,355.6 252.0,355.6 252.2,355.5 252.3,355.5 252.5,355.4 253.0,355.4 253.2,355.3 253.3,355.2 253.5,355.2 253.7,355.1 254.2,355.1 254.3,355.0 254.5,355.0 254.7,354.9 254.8,354.9 255.4,354.8 255.5,354.8 255.7,354.7 255.9,354.6 256.0,354.6 256.5,354.5 256.7,354.5 256.9,354.4 257.0,354.4 257.2,354.3 257.7,354.3 257.9,354.2 258.0,354.2 258.2,354.1 258.4,354.0 258.9,354.0 259.1,353.9 259.2,353.9 259.4,353.8 259.6,353.8 260.1,353.7 260.2,353.7 260.4,353.6 260.6,353.6 260.7,353.5 261.6,353.4 261.7,353.4 261.9,353.3 262.4,353.3 262.6,353.2 262.7,353.2 262.9,353.1 263.1,353.1 263.6,353.0 263.8,353.0 263.9,352.9 264.1,352.9 264.3,352.8 264.8,352.7 264.9,352.7 265.1,352.6 265.3,352.6 265.4,352.5 266.1,352.5 266.3,352.4 266.4,352.4 266.6,352.3 267.1,352.3 267.3,352.2 267.5,352.1 267.6,352.1 267.8,352.0 268.3,352.0 268.5,351.9 268.6,351.9 268.8,351.8 269.0,351.8 269.5,351.7 269.6,351.7 269.8,351.6 270.0,351.5 270.1,351.5 271.0,351.4 271.1,351.4 271.3,351.3 271.8,351.3 272.0,351.2 272.2,351.2 272.3,351.1 272.5,351.1 273.0,351.0 273.2,350.9 273.3,350.9 273.5,350.8 273.7,350.8 274.2,350.7 274.3,350.7 274.5,350.6 274.7,350.6 274.8,350.5 275.3,350.5 275.5,350.4 275.7,350.4 275.9,350.3 276.0,350.2 276.5,350.2 276.7,350.1 276.9,350.1 277.0,350.0 277.2,350.0 277.7,349.9 277.9,349.9 278.0,349.8 278.2,349.8 278.4,349.7 278.9,349.6 279.0,349.6 279.2,349.5 279.4,349.5 279.5,349.4 280.1,349.4 280.2,349.3 280.4,349.3 280.6,349.2 280.7,349.2 281.2,349.1 281.4,349.0 281.6,349.0 281.7,348.9 281.9,348.9 282.4,348.8 282.6,348.8 282.7,348.7 282.9,348.7 283.1,348.6 283.6,348.6 283.7,348.5 283.9,348.4 284.1,348.4 284.3,348.3 284.8,348.3 284.9,348.2 285.1,348.2 285.3,348.1 285.4,348.1 285.9,348.0 286.1,348.0 286.3,347.9 286.4,347.9 286.6,347.8 287.1,347.7 287.3,347.7 287.4,347.6 287.6,347.6 287.8,347.5 288.3,347.5 288.5,347.4 288.6,347.4 288.8,347.3 289.0,347.3 289.5,347.2 289.6,347.1 289.8,347.1 290.0,347.0 290.1,347.0 290.6,346.9 290.8,346.9 291.0,346.8 291.1,346.8 291.3,346.7 293.0,346.7 293.2,346.6 293.3,346.5 293.5,346.5 293.7,346.4 294.2,346.4 294.3,346.3 294.5,346.3 294.7,346.2 294.8,346.2 295.3,346.1 295.5,346.1 295.7,346.0 295.8,345.9 296.0,345.9 296.5,345.8 296.7,345.8 296.9,345.7 297.0,345.7 297.2,345.6 297.7,345.6 297.9,345.5 298.0,345.5 298.2,345.4 298.4,345.4 298.9,345.3 299.0,345.2 299.2,345.2 299.4,345.1 299.5,345.1 300.0,345.0 300.2,345.0 300.4,344.9 300.5,344.9 300.7,344.8 301.2,344.8 301.4,344.7 301.6,344.6 301.7,344.6 301.9,344.5 302.4,344.5 302.6,344.4 302.7,344.4 302.9,344.3 303.1,344.3 303.6,344.2 303.7,344.2 303.9,344.1 304.1,344.0 304.2,344.0 304.7,343.9 304.9,343.9 305.1,343.8 305.3,343.8 305.4,343.7 305.9,343.7 306.1,343.6 306.3,343.6 306.4,343.5 306.6,343.5 307.3,343.4 307.4,343.3 307.6,343.3 307.8,343.2 308.3,343.2 308.4,343.1 308.6,343.1 308.8,343.0 308.9,343.0 309.5,342.9 309.6,342.9 309.8,342.8 310.0,342.7 310.1,342.7 310.6,342.6 310.8,342.6 311.0,342.5 311.1,342.5 311.3,342.4 311.8,342.4 312.0,342.3 312.1,342.3 312.3,342.2 312.5,342.1 313.0,342.1 313.1,342.0 313.3,342.0 313.5,341.9 313.7,341.9 314.2,341.8 314.3,341.8 314.5,341.7 315.8,341.7 316.0,341.6 316.5,341.5 316.7,341.5 316.8,341.4 317.0,341.4 317.2,341.3 317.7,341.3 317.9,341.2 318.0,341.2 318.2,341.1 318.4,341.1 318.9,341.0 319.0,341.0 319.2,340.9 319.4,340.8 319.5,340.8 320.0,340.7 320.2,340.7 320.4,340.6 320.5,340.6 320.7,340.5 321.2,340.5 321.4,340.4 321.5,340.4 321.7,340.3 321.9,340.2 322.4,340.2 322.6,340.1 322.7,340.1 323.6,340.0 323.7,340.0 323.9,339.9 324.1,339.9 324.2,339.8 324.7,339.8 324.9,339.7 325.1,339.6 325.2,339.6 325.4,339.5 325.9,339.5 326.1,339.4 326.3,339.4 326.4,339.3 326.6,339.3 327.4,339.2 327.6,339.2 327.8,339.1 328.3,339.0 328.4,339.0 328.6,338.9 328.8,338.9 328.9,338.8 329.4,338.8 329.6,338.7 329.8,338.7 329.9,338.6 330.1,338.6 330.6,338.5 330.8,338.5 331.0,338.4 331.1,338.3 331.3,338.3 331.8,338.2 332.0,338.2 332.1,338.1 332.3,338.1 332.5,338.0 333.0,338.0 333.1,337.9 333.3,337.9 333.5,337.8 333.6,337.7 334.1,337.7 334.3,337.6 334.5,337.6 334.7,337.5 334.8,337.5 335.5,337.4 335.7,337.4 335.8,337.3 336.0,337.3 336.5,337.2 336.7,337.1 336.8,337.1 337.0,337.0 337.2,337.0 337.7,336.9 337.8,336.9 338.0,336.8 338.2,336.8 338.3,336.7 338.9,336.7 339.0,336.6 339.2,336.5 339.4,336.5 339.5,336.4 340.0,336.4 340.2,336.3 340.4,336.3 340.5,336.2 340.7,336.2 341.2,336.1 341.4,336.1 341.5,336.0 341.7,336.0 341.9,335.9 342.4,335.8 342.5,335.8 342.7,335.7 342.9,335.7 343.1,335.6 343.6,335.6 343.7,335.5 343.9,335.5 344.1,335.4 344.2,335.4 344.7,335.3 344.9,335.2 345.1,335.2 345.2,335.1 345.4,335.1 345.9,335.0 346.1,335.0 346.2,334.9 346.4,334.9 346.6,334.8 347.1,334.8 347.3,334.7 347.4,334.6 347.6,334.6 347.8,334.5 348.3,334.5 348.4,334.4 348.6,334.4 348.8,334.3 348.9,334.3 349.4,334.2 349.6,334.2 349.8,334.1 349.9,334.0 350.1,334.0 350.6,333.9 350.8,333.9 350.9,333.8 351.1,333.8 351.3,333.7 352.0,333.7 352.1,333.6 352.3,333.6 352.5,333.5 354.1,333.5 354.3,333.4 354.5,333.3 354.6,333.3 354.8,333.2 355.3,333.2 355.5,333.1 355.7,333.1 355.8,333.0 356.0,333.0 356.5,332.9 356.7,332.9 356.8,332.8 357.0,332.7 357.2,332.7 357.7,332.6 357.8,332.6 358.0,332.5 358.2,332.5 358.3,332.4 358.8,332.4 359.0,332.3 359.2,332.3 359.3,332.2 359.5,332.1 360.0,332.1 360.2,332.0 360.4,332.0 360.5,331.9 360.7,331.9 361.2,331.8 361.4,331.8 361.5,331.7 361.7,331.7 361.9,331.6 362.4,331.5 362.5,331.5 362.7,331.4 362.9,331.4 363.0,331.3 363.5,331.3 363.7,331.2 363.9,331.2 364.1,331.1 364.2,331.1 364.7,331.0 364.9,331.0 365.1,330.9 365.2,330.8 365.4,330.8 365.9,330.7 366.1,330.7 366.2,330.6 366.4,330.6 366.6,330.5 367.1,330.5 367.2,330.4 367.4,330.4 367.6,330.3 367.7,330.2 368.6,330.2 368.8,330.1 368.9,330.1 369.4,330.0 369.6,330.0 369.8,329.9 369.9,329.9 370.1,329.8 370.6,329.8 370.8,329.7 370.9,329.6 371.1,329.6 371.3,329.5 371.8,329.5 371.9,329.4 372.1,329.4 372.3,329.3 372.5,329.3 373.0,329.2 373.1,329.2 373.3,329.1 373.5,329.0 373.6,329.0 375.3,328.9 375.5,328.9 375.6,328.8 375.8,328.8 376.0,328.7 376.5,328.7 376.7,328.6 376.8,328.6 377.0,328.5 377.2,328.5 377.7,328.4 377.8,328.3 378.0,328.3 378.2,328.2 378.3,328.2 378.8,328.1 379.0,328.1 379.2,328.0 379.3,328.0 379.5,327.9 380.0,327.9 380.2,327.8 380.3,327.7 380.5,327.7 380.7,327.6 381.2,327.6 381.4,327.5 381.5,327.5 381.7,327.4 381.9,327.4 382.4,327.3 382.5,327.3 382.7,327.2 382.9,327.1 383.0,327.1 383.5,327.0 383.7,327.0 383.9,326.9 384.0,326.9 384.7,326.8 384.9,326.8 385.1,326.7 385.2,326.7 385.4,326.6 385.9,326.5 386.1,326.5 386.2,326.4 386.4,326.4 386.6,326.3 387.1,326.3 387.2,326.2 387.4,326.2 387.6,326.1 387.7,326.1 388.2,326.0 388.4,326.0 389.4,325.9 389.6,325.8 389.8,325.8 389.9,325.7 390.1,325.7 390.6,325.6 390.8,325.6 390.9,325.5 391.1,325.5 391.3,325.4 391.8,325.4 391.9,325.3 392.1,325.2 392.3,325.2 392.4,325.1 392.9,325.1 393.1,325.0 393.3,325.0 393.5,324.9 393.6,324.9 394.1,324.8 394.3,324.8 394.5,324.7 394.6,324.6 395.3,324.6 395.5,324.5 395.6,324.5 395.8,324.4 396.0,324.4 396.5,324.3 396.6,324.3 396.8,324.2 397.0,324.2 397.1,324.1 397.7,324.0 397.8,324.0 398.0,323.9 398.2,323.9 398.3,323.8 398.8,323.8 399.0,323.7 399.2,323.7 399.3,323.6 399.5,323.6 400.0,323.5 400.2,323.5 400.3,323.4 400.5,323.3 400.7,323.3 401.2,323.2 401.3,323.2 401.5,323.1 401.7,323.1 401.9,323.0 402.4,323.0 402.5,322.9 402.7,322.9 402.9,322.8 403.0,322.7 403.5,322.7 403.7,322.6 403.9,322.6 404.0,322.5 404.2,322.5 404.7,322.4 404.9,322.4 405.0,322.3 405.2,322.3 405.4,322.2 405.9,322.1 406.1,322.1 406.2,322.0 406.4,322.0 406.6,321.9 407.1,321.9 407.2,321.8 407.4,321.8 407.6,321.7 407.7,321.7 408.2,321.6 408.4,321.5 408.6,321.5 408.7,321.4 408.9,321.4 409.4,321.3 409.6,321.3 409.7,321.2 409.9,321.2 410.1,321.1 410.6,321.1 410.8,321.0 410.9,321.0 411.1,320.9 411.8,320.8 411.9,320.8 412.1,320.7 412.3,320.7 412.4,320.6 412.9,320.6 413.1,320.5 413.3,320.5 413.4,320.4 413.6,320.4 414.1,320.3 415.5,320.2 415.6,320.2 415.8,320.1 416.0,320.1 416.5,320.0 416.6,320.0 416.8,319.9 417.0,319.9 417.1,319.8 417.6,319.8 417.8,319.7 418.0,319.6 418.1,319.6 418.3,319.5 418.8,319.5 419.0,319.4 419.2,319.4 419.3,319.3 419.5,319.3 420.0,319.2 420.2,319.2 420.3,319.1 420.5,319.1 420.7,319.0 421.2,318.9 421.3,318.9 421.5,318.8 421.7,318.8 421.8,318.7 422.3,318.7 422.5,318.6 422.7,318.6 422.9,318.5 423.0,318.5 423.5,318.4 423.7,318.3 423.9,318.3 424.0,318.2 424.2,318.2 424.7,318.1 424.9,318.1 425.0,318.0 425.2,318.0 425.4,317.9 425.9,317.9 426.0,317.8 426.2,317.7 426.4,317.7 426.5,317.6 427.1,317.6 427.2,317.5 427.4,317.5 427.6,317.4 427.7,317.4 428.2,317.3 428.4,317.3 428.6,317.2 428.7,317.1 428.9,317.1 429.4,317.0 429.6,317.0 429.9,316.9 430.1,316.9 430.6,316.8 430.7,316.8 430.9,316.7 431.1,316.7 431.3,316.6 431.8,316.6 431.9,316.5 432.1,316.4 432.3,316.4 432.4,316.3 432.9,316.3 433.1,316.2 433.3,316.2 433.4,316.1 435.3,316.1 435.5,316.0 435.6,316.0 435.8,315.9 436.0,315.8 436.5,315.8 436.6,315.7 436.8,315.7 437.0,315.6 437.1,315.6 437.6,315.5 437.8,315.5 438.0,315.4 438.1,315.4 438.3,315.3 438.8,315.2 439.0,315.2 439.1,315.1 439.3,315.1 439.5,315.0 440.0,315.0 440.2,314.9 440.3,314.9 440.5,314.8 440.7,314.8 441.2,314.7 441.3,314.6 441.5,314.6 441.7,314.5 441.8,314.5 442.3,314.4 442.5,314.4 442.7,314.3 442.8,314.3 443.0,314.2 443.5,314.2 443.7,314.1 443.9,314.1 444.0,314.0 444.2,313.9 444.7,313.9 444.9,313.8 445.0,313.8 445.2,313.7 445.4,313.7 446.0,313.6 446.2,313.6 446.4,313.5 446.5,313.5 447.0,313.4 447.2,313.3 447.4,313.3 447.5,313.2 447.7,313.2 448.2,313.1 448.4,313.1 448.6,313.0 448.7,313.0 448.9,312.9 449.4,312.9 449.6,312.8 449.7,312.7 449.9,312.7 450.9,312.6 451.1,312.6 451.2,312.5 451.7,312.5 451.9,312.4 452.1,312.4 452.3,312.3 452.4,312.3 452.9,312.2 453.1,312.1 453.3,312.1 453.4,312.0 453.6,312.0 454.1,311.9 454.3,311.9 454.4,311.8 454.6,311.8 454.8,311.7 455.3,311.7 455.4,311.6 455.6,311.6 455.8,311.5 455.9,311.4 456.5,311.4 456.6,311.3 456.8,311.3 457.0,311.2 457.1,311.2 457.6,311.1 457.8,311.1 458.0,311.0 458.1,311.0 458.3,310.9 458.8,310.8 459.0,310.8 459.1,310.7 460.0,310.7 460.1,310.6 460.3,310.6 460.5,310.5 460.7,310.5 461.2,310.4 461.3,310.4 461.5,310.3 461.7,310.2 461.8,310.2 462.3,310.1 462.5,310.1 462.7,310.0 462.8,310.0 463.0,309.9 463.5,309.9 463.7,309.8 463.8,309.8 464.0,309.7 464.2,309.6 464.7,309.6 464.9,309.5 465.0,309.5 465.2,309.4 465.4,309.4 465.9,309.3 466.0,309.3 466.2,309.2 466.4,309.2 466.5,309.1 467.0,309.1 467.2,309.0 467.4,308.9 467.5,308.9 467.7,308.8 468.2,308.8 468.4,308.7 468.5,308.7 468.7,308.6 468.9,308.6 469.4,308.5 469.6,308.5 469.7,308.4 469.9,308.3 470.1,308.3 470.6,308.2 470.7,308.2 470.9,308.1 471.1,308.1 471.2,308.0 471.7,308.0 471.9,307.9 472.1,307.9 472.2,307.8 472.4,307.7 472.9,307.7 473.1,307.6 473.3,307.6 473.4,307.5 473.6,307.5 474.1,307.4 474.3,307.4 474.4,307.3 474.6,307.3 474.8,307.2 475.3,307.1 475.4,307.1 475.6,307.0 477.1,307.0 477.6,306.9 477.8,306.9 478.0,306.8 478.1,306.8 478.3,306.7 478.8,306.7 479.0,306.6 479.1,306.6 479.3,306.5 479.5,306.4 480.0,306.4 480.1,306.3 480.3,306.3 480.5,306.2 480.6,306.2 481.1,306.1 481.3,306.1 481.5,306.0 481.7,306.0 481.8,305.9 482.3,305.8 482.5,305.8 482.7,305.7 482.8,305.7 483.0,305.6 483.5,305.6 483.7,305.5 483.8,305.5 484.0,305.4 484.2,305.4 484.7,305.3 484.8,305.2 485.0,305.2 485.2,305.1 485.3,305.1 485.9,305.0 486.0,305.0 486.2,304.9 486.4,304.9 486.5,304.8 487.0,304.8 487.2,304.7 487.4,304.6 487.5,304.6 487.7,304.5 488.2,304.5 488.4,304.4 488.5,304.4 488.7,304.3 488.9,304.3 489.4,304.2 489.5,304.2 489.7,304.1 489.9,304.1 490.1,304.0 490.6,303.9 490.7,303.9 490.9,303.8 491.1,303.8 491.7,303.7 491.9,303.7 492.1,303.6 492.2,303.6 492.4,303.5 492.9,303.5 493.1,303.4 493.2,303.3 493.4,303.3 493.6,303.2 494.1,303.2 494.3,303.1 494.4,303.1 494.6,303.0 494.8,303.0 495.3,302.9 495.4,302.9 495.6,302.8 495.8,302.7 495.9,302.7 496.4,302.6 496.6,302.6 496.8,302.5 496.9,302.5 497.1,302.4 497.6,302.4 497.8,302.3 497.9,302.3 499.3,302.2 499.5,302.1 500.0,302.1 500.1,302.0 500.3,302.0 500.5,301.9 500.6,301.9 501.1,301.8 501.3,301.8 501.5,301.7 501.6,301.7 501.8,301.6 502.3,301.6 502.5,301.5 502.7,301.4 502.8,301.4 503.0,301.3 503.5,301.3 503.7,301.2 503.8,301.2 504.0,301.1 504.2,301.1 504.7,301.0 504.8,301.0 505.0,300.9 505.2,300.8 505.3,300.8 505.8,300.7 506.0,300.7 506.2,300.6 506.3,300.6 506.5,300.5 507.2,300.5 507.4,300.4 507.5,300.4 507.7,300.3 508.2,300.2 508.4,300.2 508.5,300.1 508.7,300.1 508.9,300.0 509.4,300.0 509.5,299.9 509.7,299.9 509.9,299.8 510.0,299.8 510.5,299.7 510.7,299.6 510.9,299.6 511.1,299.5 511.2,299.5 512.2,299.4 512.4,299.4 512.9,299.3 513.1,299.3 513.2,299.2 513.4,299.2 513.6,299.1 514.1,299.1 514.2,299.0 514.4,298.9 514.6,298.9 514.7,298.8 515.3,298.8 515.4,298.7 515.6,298.7 515.8,298.6 515.9,298.6 516.4,298.5 516.6,298.5 516.8,298.4 516.9,298.3 517.1,298.3 517.6,298.2 517.8,298.2 517.9,298.1 518.1,298.1 518.3,298.0 518.9,298.0 519.1,297.9 519.3,297.9 519.5,297.8 520.0,297.7 520.1,297.7 520.3,297.6 520.5,297.6 520.6,297.5 521.1,297.5 521.3,297.4 521.5,297.4 521.6,297.3 521.8,297.3 522.3,297.2 522.5,297.1 522.6,297.1 522.8,297.0 523.0,297.0 523.5,296.9 523.7,296.9 523.8,296.8 524.0,296.8 524.2,296.7 524.7,296.7 524.8,296.6 525.0,296.6 525.2,296.5 525.3,296.4 525.8,296.4 526.0,296.3 526.2,296.3 526.3,296.2 526.5,296.2 527.0,296.1 527.2,296.1 527.3,296.0 527.5,296.0 527.7,295.9 528.2,295.8 528.4,295.8 528.5,295.7 528.7,295.7 528.9,295.6 529.4,295.6 529.5,295.5 529.7,295.5 529.9,295.4 530.0,295.4 530.5,295.3 530.7,295.2 530.9,295.2 531.0,295.1 531.2,295.1 531.7,295.0 531.9,295.0 532.1,294.9 532.2,294.9 532.4,294.8 532.9,294.8 533.1,294.7 533.2,294.6 533.4,294.6 533.6,294.5 534.1,294.5 534.2,294.4 534.4,294.4 534.6,294.3 534.7,294.3 535.6,294.2 535.7,294.2 535.9,294.1 536.4,294.1 536.6,294.0 536.8,293.9 536.9,293.9 538.3,293.8 538.8,293.8 538.9,293.7 539.1,293.7 539.3,293.6 539.4,293.6 539.9,293.5 540.1,293.5 540.3,293.4 540.5,293.3 540.6,293.3 541.1,293.2 541.3,293.2 541.5,293.1 541.6,293.1 541.8,293.0 542.3,293.0 542.5,292.9 542.6,292.9 542.8,292.8 543.0,292.7 543.5,292.7 543.6,292.6 543.8,292.6 544.0,292.5 544.1,292.5 544.7,292.4 544.8,292.4 545.0,292.3 545.2,292.3 545.3,292.2 545.8,292.2 546.0,292.1 546.2,292.0 546.3,292.0 546.5,291.9 547.0,291.9 547.2,291.8 547.3,291.8 547.5,291.7 547.7,291.7 548.2,291.6 548.3,291.6 548.5,291.5 548.7,291.4 548.9,291.4 549.4,291.3 549.5,291.3 549.7,291.2 549.9,291.2 550.0,291.1 550.5,291.1 550.7,291.0 550.9,291.0 551.0,290.9 551.2,290.8 551.7,290.8 551.9,290.7 552.0,290.7 552.2,290.6 552.4,290.6 553.1,290.5 553.2,290.5 553.4,290.4 553.6,290.4 554.1,290.3 554.2,290.2 554.4,290.2 554.6,290.1 554.7,290.1 555.2,290.0 555.4,290.0 555.6,289.9 555.7,289.9 555.9,289.8 556.4,289.8 556.6,289.7 556.7,289.7 556.9,289.6 557.1,289.5 558.8,289.5 558.9,289.4 559.1,289.4 559.3,289.3 559.4,289.3 559.9,289.2 560.1,289.2 560.3,289.1 560.4,289.1 560.6,289.0 561.1,288.9 561.3,288.9 561.5,288.8 561.6,288.8 561.8,288.7 562.3,288.7 562.5,288.6 562.6,288.6 562.8,288.5 563.0,288.5 563.5,288.4 563.6,288.3 563.8,288.3 564.0,288.2 564.1,288.2 564.6,288.1 564.8,288.1 565.0,288.0 565.1,288.0 565.3,287.9 565.8,287.9 566.0,287.8 566.2,287.7 566.3,287.7 566.5,287.6 567.0,287.6 567.2,287.5 567.3,287.5 567.5,287.4 567.7,287.4 568.5,287.3 568.7,287.3 568.8,287.2 569.3,287.2 569.5,287.1 569.7,287.1 569.9,287.0 570.0,287.0 570.5,286.9 570.7,286.8 570.9,286.8 571.0,286.7 571.2,286.7 571.7,286.6 571.9,286.6 572.0,286.5 572.2,286.5 572.4,286.4 573.4,286.4 573.5,286.3 574.1,286.2 574.2,286.2 574.4,286.1 574.6,286.1 574.7,286.0 575.2,286.0 575.4,285.9 575.6,285.9 575.7,285.8 575.9,285.8 576.4,285.7 576.6,285.6 576.7,285.6 576.9,285.5 577.1,285.5 577.6,285.4 577.7,285.4 577.9,285.3 578.1,285.3 578.8,285.2 578.9,285.2 579.1,285.1 579.3,285.0 579.4,285.0 579.9,284.9 580.1,284.9 580.3,284.8 580.4,284.8 580.6,284.7 581.1,284.7 581.3,284.6 581.4,284.6 581.6,284.5 581.8,284.5 582.3,284.4 582.5,284.3 582.6,284.3 582.8,284.2 583.0,284.2 583.5,284.1 583.6,284.1 583.8,284.0 584.0,284.0 584.1,283.9 584.6,283.9 584.8,283.8 585.0,283.7 585.1,283.7 585.3,283.6 585.8,283.6 586.0,283.5 586.1,283.5 586.3,283.4 586.5,283.4 587.0,283.3 587.2,283.3 587.3,283.2 587.5,283.1 587.7,283.1 588.2,283.0 588.3,283.0 588.5,282.9 588.7,282.9 588.8,282.8 589.3,282.8 589.5,282.7 589.7,282.7 589.8,282.6 590.0,282.5 590.5,282.5 590.7,282.4 590.9,282.4 591.0,282.3 591.2,282.3 591.7,282.2 591.9,282.2 592.0,282.1 592.2,282.1 592.4,282.0 592.9,282.0 593.0,281.9 593.2,281.8 593.4,281.8 593.5,281.7 594.0,281.7 594.2,281.6 594.4,281.6 594.5,281.5 594.7,281.5 595.4,281.4 595.6,281.4 595.7,281.3 595.9,281.2 596.4,281.2 596.6,281.1 596.7,281.1 596.9,281.0 597.1,281.0 597.6,280.9 597.7,280.9 597.9,280.8 598.1,280.8 598.2,280.7 599.9,280.6 600.1,280.6 600.3,280.5 600.4,280.5 600.6,280.4 601.1,280.4 601.3,280.3 601.4,280.3 601.6,280.2 601.8,280.2 602.3,280.1 602.4,280.0 602.6,280.0 602.8,279.9 602.9,279.9 603.5,279.8 603.6,279.8 603.8,279.7 604.0,279.7 604.1,279.6 604.6,279.6 604.8,279.5 605.0,279.5 605.1,279.4 605.3,279.3 605.8,279.3 606.0,279.2 606.1,279.2 606.3,279.1 606.5,279.1 607.0,279.0 607.1,279.0 607.3,278.9 607.5,278.9 607.7,278.8 608.2,278.7 608.3,278.7 608.5,278.6 608.7,278.6 608.8,278.5 609.3,278.5 609.5,278.4 609.7,278.4 609.8,278.3 610.0,278.3 610.5,278.2 610.7,278.1 610.8,278.1 611.0,278.0 611.2,278.0 611.7,277.9 611.9,277.9 612.0,277.8 612.2,277.8 612.4,277.7 612.9,277.7 613.0,277.6 613.2,277.5 613.4,277.5 613.5,277.4 614.2,277.4 614.4,277.3 614.5,277.3 614.7,277.2 615.2,277.2 615.4,277.1 615.5,277.1 615.7,277.0 615.9,277.0 616.4,276.9 616.6,276.8 616.7,276.8 616.9,276.7 617.1,276.7 618.7,276.6 618.9,276.6 619.1,276.5 619.2,276.5 619.4,276.4 619.9,276.4 620.1,276.3 620.3,276.2 620.4,276.2 620.6,276.1 621.1,276.1 621.3,276.0 621.4,276.0 621.6,275.9 621.8,275.9 622.3,275.8 622.4,275.8 622.6,275.7 622.8,275.6 622.9,275.6 623.4,275.5 623.6,275.5 623.8,275.4 623.9,275.4 624.1,275.3 624.6,275.3 624.8,275.2 625.0,275.2 625.1,275.1 625.3,275.1 625.8,275.0 626.0,274.9 626.1,274.9 626.3,274.8 626.5,274.8 627.0,274.7 627.1,274.7 627.3,274.6 627.5,274.6 627.6,274.5 628.1,274.5 628.3,274.4 628.5,274.3 628.7,274.3 628.8,274.2 629.3,274.2 629.5,274.1 629.8,274.1 630.0,274.0 630.5,274.0 630.7,273.9 630.8,273.9 631.0,273.8 631.2,273.7 631.7,273.7 631.8,273.6 632.0,273.6 632.2,273.5 632.3,273.5 632.9,273.4 633.0,273.4 633.2,273.3 633.4,273.3 633.5,273.2 634.5,273.1 634.7,273.1 635.2,273.0 635.4,273.0 635.5,272.9 635.7,272.9 635.9,272.8 636.4,272.8 636.5,272.7 636.7,272.7 636.9,272.6 637.1,272.6 637.6,272.5 637.7,272.4 637.9,272.4 638.1,272.3 638.2,272.3 638.7,272.2 638.9,272.2 639.1,272.1 639.2,272.1 639.4,272.0 639.9,272.0 640.1,271.9 640.2,271.8 640.4,271.8 640.6,271.7 641.1,271.7 641.3,271.6 641.4,271.6 641.6,271.5 641.8,271.5 642.3,271.4 642.4,271.4 642.6,271.3 643.4,271.2 643.6,271.2 643.8,271.1 643.9,271.1 644.1,271.0 644.6,271.0 644.8,270.9 644.9,270.9 645.1,270.8 645.3,270.8 645.8,270.7 646.0,270.6 646.1,270.6 646.3,270.5 646.5,270.5 647.0,270.4 647.1,270.4 647.3,270.3 647.5,270.3 647.6,270.2 648.1,270.2 648.3,270.1 648.5,270.1 648.6,270.0 648.8,269.9 649.3,269.9 649.5,269.8 649.7,269.8 649.8,269.7 650.0,269.7 650.5,269.6 650.7,269.6 650.8,269.5 651.0,269.5 651.2,269.4 651.7,269.3 651.8,269.3 652.0,269.2 652.2,269.2 652.3,269.1 652.8,269.1 653.0,269.0 653.2,269.0 653.4,268.9 653.5,268.9 654.0,268.8 654.2,268.7 654.4,268.7 654.5,268.6 654.7,268.6 655.2,268.5 655.4,268.5 655.5,268.4 655.7,268.4 655.9,268.3 656.4,268.3 656.5,268.2 656.7,268.1 656.9,268.1 657.0,268.0 657.6,268.0 657.7,267.9 657.9,267.9 658.1,267.8 658.2,267.8 658.7,267.7 658.9,267.7 659.1,267.6 659.2,267.6 661.1,267.5 661.2,267.4 661.4,267.4 661.6,267.3 661.8,267.3 662.3,267.2 662.4,267.2 662.6,267.1 662.8,267.1 662.9,267.0 663.4,267.0 663.6,266.9 663.8,266.8 663.9,266.8 664.1,266.7 664.6,266.7 664.8,266.6 664.9,266.6 665.1,266.5 665.3,266.5 665.8,266.4 666.0,266.4 666.1,266.3 666.3,266.2 666.5,266.2 667.0,266.1 667.1,266.1 667.3,266.0 667.5,266.0 667.6,265.9 668.1,265.9 668.3,265.8 668.5,265.8 668.6,265.7 668.8,265.6 669.3,265.6 669.5,265.5 669.6,265.5 669.8,265.4 670.0,265.4 670.5,265.3 670.7,265.3 670.8,265.2 671.0,265.2 671.2,265.1 671.7,265.1 671.8,265.0 672.0,264.9 672.2,264.9 672.3,264.8 672.8,264.8 673.0,264.7 673.2,264.7 673.3,264.6 673.5,264.6 674.0,264.5 674.2,264.5 674.4,264.4 674.5,264.3 674.7,264.3 675.4,264.2 675.5,264.2 675.7,264.1 675.9,264.1 676.4,264.0 676.5,264.0 676.7,263.9 676.9,263.9 677.0,263.8 677.5,263.7 677.7,263.7 677.9,263.6 678.0,263.6 678.2,263.5 678.7,263.5 678.9,263.4 679.1,263.4 679.2,263.3 679.4,263.3 679.9,263.2 680.1,263.1 680.2,263.1 680.4,263.0 680.6,263.0 681.1,262.9 681.2,262.9 681.4,262.8 681.6,262.8 683.4,262.7 683.6,262.7 683.8,262.6 683.9,262.6 684.1,262.5 684.6,262.4 684.8,262.4 684.9,262.3 685.1,262.3 685.3,262.2 685.8,262.2 685.9,262.1 686.1,262.1 686.3,262.0 686.4,262.0 687.0,261.9 687.1,261.8 687.3,261.8 687.5,261.7 687.6,261.7 688.1,261.6 688.3,261.6 688.5,261.5 688.6,261.5 688.8,261.4 689.3,261.4 689.5,261.3 689.6,261.2 689.8,261.2 690.0,261.1 690.5,261.1 690.6,261.0 690.8,261.0 691.7,260.9 691.8,260.9 692.0,260.8 692.2,260.8 692.3,260.7 692.8,260.6 693.0,260.6 693.2,260.5 693.3,260.5 693.5,260.4 694.0,260.4 694.2,260.3 694.3,260.3 694.5,260.2 694.7,260.2 695.2,260.1 695.4,260.1 696.4,260.0 696.5,259.9 696.7,259.9 696.9,259.8 697.0,259.8 697.5,259.7 697.7,259.7 697.9,259.6 698.0,259.6 698.2,259.5 698.7,259.5 698.9,259.4 699.0,259.3 699.2,259.3 699.4,259.2 699.9,259.2 700.1,259.1 700.2,259.1 700.4,259.0 700.6,259.0 701.1,258.9 701.2,258.9 701.4,258.8 701.6,258.7 701.7,258.7 702.4,258.6 702.6,258.6 702.7,258.5 702.9,258.5 703.4,258.4 703.6,258.4 703.8,258.3 703.9,258.3 704.1,258.2 704.6,258.1 704.8,258.1 704.9,258.0 705.1,258.0 705.3,257.9 705.8,257.9 705.9,257.8 706.1,257.8 706.3,257.7 706.4,257.7 706.9,257.6 707.1,257.6 707.3,257.5 707.4,257.4 707.6,257.4 708.1,257.3 708.3,257.3 708.5,257.2 708.6,257.2 708.8,257.1 709.3,257.1 709.5,257.0 709.6,257.0 709.8,256.9 710.0,256.8 710.5,256.8 710.6,256.7 710.8,256.7 711.0,256.6 711.1,256.6 711.6,256.5 711.8,256.5 712.0,256.4 712.2,256.4 712.3,256.3 712.8,256.2 713.0,256.2 713.2,256.1 713.3,256.1 713.5,256.0 714.0,256.0 714.2,255.9 714.3,255.9 714.5,255.8 714.7,255.8 715.2,255.7 715.3,255.6 715.5,255.6 715.7,255.5 715.8,255.5 716.4,255.4 716.5,255.4 716.7,255.3 716.9,255.3 717.0,255.2 717.5,255.2 717.7,255.1 717.9,255.1 718.0,255.0 718.2,254.9 719.0,254.9 719.2,254.8 719.4,254.8 719.9,254.7 720.0,254.7 720.2,254.6 720.4,254.6 720.6,254.5 721.1,254.5 722.4,254.4 722.6,254.3 722.7,254.3 722.9,254.2 723.4,254.2 723.6,254.1 723.7,254.1 723.9,254.0 724.1,254.0 724.6,253.9 724.8,253.9 724.9,253.8 725.1,253.7 725.3,253.7 725.8,253.6 725.9,253.6 726.1,253.5 726.3,253.5 726.4,253.4 726.9,253.4 727.1,253.3 727.3,253.3 727.4,253.2 727.6,253.1 728.1,253.1 728.3,253.0 728.4,253.0 728.6,252.9 728.8,252.9 729.3,252.8 729.5,252.8 729.6,252.7 729.8,252.7 730.0,252.6 730.5,252.6 730.6,252.5 730.8,252.4 731.0,252.4 731.1,252.3 731.6,252.3 731.8,252.2 732.0,252.2 732.1,252.1 732.3,252.1 732.8,252.0 733.0,252.0 733.2,251.9 733.3,251.8 733.5,251.8 734.0,251.7 734.2,251.7 734.3,251.6 734.5,251.6 734.7,251.5 735.2,251.5 735.3,251.4 735.5,251.4 735.7,251.3 735.8,251.2 736.3,251.2 736.5,251.1 736.8,251.1 737.0,251.0 737.5,251.0 737.7,250.9 737.9,250.9 738.0,250.8 738.2,250.8 738.7,250.7 738.9,250.7 739.0,250.6 739.2,250.5 739.4,250.5 739.9,250.4 740.0,250.4 740.2,250.3 740.4,250.3 740.5,250.2 741.0,250.2 742.6,250.1 742.7,250.1 742.9,250.0 743.4,249.9 743.6,249.9 743.7,249.8 743.9,249.8 744.1,249.7 744.6,249.7 744.7,249.6 744.9,249.6 745.1,249.5 745.2,249.5 745.8,249.4 745.9,249.3 746.1,249.3 746.3,249.2 746.4,249.2 746.9,249.1 747.1,249.1 747.3,249.0 747.4,249.0 747.6,248.9 748.1,248.9 748.3,248.8 748.4,248.7 748.6,248.7 748.8,248.6 749.3,248.6 749.4,248.5 749.6,248.5 749.8,248.4 750.0,248.4 750.5,248.3 750.6,248.3 750.8,248.2 751.0,248.2 751.1,248.1 751.6,248.0 751.8,248.0 752.0,247.9 752.1,247.9 752.8,247.8 753.0,247.8 753.1,247.7 753.3,247.7 753.5,247.6 754.0,247.6 754.2,247.5 754.3,247.4 754.5,247.4 754.7,247.3 755.2,247.3 755.3,247.2 755.5,247.2 755.7,247.1 755.8,247.1 756.3,247.0 756.5,247.0 756.7,246.9 757.7,246.8 757.8,246.8 758.0,246.7 758.2,246.7 758.7,246.6 758.9,246.6 759.0,246.5 759.2,246.5 759.4,246.4 759.9,246.4 760.0,246.3 760.2,246.2 760.4,246.2 760.5,246.1 761.0,246.1 761.2,246.0 761.4,246.0 761.5,245.9 761.7,245.9 762.4,245.8 762.6,245.8 762.7,245.7 762.9,245.7 763.4,245.6 763.6,245.5 763.7,245.5 763.9,245.4 764.1,245.4 764.6,245.3 764.7,245.3 764.9,245.2 765.1,245.2 765.2,245.1 765.7,245.1 765.9,245.0 766.1,244.9 766.2,244.9 766.4,244.8 766.9,244.8 767.1,244.7 767.3,244.7 767.4,244.6 767.6,244.6 768.1,244.5 768.3,244.5 768.4,244.4 768.6,244.3 768.8,244.3 769.3,244.2 769.4,244.2 769.6,244.1 769.8,244.1 769.9,244.0 770.4,244.0 770.6,243.9 770.8,243.9 771.0,243.8 771.1,243.7 771.6,243.7 771.8,243.6 772.0,243.6 772.1,243.5 772.3,243.5 772.8,243.4 773.0,243.4 773.1,243.3 773.3,243.3 773.5,243.2 774.0,243.2 774.1,243.1 774.3,243.0 774.5,243.0 774.6,242.9 775.2,242.9 775.3,242.8 775.5,242.8 775.7,242.7 775.8,242.7 776.3,242.6 776.5,242.6 776.7,242.5 776.8,242.4 777.0,242.4 777.5,242.3 777.7,242.3 777.8,242.2 778.0,242.2 778.2,242.1 778.7,242.1 778.8,242.0 779.0,242.0 779.2,241.9 779.4,241.8 779.9,241.8 780.0,241.7 780.2,241.7 780.4,241.6 780.5,241.6 781.0,241.5 781.2,241.5 781.4,241.4 781.5,241.4 781.7,241.3 782.2,241.2 782.4,241.2 783.9,241.1 784.1,241.1 784.6,241.0 784.7,241.0 784.9,240.9 785.1,240.9 785.2,240.8 785.7,240.8 785.9,240.7 786.1,240.7 786.2,240.6 786.4,240.5 786.9,240.5 787.1,240.4 787.2,240.4 787.4,240.3 787.6,240.3 788.1,240.2 788.3,240.2 788.4,240.1 788.6,240.1 788.8,240.0 789.3,239.9 789.4,239.9 789.6,239.8 789.8,239.8 789.9,239.7 790.4,239.7 790.6,239.6 790.8,239.6 790.9,239.5 791.1,239.5 791.6,239.4 791.8,239.3 792.0,239.3 792.1,239.2 792.3,239.2 792.8,239.1 793.0,239.1 793.1,239.0 793.3,239.0 793.5,238.9 794.0,238.9 794.1,238.8 794.3,238.7 794.5,238.7 794.6,238.6 795.1,238.6 795.3,238.5 795.5,238.5 795.6,238.4 795.8,238.4 796.3,238.3 796.5,238.3 796.7,238.2 796.8,238.2 797.0,238.1 797.5,238.0 797.7,238.0 797.8,237.9 798.7,237.9 798.8,237.8 799.0,237.8 799.2,237.7 799.3,237.7 799.8,237.6 800.0,237.6 800.2,237.5 800.4,237.4 800.5,237.4 801.0,237.3 801.2,237.3 801.4,237.2 801.5,237.2 801.7,237.1 802.2,237.1 802.4,237.0 802.5,237.0 802.7,236.9 802.9,236.8 803.4,236.8 803.5,236.7 803.7,236.7 803.9,236.6 804.0,236.6 804.6,236.5 804.7,236.5 804.9,236.4 805.1,236.4 805.2,236.3 807.1,236.2 807.2,236.2 807.4,236.1 807.6,236.1 808.1,236.0 808.2,236.0 808.4,235.9 808.6,235.9 808.8,235.8 809.3,235.8 809.4,235.7 809.6,235.7 809.8,235.6 809.9,235.5 810.4,235.5 810.6,235.4 810.8,235.4 810.9,235.3 811.1,235.3 811.6,235.2 811.8,235.2 811.9,235.1 812.1,235.1 812.3,235.0 812.8,234.9 813.0,234.9 813.1,234.8 813.3,234.8 813.5,234.7 814.1,234.7 814.3,234.6 814.5,234.6 814.6,234.5 815.1,234.5 815.3,234.4 815.5,234.3 815.6,234.3 815.8,234.2 816.3,234.2 816.5,234.1 816.6,234.1 816.8,234.0 817.0,234.0 817.5,233.9 817.7,233.9 817.8,233.8 818.0,233.7 819.0,233.7 819.2,233.6 819.3,233.6 819.8,233.5 820.0,233.5 820.2,233.4 820.3,233.4 820.5,233.3 821.0,233.3 821.2,233.2 821.4,233.2 821.5,233.1 821.7,233.0 822.2,233.0 822.4,232.9 822.5,232.9 822.7,232.8 822.9,232.8 823.4,232.7 823.5,232.7 823.7,232.6 823.9,232.6 824.0,232.5 824.5,232.4 824.7,232.4 824.9,232.3 825.0,232.3 825.2,232.2 825.7,232.2 825.9,232.1 826.1,232.1 826.2,232.0 826.9,232.0 827.1,231.9 827.2,231.8 827.4,231.8 827.6,231.7 828.1,231.7 828.2,231.6 828.4,231.6 828.6,231.5 828.7,231.5 829.2,231.4 829.4,231.4 829.6,231.3 829.8,231.2 829.9,231.2 830.4,231.1 830.6,231.1 830.8,231.0 830.9,231.0 831.1,230.9 831.6,230.9 831.8,230.8 831.9,230.8 832.1,230.7 832.3,230.7 832.8,230.6 832.9,230.5 833.1,230.5 833.3,230.4 833.4,230.4 834.0,230.3 834.1,230.3 834.3,230.2 834.5,230.2 834.6,230.1 835.1,230.1 835.3,230.0 835.5,229.9 835.6,229.9 835.8,229.8 836.3,229.8 836.5,229.7 836.6,229.7 836.8,229.6 837.0,229.6 837.5,229.5 837.6,229.5 837.8,229.4 838.0,229.3 838.2,229.3 838.7,229.2 838.8,229.2 839.0,229.1 839.2,229.1 839.3,229.0 839.8,229.0 840.0,228.9" fill="none" stroke="#7d8a88" stroke-width="2" stroke-linejoin="round" stroke-linecap="round"/>
<polyline points="64.0,396.0 64.2,395.9 64.3,395.9 64.8,395.8 65.0,395.8 65.2,395.7 65.3,395.7 65.5,395.6 66.0,395.6 66.2,395.5 66.4,395.5 66.5,395.4 67.9,395.3 68.4,395.3 68.5,395.2 68.7,395.2 68.9,395.1 69.0,395.1 69.5,395.0 69.7,394.9 69.9,394.9 70.0,394.8 70.2,394.8 70.7,394.7 70.9,394.7 71.1,394.6 71.2,394.6 71.4,394.5 71.9,394.4 72.1,394.4 72.2,394.3 72.4,394.3 72.6,394.2 73.1,394.2 73.2,394.1 73.4,394.1 73.6,394.0 73.7,394.0 74.2,393.9 74.4,393.8 74.6,393.8 74.8,393.8 74.9,393.7 75.4,393.6 75.6,393.6 75.8,393.5 75.9,393.5 76.1,393.4 76.6,393.4 76.8,393.3 76.9,393.3 77.1,393.2 77.3,393.1 77.9,393.1 78.1,393.0 78.3,392.9 78.4,392.9 79.0,392.8 79.1,392.8 79.3,392.8 79.5,392.7 79.6,392.6 80.1,392.6 80.3,392.5 80.5,392.5 80.6,392.4 80.8,392.4 81.3,392.3 81.5,392.3 81.6,392.2 82.5,392.2 82.6,392.1 82.8,392.1 83.0,392.0 83.2,392.0 83.7,391.9 83.8,391.8 84.0,391.8 84.2,391.7 84.3,391.7 84.8,391.7 85.0,391.6 85.2,391.5 85.3,391.5 85.5,391.4 86.0,391.3 86.2,391.3 86.3,391.2 86.5,391.2 86.7,391.1 87.4,391.1 87.5,391.1 87.7,391.0 87.9,390.9 88.4,390.9 88.5,390.8 88.7,390.7 88.9,390.7 89.0,390.6 89.5,390.5 89.7,390.5 89.9,390.5 90.0,390.4 90.2,390.3 90.7,390.2 90.9,390.2 91.0,390.1 91.2,390.0 91.4,390.0 91.9,389.9 92.1,389.9 92.2,389.8 92.4,389.7 92.6,389.7 93.1,389.6 93.2,389.6 93.4,389.5 93.6,389.5 93.7,389.4 94.2,389.3 94.4,389.3 94.6,389.3 94.7,389.2 94.9,389.2 95.4,389.1 95.6,389.0 95.8,388.9 95.9,388.9 96.1,388.8 96.6,388.6 96.8,388.6 96.9,388.6 97.1,388.5 97.3,388.5 97.8,388.4 97.9,388.4 98.1,388.3 98.3,388.3 98.4,388.2 98.9,388.1 99.1,388.1 99.3,388.0 99.4,388.0 99.6,387.9 100.1,387.8 100.3,387.8 100.5,387.7 100.6,387.7 100.8,387.6 101.3,387.6 101.5,387.5 101.6,387.5 101.8,387.4 102.0,387.3 102.5,387.3 102.6,387.2 102.8,387.1 103.0,387.0 103.1,387.0 103.8,386.9 104.0,386.9 104.2,386.9 104.3,386.8 104.8,386.8 105.0,386.8 105.2,386.7 105.3,386.7 105.5,386.6 106.0,386.6 106.2,386.6 106.3,386.5 106.5,386.4 106.7,386.4 107.2,386.3 107.3,386.2 108.7,386.2 108.9,386.1 109.0,386.1 109.5,386.1 109.7,386.1 109.9,386.0 110.0,386.0 110.2,386.0 110.7,385.9 110.9,385.8 111.0,385.7 111.2,385.7 111.4,385.7 111.9,385.6 112.0,385.5 112.2,385.4 112.4,385.3 112.6,385.2 113.1,385.2 113.2,385.2 113.4,385.2 113.6,385.1 113.7,385.0 114.2,384.8 114.4,384.8 114.6,384.7 114.7,384.7 114.9,384.6 115.4,384.5 115.6,384.5 115.7,384.4 115.9,384.4 116.1,384.2 116.6,384.0 116.8,383.9 116.9,383.8 117.1,383.7 117.3,383.5 117.8,383.6 117.9,383.2 118.1,383.1 118.3,382.7 118.4,382.7 118.9,382.4 119.1,382.6 119.3,382.3 119.4,382.4 119.6,382.4 120.1,382.3 120.3,382.1 120.4,382.0 120.6,381.9 120.8,381.6 121.3,381.6 121.5,381.7 121.6,381.8 121.8,381.6 122.0,381.2 122.5,381.2 122.6,381.2 122.8,380.9 123.6,380.7 123.8,380.7 124.0,380.7 124.1,380.7 124.3,380.6 124.8,380.6 125.0,380.6 125.2,380.6 125.3,380.3 125.5,380.1 126.0,380.7 126.2,380.4 126.3,380.0 126.5,379.9 126.7,379.7 127.2,379.7 127.3,379.7 127.5,379.8 127.7,379.9 127.8,380.0 128.3,380.0 128.5,379.8 128.7,379.8 128.8,379.8 129.0,379.8 129.5,379.8 129.7,379.7 129.9,379.5 130.0,379.5 130.2,379.3 130.7,379.2 130.9,379.1 132.2,379.1 132.4,378.9 132.5,378.8 133.0,378.7 133.2,378.8 133.4,378.7 133.6,378.8 133.7,378.8 134.2,378.7 134.4,378.8 134.6,378.8 134.7,378.6 134.9,378.5 135.4,378.2 135.6,378.1 135.7,377.9 135.9,377.7 136.1,377.6 136.6,377.3 136.7,377.3 136.9,377.3 137.1,377.3 137.2,377.2 137.8,376.9 137.9,376.9 138.1,376.8 138.3,376.7 138.4,376.5 139.1,376.2 139.3,376.1 139.4,376.2 139.6,375.9 140.1,375.7 140.3,375.7 140.4,375.7 140.6,375.3 140.8,375.0 141.3,375.2 141.4,374.9 141.6,374.6 141.8,374.5 142.0,374.5 142.5,374.2 142.6,374.3 142.8,374.1 143.0,374.1 143.6,374.1 143.8,374.4 144.0,374.5 144.1,374.7 144.3,374.5 144.8,374.0 145.0,373.8 145.1,373.9 145.3,373.8 145.5,373.9 146.0,373.8 146.2,373.4 146.3,373.4 146.5,373.1 146.7,372.8 147.2,372.4 147.3,372.2 147.5,372.2 147.7,372.9 147.8,372.9 148.3,372.3 148.5,372.1 148.7,372.2 148.8,371.9 149.0,371.9 149.5,371.5 149.7,371.6 149.8,371.5 150.0,371.4 150.2,371.3 150.7,371.6 150.9,371.9 151.0,371.7 151.2,372.1 151.4,372.7 152.0,372.2 152.2,371.9 152.4,372.3 152.5,373.1 153.0,373.4 153.2,372.8 153.4,373.4 153.5,373.6 153.7,374.0 154.2,373.7 154.4,374.1 154.6,375.3 154.7,374.2 154.9,373.3 155.4,373.0 155.6,373.0 155.7,373.4 155.9,373.2 156.1,372.7 156.6,372.8 156.7,372.7 156.9,372.8 157.1,372.4 157.2,372.6 157.7,373.7 157.9,373.6 158.1,373.1 158.2,373.3 158.4,373.3 158.9,373.2 159.1,372.8 159.3,373.0 159.4,373.0 159.6,372.8 160.1,372.2 160.3,371.9 160.4,371.8 160.6,371.5 160.8,371.6 161.3,371.4 161.4,372.0 161.6,371.7 161.8,371.9 161.9,372.3 162.4,373.7 162.6,374.4 162.8,374.2 163.0,373.6 163.1,373.0 163.6,373.0 163.8,373.0 164.0,373.1 164.8,373.3 165.0,373.0 165.1,372.7 165.3,373.0 165.5,372.9 166.0,373.1 166.1,373.3 166.3,372.7 166.5,372.7 166.6,372.6 167.2,372.5 167.3,372.3 167.5,372.6 167.7,372.4 167.8,372.5 168.3,372.5 168.5,372.9 168.7,372.7 170.0,372.0 170.2,371.7 170.7,371.2 170.8,371.3 171.0,371.2 171.2,370.9 171.4,370.7 171.9,370.6 172.0,370.4 172.2,370.6 172.4,370.5 172.5,370.1 173.0,370.0 173.2,369.9 173.4,370.0 173.5,370.0 173.7,370.0 174.2,370.2 174.4,370.2 174.5,369.6 174.7,369.4 174.9,369.2 175.4,369.1 175.6,369.1 175.7,369.1 175.9,369.2 176.1,369.4 176.6,369.3 176.7,369.2 176.9,369.3 177.1,368.9 177.2,368.8 177.7,368.9 177.9,368.8 178.1,368.7 178.2,368.7 178.4,369.3 178.9,369.2 179.1,369.0 179.2,368.5 179.4,368.6 179.6,368.8 180.1,368.4 180.3,368.6 180.4,368.6 180.6,368.6 180.8,368.5 181.3,368.3 181.4,368.3 181.6,368.2 181.8,367.8 181.9,367.9 182.4,367.5 182.6,367.4 182.8,367.3 182.9,367.3 183.1,367.2 183.6,367.5 183.8,367.3 184.0,367.2 184.1,367.3 184.8,367.9 185.0,368.0 185.1,367.7 185.3,367.8 185.5,368.1 186.0,368.6 186.1,368.6 186.3,368.7 186.5,368.6 186.6,368.8 187.1,368.8 187.3,368.3 187.5,368.6 187.6,368.9 187.8,368.6 188.3,368.6 188.5,369.1 188.7,369.0 188.8,369.3 189.0,368.9 189.5,368.8 189.7,368.5 189.8,368.5 190.0,367.9 190.2,367.9 191.8,367.6 192.0,367.4 192.2,367.2 192.4,367.2 192.5,367.0 193.0,366.9 193.2,366.9 193.4,366.7 193.5,367.1 193.7,366.9 194.2,367.1 194.4,366.8 194.5,366.3 194.7,366.1 194.9,365.8 195.4,365.7 195.5,365.7 195.7,365.9 195.9,366.1 196.0,365.9 196.6,365.6 196.7,365.8 196.9,365.6 197.1,365.3 197.2,365.1 197.7,364.9 197.9,364.8 198.1,364.8 198.2,365.2 198.4,365.0 198.9,365.1 199.1,365.1 199.2,364.6 199.4,364.7 199.6,364.5 200.2,364.4 200.4,364.4 200.6,364.4 200.8,364.4 201.3,364.1 201.4,364.0 201.6,363.9 201.8,363.8 201.9,363.8 202.4,363.9 202.6,363.6 202.8,363.7 202.9,363.5 203.1,363.6 203.6,363.7 203.8,363.5 203.9,363.4 204.1,363.2 204.3,363.1 205.0,362.6 205.1,362.8 205.3,362.9 205.5,363.0 206.0,363.0 206.1,363.1 206.3,362.8 206.5,362.8 206.6,362.8 207.1,362.7 207.3,362.7 207.5,362.8 207.6,362.9 207.8,362.8 208.3,362.7 208.5,362.8 208.6,362.8 208.8,362.6 209.0,362.6 209.5,362.4 209.7,361.9 209.8,361.9 210.0,361.8 210.2,361.7 210.7,361.6 210.8,361.5 211.0,361.3 211.8,361.4 212.0,361.4 212.2,361.0 212.3,360.9 212.5,361.0 213.0,360.9 213.2,360.9 213.4,361.0 213.5,360.9 213.7,360.5 214.2,360.2 214.4,360.2 214.5,360.0 214.7,359.7 214.9,359.4 215.4,359.1 215.5,359.1 215.7,358.7 215.9,358.6 216.0,358.6 216.5,358.2 216.7,357.8 216.9,357.8 217.0,357.9 217.2,357.6 217.7,357.7 217.9,357.5 218.1,357.6 218.2,357.3 218.4,357.4 218.9,357.3 219.1,357.0 219.2,357.2 219.4,357.1 219.6,356.8 220.1,356.8 220.2,356.6 220.4,356.7 220.6,356.8 220.7,356.5 221.2,356.5 221.4,356.4 221.6,356.2 221.8,356.3 221.9,356.1 222.4,355.7 222.6,355.7 222.8,355.8 222.9,355.7 223.1,355.6 223.6,355.8 223.8,355.7 223.9,355.6 224.1,355.8 224.3,355.7 224.8,355.7 224.9,355.4 225.1,355.3 225.3,355.5 225.4,355.3 226.0,354.9 226.1,354.5 226.3,354.2 226.5,354.2 226.6,354.3 227.1,355.0 227.3,354.8 227.5,354.9 228.3,354.8 228.5,354.7 228.6,354.4 228.8,354.0 229.0,353.9 229.5,354.2 229.6,354.1 229.8,354.2 230.0,354.2 230.2,353.9 231.8,354.1 232.0,353.9 232.2,353.9 232.3,353.5 232.5,353.3 233.0,353.5 233.2,353.2 233.3,353.1 233.5,353.0 233.7,352.9 234.2,352.6 234.4,352.5 234.5,352.4 234.7,352.5 234.9,352.5 235.4,352.4 235.5,352.2 235.7,352.2 235.9,352.1 236.0,352.3 236.5,352.1 236.7,351.8 236.9,352.0 237.0,351.7 237.2,351.8 237.7,352.2 237.9,352.0 238.0,351.4 238.2,351.2 238.4,351.3 238.9,351.1 239.1,350.6 239.2,350.3 239.4,349.6 239.6,349.2 240.1,349.3 240.2,349.5 240.4,349.4 240.6,349.1 240.7,349.2 241.2,348.9 241.4,348.4 241.6,347.8 241.7,347.9 241.9,348.2 242.4,348.2 242.6,347.3 242.8,347.6 242.9,348.4 243.1,347.9 243.6,347.5 243.8,347.4 243.9,346.2 244.1,346.4 244.3,347.2 244.8,347.0 244.9,347.7 245.1,349.5 245.3,350.0 245.4,350.3 246.1,351.5 246.3,351.1 246.4,351.1 246.6,351.2 247.1,351.0 247.3,351.0 247.5,351.0 247.6,351.0 247.8,351.0 248.3,350.8 248.5,350.8 248.6,350.6 248.8,350.8 249.0,350.6 249.5,350.8 249.6,350.8 249.8,350.7 250.0,350.5 251.3,350.5 251.8,350.1 252.0,350.0 252.2,349.8 252.3,349.7 252.5,349.5 253.0,349.2 253.2,349.2 253.3,349.1 253.5,348.9 253.7,348.9 254.2,348.6 254.3,348.5 254.5,348.3 254.7,348.2 254.8,347.9 255.4,348.0 255.5,347.8 255.7,347.6 255.9,346.6 256.0,346.7 256.5,346.0 256.7,346.5 256.9,346.9 257.0,347.5 257.2,347.1 257.7,346.6 257.9,346.5 258.0,346.7 258.2,346.1 258.4,346.2 258.9,346.1 259.1,345.9 259.2,346.5 259.4,346.4 259.6,346.4 260.1,346.5 260.2,346.3 260.4,346.2 260.6,346.3 260.7,346.0 261.6,345.6 261.7,345.7 261.9,345.6 262.4,345.6 262.6,345.5 262.7,345.4 262.9,345.3 263.1,345.5 263.6,345.7 263.8,345.4 263.9,345.6 264.1,345.6 264.3,345.4 264.8,345.6 264.9,345.2 265.1,345.0 265.3,345.3 265.4,345.1 266.1,345.2 266.3,345.2 266.4,345.5 266.6,345.6 267.1,345.6 267.3,345.5 267.5,345.7 267.6,345.5 267.8,345.4 268.3,345.2 268.5,344.8 268.6,345.0 268.8,345.2 269.0,345.2 269.5,344.9 269.6,344.7 269.8,344.8 270.0,344.2 270.1,344.0 271.0,344.2 271.1,344.2 271.3,344.0 271.8,343.9 272.0,343.6 272.2,343.4 272.3,343.3 272.5,343.3 273.0,343.4 273.2,343.2 273.3,343.3 273.5,343.4 273.7,343.4 274.2,343.2 274.3,343.0 274.5,342.9 274.7,342.7 274.8,342.5 275.3,342.2 275.5,342.2 275.7,342.5 275.9,342.3 276.0,342.5 276.5,342.6 276.7,342.8 276.9,342.5 277.0,342.4 277.2,342.5 277.7,342.5 277.9,342.3 278.0,342.3 278.2,341.9 278.4,341.8 278.9,341.8 279.0,341.6 279.2,341.1 279.4,340.9 279.5,340.9 280.1,340.8 280.2,340.8 280.4,341.0 280.6,340.7 280.7,340.7 281.2,340.5 281.4,340.3 281.6,340.2 281.7,340.5 281.9,340.5 282.4,340.3 282.6,340.3 282.7,340.3 282.9,340.2 283.1,340.6 283.6,340.3 283.7,340.2 283.9,340.3 284.1,339.9 284.3,340.0 284.8,340.0 284.9,339.9 285.1,339.7 285.3,339.9 285.4,339.5 285.9,339.1 286.1,339.0 286.3,339.2 286.4,339.2 286.6,338.9 287.1,338.6 287.3,338.6 287.4,338.6 287.6,338.7 287.8,338.6 288.3,338.6 288.5,338.5 288.6,338.4 288.8,338.4 289.0,338.2 289.5,338.2 289.6,338.2 289.8,338.0 290.0,338.1 290.1,338.0 290.6,338.2 290.8,337.8 291.0,337.9 291.1,337.8 291.3,337.5 293.0,337.0 293.2,336.9 293.3,336.7 293.5,336.5 293.7,336.5 294.2,336.5 294.3,336.4 294.5,336.3 294.7,336.4 294.8,336.2 295.3,336.1 295.5,335.9 295.7,335.8 295.8,335.6 296.0,335.4 296.5,335.3 296.7,335.2 296.9,335.2 297.0,335.1 297.2,335.0 297.7,334.7 297.9,334.5 298.0,334.6 298.2,334.3 298.4,334.1 298.9,334.1 299.0,334.2 299.2,334.4 299.4,334.2 299.5,333.9 300.0,333.6 300.2,333.2 300.4,333.1 300.5,333.8 300.7,333.7 301.2,334.0 301.4,333.8 301.6,333.5 301.7,333.8 301.9,333.7 302.4,333.0 302.6,333.2 302.7,333.6 302.9,334.0 303.1,333.6 303.6,333.1 303.7,333.3 303.9,333.1 304.1,332.9 304.2,333.3 304.7,333.1 304.9,332.4 305.1,332.6 305.3,332.4 305.4,332.4 305.9,332.4 306.1,332.4 306.3,332.6 306.4,332.5 306.6,332.2 307.3,331.8 307.4,331.5 307.6,331.4 307.8,331.2 308.3,330.8 308.4,330.6 308.6,330.4 308.8,330.3 308.9,329.6 309.5,329.4 309.6,329.2 309.8,329.4 310.0,329.1 310.1,329.3 310.6,328.8 310.8,328.4 311.0,328.3 311.1,328.4 311.3,328.4 311.8,328.7 312.0,329.3 312.1,329.3 312.3,329.4 312.5,329.4 313.0,330.2 313.1,332.0 313.3,332.4 313.5,332.3 313.7,333.9 314.2,333.3 314.3,332.5 314.5,332.0 315.8,331.5 316.0,331.1 316.5,330.1 316.7,330.3 316.8,330.8 317.0,330.9 317.2,331.3 317.7,331.2 317.9,330.6 318.0,330.7 318.2,330.3 318.4,330.1 318.9,329.5 319.0,329.9 319.2,330.0 319.4,329.8 319.5,330.2 320.0,330.1 320.2,330.2 320.4,330.2 320.5,330.2 320.7,331.2 321.2,331.5 321.4,331.0 321.5,331.9 321.7,331.7 321.9,331.6 322.4,331.6 322.6,331.9 322.7,331.8 323.6,331.7 323.7,331.0 323.9,330.8 324.1,330.9 324.2,331.0 324.7,331.3 324.9,331.3 325.1,331.0 325.2,330.7 325.4,331.1 325.9,331.2 326.1,330.6 326.3,331.0 326.4,331.4 326.6,330.9 327.4,331.0 327.6,330.9 327.8,330.9 328.3,330.2 328.4,329.9 328.6,329.9 328.8,329.5 328.9,329.4 329.4,329.0 329.6,329.1 329.8,329.5 329.9,329.6 330.1,329.3 330.6,328.8 330.8,328.8 331.0,329.2 331.1,329.1 331.3,329.0 331.8,328.8 332.0,329.0 332.1,329.7 332.3,328.9 332.5,329.1 333.0,328.6 333.1,328.3 333.3,328.3 333.5,328.0 333.6,328.4 334.1,328.0 334.3,327.6 334.5,327.7 334.7,327.8 334.8,327.5 335.5,329.0 335.7,328.7 335.8,328.7 336.0,328.6 336.5,328.6 336.7,329.0 336.8,329.6 337.0,329.8 337.2,328.7 337.7,329.3 337.8,328.9 338.0,329.3 338.2,329.2 338.3,328.7 338.9,327.8 339.0,327.6 339.2,327.8 339.4,327.1 339.5,327.1 340.0,327.1 340.2,327.4 340.4,327.3 340.5,327.0 340.7,326.5 341.2,326.3 341.4,325.5 341.5,325.4 341.7,325.4 341.9,325.1 342.4,325.5 342.5,325.8 342.7,326.0 342.9,326.6 343.1,326.3 343.6,326.2 343.7,325.1 343.9,325.7 344.1,325.5 344.2,325.4 344.7,325.6 344.9,325.7 345.1,325.9 345.2,326.6 345.4,326.5 345.9,326.1 346.1,325.7 346.2,325.7 346.4,325.6 346.6,325.5 347.1,324.7 347.3,324.4 347.4,324.4 347.6,324.4 347.8,324.6 348.3,324.8 348.4,324.5 348.6,325.0 348.8,325.2 348.9,325.0 349.4,325.2 349.6,325.1 349.8,325.0 349.9,324.7 350.1,324.4 350.6,324.7 350.8,324.4 350.9,323.9 351.1,323.8 351.3,322.8 352.0,323.1 352.1,322.6 352.3,323.0 352.5,322.8 354.1,323.8 354.3,323.6 354.5,323.5 354.6,325.9 354.8,325.0 355.3,325.2 355.5,325.2 355.7,324.6 355.8,325.1 356.0,324.6 356.5,323.5 356.7,324.5 356.8,324.4 357.0,324.8 357.2,324.9 357.7,325.7 357.8,325.4 358.0,324.9 358.2,324.5 358.3,323.2 358.8,323.8 359.0,323.5 359.2,323.5 359.3,323.0 359.5,323.4 360.0,323.3 360.2,323.7 360.4,323.9 360.5,323.7 360.7,323.5 361.2,323.0 361.4,323.8 361.5,324.1 361.7,324.1 361.9,324.6 362.4,324.5 362.5,324.3 362.7,323.8 362.9,323.4 363.0,323.0 363.5,321.9 363.7,322.3 363.9,322.9 364.1,323.6 364.2,323.4 364.7,324.0 364.9,323.7 365.1,323.5 365.2,323.1 365.4,323.7 365.9,323.9 366.1,324.6 366.2,324.7 366.4,325.4 366.6,325.6 367.1,325.9 367.2,326.7 367.4,326.8 367.6,325.8 367.7,325.4 368.6,325.5 368.8,325.2 368.9,324.8 369.4,324.2 369.6,323.9 369.8,323.6 369.9,323.8 370.1,323.5 370.6,323.8 370.8,323.2 370.9,323.4 371.1,323.6 371.3,322.6 371.8,322.3 371.9,322.6 372.1,322.8 372.3,322.6 372.5,322.3 373.0,322.2 373.1,322.1 373.3,322.1 373.5,321.5 373.6,320.6 375.3,320.3 375.5,319.8 375.6,319.0 375.8,318.8 376.0,319.2 376.5,317.9 376.7,317.9 376.8,317.8 377.0,317.8 377.2,317.3 377.7,315.6 377.8,316.2 378.0,316.4 378.2,316.6 378.3,315.8 378.8,315.8 379.0,315.8 379.2,315.5 379.3,316.1 379.5,316.9 380.0,316.3 380.2,315.7 380.3,315.7 380.5,315.6 380.7,315.2 381.2,314.3 381.4,314.2 381.5,314.2 381.7,314.2 381.9,313.7 382.4,314.8 382.5,314.9 382.7,314.4 382.9,314.7 383.0,313.8 383.5,312.8 383.7,312.6 383.9,311.9 384.0,311.6 384.7,311.2 384.9,311.1 385.1,311.1 385.2,311.4 385.4,311.6 385.9,311.8 386.1,310.7 386.2,311.0 386.4,311.4 386.6,310.6 387.1,311.2 387.2,311.2 387.4,310.9 387.6,311.3 387.7,311.5 388.2,311.2 388.4,310.9 389.4,312.8 389.6,312.3 389.8,313.0 389.9,313.3 390.1,312.4 390.6,312.5 390.8,312.6 390.9,311.9 391.1,311.6 391.3,311.8 391.8,312.2 391.9,312.0 392.1,311.9 392.3,312.4 392.4,312.4 392.9,312.0 393.1,311.7 393.3,312.1 393.5,312.2 393.6,312.3 394.1,312.2 394.3,312.0 394.5,311.1 394.6,311.1 395.3,310.0 395.5,309.3 395.6,309.3 395.8,309.2 396.0,308.8 396.5,309.0 396.6,308.8 396.8,308.2 397.0,306.5 397.1,306.2 397.7,305.8 397.8,305.6 398.0,306.3 398.2,305.9 398.3,305.9 398.8,305.0 399.0,304.8 399.2,304.1 399.3,304.2 399.5,304.0 400.0,305.0 400.2,305.4 400.3,305.2 400.5,304.4 400.7,304.2 401.2,303.7 401.3,303.9 401.5,304.3 401.7,304.4 401.9,303.3 402.4,303.9 402.5,303.8 402.7,303.3 402.9,302.7 403.0,302.9 403.5,302.6 403.7,302.3 403.9,302.4 404.0,303.5 404.2,303.3 404.7,302.7 404.9,303.6 405.0,302.9 405.2,302.0 405.4,301.6 405.9,301.2 406.1,301.2 406.2,301.5 406.4,301.7 406.6,301.4 407.1,300.3 407.2,300.3 407.4,300.5 407.6,300.0 407.7,299.6 408.2,299.4 408.4,298.6 408.6,298.7 408.7,298.2 408.9,298.2 409.4,298.0 409.6,297.8 409.7,297.1 409.9,296.5 410.1,297.0 410.6,296.7 410.8,297.4 410.9,297.4 411.1,296.7 411.8,297.0 411.9,297.5 412.1,297.1 412.3,296.9 412.4,296.7 412.9,296.7 413.1,296.4 413.3,296.7 413.4,297.1 413.6,297.3 414.1,297.7 415.5,297.9 415.6,297.7 415.8,297.6 416.0,296.9 416.5,297.0 416.6,296.9 416.8,296.8 417.0,296.6 417.1,297.0 417.6,296.9 417.8,296.7 418.0,296.8 418.1,296.7 418.3,296.1 418.8,295.7 419.0,295.9 419.2,296.1 419.3,295.9 419.5,295.0 420.0,294.7 420.2,294.6 420.3,295.4 420.5,295.0 420.7,295.7 421.2,296.1 421.3,296.3 421.5,296.0 421.7,295.7 421.8,295.7 422.3,294.9 422.5,293.9 422.7,294.6 422.9,295.1 423.0,295.4 423.5,295.1 423.7,294.7 423.9,294.5 424.0,294.4 424.2,294.6 424.7,294.0 424.9,294.4 425.0,294.2 425.2,294.0 425.4,293.9 425.9,293.8 426.0,293.8 426.2,294.2 426.4,293.8 426.5,293.4 427.1,292.9 427.2,292.1 427.4,292.4 427.6,292.6 427.7,292.2 428.2,292.1 428.4,291.7 428.6,291.5 428.7,291.0 428.9,290.7 429.4,290.3 429.6,290.1 429.9,289.4 430.1,288.5 430.6,288.6 430.7,288.5 430.9,288.6 431.1,288.9 431.3,288.4 431.8,288.1 431.9,288.3 432.1,288.4 432.3,288.5 432.4,288.3 432.9,288.0 433.1,288.2 433.3,288.0 433.4,288.9 435.3,291.2 435.5,290.3 435.6,289.9 435.8,288.6 436.0,288.4 436.5,288.0 436.6,287.1 436.8,286.2 437.0,284.3 437.1,285.9 437.6,284.8 437.8,285.4 438.0,285.0 438.1,283.9 438.3,283.4 438.8,283.7 439.0,284.5 439.1,285.6 439.3,285.8 439.5,288.6 440.0,287.5 440.2,287.7 440.3,287.1 440.5,285.8 440.7,286.4 441.2,289.8 441.3,288.4 441.5,289.3 441.7,291.5 441.8,293.7 442.3,296.7 442.5,298.8 442.7,299.7 442.8,300.1 443.0,298.2 443.5,301.3 443.7,297.4 443.9,294.6 444.0,295.3 444.2,294.6 444.7,295.7 444.9,295.1 445.0,296.3 445.2,295.4 445.4,295.6 446.0,292.1 446.2,292.8 446.4,291.6 446.5,291.4 447.0,291.9 447.2,290.2 447.4,290.1 447.5,290.0 447.7,289.5 448.2,289.5 448.4,290.2 448.6,290.3 448.7,289.3 448.9,289.4 449.4,288.8 449.6,288.4 449.7,287.7 449.9,286.3 450.9,286.7 451.1,287.3 451.2,286.1 451.7,285.8 451.9,286.4 452.1,286.6 452.3,287.2 452.4,286.2 452.9,284.5 453.1,283.9 453.3,284.0 453.4,284.5 453.6,285.4 454.1,284.8 454.3,283.5 454.4,284.1 454.6,283.2 454.8,283.3 455.3,282.0 455.4,281.8 455.6,281.6 455.8,281.7 455.9,281.2 456.5,280.7 456.6,279.9 456.8,279.6 457.0,280.6 457.1,281.8 457.6,283.5 457.8,281.0 458.0,280.5 458.1,280.6 458.3,279.8 458.8,279.7 459.0,279.2 459.1,278.5 460.0,280.0 460.1,279.4 460.3,277.7 460.5,276.8 460.7,275.7 461.2,272.7 461.3,273.3 461.5,272.7 461.7,271.7 461.8,273.2 462.3,271.1 462.5,271.8 462.7,271.6 462.8,273.7 463.0,273.3 463.5,272.2 463.7,271.0 463.8,269.7 464.0,269.1 464.2,271.3 464.7,269.9 464.9,269.4 465.0,268.2 465.2,268.7 465.4,267.6 465.9,267.1 466.0,266.6 466.2,265.1 466.4,264.6 466.5,264.2 467.0,264.0 467.2,265.6 467.4,269.0 467.5,267.8 467.7,266.7 468.2,265.3 468.4,264.4 468.5,265.2 468.7,267.1 468.9,266.4 469.4,266.1 469.6,264.7 469.7,265.7 469.9,264.2 470.1,262.8 470.6,262.5 470.7,262.3 470.9,262.0 471.1,260.2 471.2,263.5 471.7,266.5 471.9,265.4 472.1,267.9 472.2,267.0 472.4,267.2 472.9,266.9 473.1,266.3 473.3,266.4 473.4,267.8 473.6,266.3 474.1,267.3 474.3,269.3 474.4,269.3 474.6,271.4 474.8,270.5 475.3,269.7 475.4,268.5 475.6,269.0 477.1,266.8 477.6,264.7 477.8,263.9 478.0,264.7 478.1,265.5 478.3,265.2 478.8,265.4 479.0,266.0 479.1,265.6 479.3,266.2 479.5,266.4 480.0,267.1 480.1,266.7 480.3,266.9 480.5,267.8 480.6,269.6 481.1,268.6 481.3,267.1 481.5,265.8 481.7,264.5 481.8,263.9 482.3,262.4 482.5,263.9 482.7,264.1 482.8,264.1 483.0,264.3 483.5,263.2 483.7,263.5 483.8,264.2 484.0,264.0 484.2,264.0 484.7,263.4 484.8,264.0 485.0,264.5 485.2,264.4 485.3,263.8 485.9,265.2 486.0,263.4 486.2,263.0 486.4,262.3 486.5,262.2 487.0,262.5 487.2,262.0 487.4,262.3 487.5,263.1 487.7,263.5 488.2,262.9 488.4,262.8 488.5,262.0 488.7,261.0 488.9,260.7 489.4,260.0 489.5,261.6 489.7,261.2 489.9,260.9 490.1,260.1 490.6,259.6 490.7,259.5 490.9,259.3 491.1,258.0 491.7,257.2 491.9,256.8 492.1,256.1 492.2,254.6 492.4,254.3 492.9,256.2 493.1,254.3 493.2,254.6 493.4,255.5 493.6,255.8 494.1,256.2 494.3,256.4 494.4,256.0 494.6,253.9 494.8,254.3 495.3,253.5 495.4,254.9 495.6,254.7 495.8,257.4 495.9,257.4 496.4,256.6 496.6,255.4 496.8,255.3 496.9,255.6 497.1,255.1 497.6,254.1 497.8,252.0 497.9,250.9 499.3,252.4 499.5,252.4 500.0,253.9 500.1,253.6 500.3,255.3 500.5,254.4 500.6,257.7 501.1,256.7 501.3,257.2 501.5,256.0 501.6,258.9 501.8,259.9 502.3,260.1 502.5,260.6 502.7,260.0 502.8,257.6 503.0,258.0 503.5,258.2 503.7,257.4 503.8,257.2 504.0,256.4 504.2,258.4 504.7,258.1 504.8,258.0 505.0,259.1 505.2,259.0 505.3,257.5 505.8,257.0 506.0,256.7 506.2,257.7 506.3,255.7 506.5,254.2 507.2,253.9 507.4,254.1 507.5,253.6 507.7,253.9 508.2,254.5 508.4,254.9 508.5,253.9 508.7,254.2 508.9,253.3 509.4,251.8 509.5,252.7 509.7,252.4 509.9,252.1 510.0,252.1 510.5,252.3 510.7,251.8 510.9,251.8 511.1,250.9 511.2,251.5 512.2,251.8 512.4,251.5 512.9,251.2 513.1,251.8 513.2,251.8 513.4,253.4 513.6,251.2 514.1,249.7 514.2,249.2 514.4,250.0 514.6,249.9 514.7,249.6 515.3,249.1 515.4,247.4 515.6,247.1 515.8,247.5 515.9,247.6 516.4,247.3 516.6,246.8 516.8,247.9 516.9,248.3 517.1,248.6 517.6,247.7 517.8,247.8 517.9,247.7 518.1,247.7 518.3,247.5 518.9,248.4 519.1,249.2 519.3,250.1 519.5,250.2 520.0,250.9 520.1,249.4 520.3,248.6 520.5,248.7 520.6,247.7 521.1,247.4 521.3,248.0 521.5,247.9 521.6,247.2 521.8,247.9 522.3,247.3 522.5,246.7 522.6,246.3 522.8,246.9 523.0,246.9 523.5,245.8 523.7,245.4 523.8,246.0 524.0,244.9 524.2,245.6 524.7,246.2 524.8,246.1 525.0,245.4 525.2,245.3 525.3,245.5 525.8,246.5 526.0,248.2 526.2,247.7 526.3,246.8 526.5,247.3 527.0,246.1 527.2,246.3 527.3,245.5 527.5,245.9 527.7,245.9 528.2,246.3 528.4,246.0 528.5,246.2 528.7,246.0 528.9,245.7 529.4,245.5 529.5,246.0 529.7,245.4 529.9,246.8 530.0,247.1 530.5,245.6 530.7,244.4 530.9,244.7 531.0,245.6 531.2,244.9 531.7,244.7 531.9,244.2 532.1,243.5 532.2,243.9 532.4,243.8 532.9,242.8 533.1,242.3 533.2,243.2 533.4,243.6 533.6,242.8 534.1,243.6 534.2,244.2 534.4,244.9 534.6,245.5 534.7,245.2 535.6,246.1 535.7,245.7 535.9,245.4 536.4,244.7 536.6,245.6 536.8,246.8 536.9,246.5 538.3,245.3 538.8,245.7 538.9,246.6 539.1,245.7 539.3,244.8 539.4,243.8 539.9,244.9 540.1,243.9 540.3,243.9 540.5,243.4 540.6,242.6 541.1,242.5 541.3,242.0 541.5,243.0 541.6,242.9 541.8,242.7 542.3,242.2 542.5,242.5 542.6,242.6 542.8,241.9 543.0,241.1 543.5,240.6 543.6,240.5 543.8,241.0 544.0,239.7 544.1,239.7 544.7,239.3 544.8,239.3 545.0,239.0 545.2,239.4 545.3,238.4 545.8,238.8 546.0,240.0 546.2,239.9 546.3,239.6 546.5,240.7 547.0,240.9 547.2,241.5 547.3,241.8 547.5,242.7 547.7,241.9 548.2,241.8 548.3,240.8 548.5,239.0 548.7,238.3 548.9,238.8 549.4,237.7 549.5,238.6 549.7,239.8 549.9,237.7 550.0,239.0 550.5,240.7 550.7,240.4 550.9,239.9 551.0,238.4 551.2,238.1 551.7,237.9 551.9,236.8 552.0,237.4 552.2,237.3 552.4,236.8 553.1,236.8 553.2,237.3 553.4,239.6 553.6,239.3 554.1,239.5 554.2,239.8 554.4,238.3 554.6,239.1 554.7,240.1 555.2,240.0 555.4,239.9 555.6,241.8 555.7,241.2 555.9,242.7 556.4,243.5 556.6,245.1 556.7,244.8 556.9,247.5 557.1,247.3 558.8,244.0 558.9,244.1 559.1,242.6 559.3,241.9 559.4,244.1 559.9,244.4 560.1,243.8 560.3,243.4 560.4,243.0 560.6,243.1 561.1,243.6 561.3,244.8 561.5,244.3 561.6,246.6 561.8,245.2 562.3,244.9 562.5,243.3 562.6,243.8 562.8,243.1 563.0,244.0 563.5,245.1 563.6,246.6 563.8,245.8 564.0,245.7 564.1,245.3 564.6,247.1 564.8,250.8 565.0,248.0 565.1,245.3 565.3,244.5 565.8,243.8 566.0,243.4 566.2,242.4 566.3,242.9 566.5,242.3 567.0,242.8 567.2,243.2 567.3,273.2 567.5,273.6 567.7,273.1 568.5,273.4 568.7,274.2 568.8,273.5 569.3,274.6 569.5,274.2 569.7,273.9 569.9,273.2 570.0,273.3 570.5,273.4 570.7,273.7 570.9,274.5 571.0,274.1 571.2,274.2 571.7,277.5 571.9,277.6 572.0,277.2 572.2,276.5 572.4,274.3 573.4,274.5 573.5,276.3 574.1,276.5 574.2,276.9 574.4,276.6 574.6,276.8 574.7,276.4 575.2,277.0 575.4,276.0 575.6,276.3 575.7,277.1 575.9,276.1 576.4,276.3 576.6,277.2 576.7,276.7 576.9,276.1 577.1,275.0 577.6,274.6 577.7,274.1 577.9,274.4 578.1,274.3 578.8,273.4 578.9,273.6 579.1,272.5 579.3,273.0 579.4,273.1 579.9,274.0 580.1,274.8 580.3,274.8 580.4,275.0 580.6,274.4 581.1,274.4 581.3,274.1 581.4,274.5 581.6,273.5 581.8,272.8 582.3,271.3 582.5,270.9 582.6,272.3 582.8,272.1 583.0,272.7 583.5,271.8 583.6,271.6 583.8,273.3 584.0,273.4 584.1,273.3 584.6,274.2 584.8,274.6 585.0,274.8 585.1,275.0 585.3,275.8 585.8,274.5 586.0,275.1 586.1,274.0 586.3,274.7 586.5,273.8 587.0,274.0 587.2,273.6 587.3,273.8 587.5,272.9 587.7,272.1 588.2,271.8 588.3,272.2 588.5,272.8 588.7,272.1 588.8,270.9 589.3,271.1 589.5,271.0 589.7,271.5 589.8,270.0 590.0,269.7 590.5,269.2 590.7,269.0 590.9,268.8 591.0,269.5 591.2,269.7 591.7,269.9 591.9,270.3 592.0,270.7 592.2,269.7 592.4,269.6 592.9,271.3 593.0,271.0 593.2,271.6 593.4,272.8 593.5,272.7 594.0,272.3 594.2,271.7 594.4,272.1 594.5,271.3 594.7,270.5 595.4,269.4 595.6,271.6 595.7,272.1 595.9,273.7 596.4,273.7 596.6,273.0 596.7,273.6 596.9,274.5 597.1,274.5 597.6,275.7 597.7,274.6 597.9,275.5 598.1,274.5 598.2,275.2 599.9,275.8 600.1,276.0 600.3,275.0 600.4,275.4 600.6,273.6 601.1,274.4 601.3,273.3 601.4,274.0 601.6,274.6 601.8,275.1 602.3,274.6 602.4,274.1 602.6,273.8 602.8,273.8 602.9,275.2 603.5,274.6 603.6,272.9 603.8,272.7 604.0,273.8 604.1,272.7 604.6,272.1 604.8,271.8 605.0,270.7 605.1,271.6 605.3,268.7 605.8,269.5 606.0,268.4 606.1,268.1 606.3,268.2 606.5,268.6 607.0,268.8 607.1,268.9 607.3,268.4 607.5,268.1 607.7,267.5 608.2,268.0 608.3,267.2 608.5,267.5 608.7,266.1 608.8,266.1 609.3,266.4 609.5,267.2 609.7,267.7 609.8,267.5 610.0,266.6 610.5,267.3 610.7,266.8 610.8,265.9 611.0,266.5 611.2,267.4 611.7,268.0 611.9,269.1 612.0,268.2 612.2,267.7 612.4,268.5 612.9,268.2 613.0,267.4 613.2,267.8 613.4,268.4 613.5,267.5 614.2,267.5 614.4,267.3 614.5,266.4 614.7,266.8 615.2,265.5 615.4,265.5 615.5,265.1 615.7,264.9 615.9,264.1 616.4,263.7 616.6,263.4 616.7,263.4 616.9,263.5 617.1,262.7 618.7,261.6 618.9,262.7 619.1,261.5 619.2,260.8 619.4,261.7 619.9,263.1 620.1,263.0 620.3,262.7 620.4,262.1 620.6,263.1 621.1,262.2 621.3,261.7 621.4,262.2 621.6,262.0 621.8,263.3 622.3,261.8 622.4,261.9 622.6,262.5 622.8,262.5 622.9,262.6 623.4,263.0 623.6,262.6 623.8,262.0 623.9,262.4 624.1,261.7 624.6,260.9 624.8,261.3 625.0,262.4 625.1,262.4 625.3,263.4 625.8,262.4 626.0,262.6 626.1,262.1 626.3,262.2 626.5,261.2 627.0,260.2 627.1,259.6 627.3,259.9 627.5,259.5 627.6,259.2 628.1,259.3 628.3,259.7 628.5,259.3 628.7,258.4 628.8,257.7 629.3,257.7 629.5,256.5 629.8,256.1 630.0,255.6 630.5,256.3 630.7,255.9 630.8,255.5 631.0,255.8 631.2,255.0 631.7,254.7 631.8,254.8 632.0,255.2 632.2,255.2 632.3,256.3 632.9,257.1 633.0,256.6 633.2,256.7 633.4,256.3 633.5,255.8 634.5,254.7 634.7,254.7 635.2,254.3 635.4,254.5 635.5,254.5 635.7,254.4 635.9,255.3 636.4,254.3 636.5,254.6 636.7,255.0 636.9,254.6 637.1,254.2 637.6,253.9 637.7,254.6 637.9,255.1 638.1,255.5 638.2,255.7 638.7,255.0 638.9,255.0 639.1,254.7 639.2,254.5 639.4,253.5 639.9,253.7 640.1,253.7 640.2,253.5 640.4,253.6 640.6,252.7 641.1,252.2 641.3,251.2 641.4,251.3 641.6,251.1 641.8,249.9 642.3,250.1 642.4,249.9 642.6,250.7 643.4,251.4 643.6,251.3 643.8,250.9 643.9,250.8 644.1,250.2 644.6,249.0 644.8,248.9 644.9,249.2 645.1,249.5 645.3,250.0 645.8,249.9 646.0,249.3 646.1,249.3 646.3,247.7 646.5,248.0 647.0,247.8 647.1,247.4 647.3,246.0 647.5,246.6 647.6,246.9 648.1,247.1 648.3,246.1 648.5,245.8 648.6,245.6 648.8,245.4 649.3,244.9 649.5,244.6 649.7,245.2 649.8,245.4 650.0,245.1 650.5,245.5 650.7,245.2 650.8,245.3 651.0,245.6 651.2,246.4 651.7,246.4 651.8,245.8 652.0,246.6 652.2,246.7 652.3,247.8 652.8,248.0 653.0,247.6 653.2,247.8 653.4,246.7 653.5,247.8 654.0,246.8 654.2,246.0 654.4,245.2 654.5,244.9 654.7,244.9 655.2,243.8 655.4,244.0 655.5,244.1 655.7,245.1 655.9,244.6 656.4,244.3 656.5,244.1 656.7,244.5 656.9,243.8 657.0,244.3 657.6,244.9 657.7,244.4 657.9,244.1 658.1,245.1 658.2,245.0 658.7,245.1 658.9,245.5 659.1,246.5 659.2,247.8 661.1,248.3 661.2,248.8 661.4,248.3 661.6,247.1 661.8,247.6 662.3,247.3 662.4,246.5 662.6,246.2 662.8,247.3 662.9,247.2 663.4,248.2 663.6,248.1 663.8,248.1 663.9,248.1 664.1,247.2 664.6,247.0 664.8,246.8 664.9,246.6 665.1,246.1 665.3,245.1 665.8,244.6 666.0,245.0 666.1,245.2 666.3,245.3 666.5,245.4 667.0,245.1 667.1,244.6 667.3,243.4 667.5,243.9 667.6,243.8 668.1,244.8 668.3,244.6 668.5,245.3 668.6,244.9 668.8,245.1 669.3,244.6 669.5,244.3 669.6,244.2 669.8,244.2 670.0,244.1 670.5,243.3 670.7,245.3 670.8,244.9 671.0,245.2 671.2,244.6 671.7,244.4 671.8,244.2 672.0,244.8 672.2,243.4 672.3,243.8 672.8,243.9 673.0,243.4 673.2,243.3 673.3,243.4 673.5,242.7 674.0,242.4 674.2,242.2 674.4,241.8 674.5,240.8 674.7,240.9 675.4,241.0 675.5,241.4 675.7,242.1 675.9,242.2 676.4,242.9 676.5,242.0 676.7,242.4 676.9,241.8 677.0,241.8 677.5,241.2 677.7,241.0 677.9,242.8 678.0,243.2 678.2,242.2 678.7,242.5 678.9,241.9 679.1,240.8 679.2,240.6 679.4,240.7 679.9,240.7 680.1,240.5 680.2,240.9 680.4,241.0 680.6,240.4 681.1,240.4 681.2,239.2 681.4,238.5 681.6,236.6 683.4,236.8 683.6,236.8 683.8,236.5 683.9,235.5 684.1,234.8 684.6,235.2 684.8,234.5 684.9,234.3 685.1,233.9 685.3,232.9 685.8,231.7 685.9,230.5 686.1,230.3 686.3,229.8 686.4,228.9 687.0,228.2 687.1,228.6 687.3,229.0 687.5,229.0 687.6,228.8 688.1,228.8 688.3,229.0 688.5,228.3 688.6,225.8 688.8,226.3 689.3,226.7 689.5,226.1 689.6,225.8 689.8,224.3 690.0,223.0 690.5,222.0 690.6,222.2 690.8,222.5 691.7,220.8 691.8,220.4 692.0,220.5 692.2,221.7 692.3,219.3 692.8,220.2 693.0,221.3 693.2,220.7 693.3,221.0 693.5,221.5 694.0,222.9 694.2,224.7 694.3,222.6 694.5,223.2 694.7,221.7 695.2,221.4 695.4,221.5 696.4,221.3 696.5,220.5 696.7,220.7 696.9,220.5 697.0,218.1 697.5,218.3 697.7,218.4 697.9,217.5 698.0,215.9 698.2,215.6 698.7,213.7 698.9,214.8 699.0,214.2 699.2,216.3 699.4,218.4 699.9,217.2 700.1,217.4 700.2,217.1 700.4,218.7 700.6,218.4 701.1,218.1 701.2,216.9 701.4,217.1 701.6,215.2 701.7,215.1 702.4,217.6 702.6,217.0 702.7,216.6 702.9,216.4 703.4,216.7 703.6,216.2 703.8,215.8 703.9,214.9 704.1,214.8 704.6,216.3 704.8,216.4 704.9,215.8 705.1,216.0 705.3,214.3 705.8,214.2 705.9,214.0 706.1,212.6 706.3,213.0 706.4,212.5 706.9,212.5 707.1,212.4 707.3,212.3 707.4,210.8 707.6,211.1 708.1,209.5 708.3,208.0 708.5,206.1 708.6,206.6 708.8,209.9 709.3,211.0 709.5,211.4 709.6,211.0 709.8,215.0 710.0,213.9 710.5,212.2 710.6,212.7 710.8,211.4 711.0,210.3 711.1,212.1 711.6,218.5 711.8,218.5 712.0,217.9 712.2,218.2 712.3,216.5 712.8,215.1 713.0,213.7 713.2,213.1 713.3,212.0 713.5,210.9 714.0,210.9 714.2,210.3 714.3,210.0 714.5,210.2 714.7,210.4 715.2,209.4 715.3,209.7 715.5,209.4 715.7,210.0 715.8,209.5 716.4,210.0 716.5,209.7 716.7,212.9 716.9,211.9 717.0,212.2 717.5,213.7 717.7,213.5 717.9,212.9 718.0,212.2 718.2,210.8 719.0,210.7 719.2,209.7 719.4,208.4 719.9,207.4 720.0,206.1 720.2,205.3 720.4,202.8 720.6,201.3 721.1,196.9 722.4,194.9 722.6,200.1 722.7,197.7 722.9,197.7 723.4,195.3 723.6,194.9 723.7,194.6 723.9,194.1 724.1,192.0 724.6,191.1 724.8,191.1 724.9,190.5 725.1,192.2 725.3,191.7 725.8,190.7 725.9,190.5 726.1,189.4 726.3,190.7 726.4,192.1 726.9,192.3 727.1,190.9 727.3,189.3 727.4,189.0 727.6,188.5 728.1,187.3 728.3,188.5 728.4,188.9 728.6,190.7 728.8,192.5 729.3,191.1 729.5,189.2 729.6,188.8 729.8,187.7 730.0,187.4 730.5,187.5 730.6,188.6 730.8,186.9 731.0,187.7 731.1,186.1 731.6,185.9 731.8,184.4 732.0,184.6 732.1,184.2 732.3,184.0 732.8,183.5 733.0,183.3 733.2,182.0 733.3,180.6 733.5,182.2 734.0,182.4 734.2,182.9 734.3,183.5 734.5,186.4 734.7,186.8 735.2,184.2 735.3,184.2 735.5,183.6 735.7,183.3 735.8,183.6 736.3,184.4 736.5,185.2 736.8,185.3 737.0,185.3 737.5,184.8 737.7,184.8 737.9,184.5 738.0,184.1 738.2,184.4 738.7,185.4 738.9,184.1 739.0,184.0 739.2,182.5 739.4,182.1 739.9,181.6 740.0,181.6 740.2,180.6 740.4,180.7 740.5,179.5 741.0,180.5 742.6,177.2 742.7,176.9 742.9,176.1 743.4,174.6 743.6,173.9 743.7,174.3 743.9,174.0 744.1,172.9 744.6,174.6 744.7,173.5 744.9,172.8 745.1,172.6 745.2,173.3 745.8,174.1 745.9,175.6 746.1,176.1 746.3,176.5 746.4,179.8 746.9,178.6 747.1,179.1 747.3,178.3 747.4,177.7 747.6,178.7 748.1,178.6 748.3,180.6 748.4,180.7 748.6,180.3 748.8,177.5 749.3,177.5 749.4,176.0 749.6,175.2 749.8,174.0 750.0,175.6 750.5,174.4 750.6,173.8 750.8,173.8 751.0,174.2 751.1,173.1 751.6,174.0 751.8,172.4 752.0,172.8 752.1,173.2 752.8,186.1 753.0,182.7 753.1,182.5 753.3,174.0 753.5,173.6 754.0,171.6 754.2,171.8 754.3,169.6 754.5,168.7 754.7,168.5 755.2,166.9 755.3,162.9 755.5,168.6 755.7,167.6 755.8,166.8 756.3,167.6 756.5,167.0 756.7,167.6 757.7,164.3 757.8,162.9 758.0,163.7 758.2,164.0 758.7,165.1 758.9,165.2 759.0,164.2 759.2,168.4 759.4,166.4 759.9,165.9 760.0,165.2 760.2,161.8 760.4,162.3 760.5,162.7 761.0,163.2 761.2,164.2 761.4,163.6 761.5,163.7 761.7,163.6 762.4,161.7 762.6,160.8 762.7,160.6 762.9,160.6 763.4,161.3 763.6,161.5 763.7,160.3 763.9,159.3 764.1,158.8 764.6,158.5 764.7,159.4 764.9,160.6 765.1,161.9 765.2,162.1 765.7,161.5 765.9,161.1 766.1,159.8 766.2,159.5 766.4,160.4 766.9,159.9 767.1,158.6 767.3,158.1 767.4,156.8 767.6,156.8 768.1,157.9 768.3,156.7 768.4,158.3 768.6,156.8 768.8,156.4 769.3,155.9 769.4,155.1 769.6,156.2 769.8,155.3 769.9,154.3 770.4,153.4 770.6,152.4 770.8,151.0 771.0,152.2 771.1,152.3 771.6,151.8 771.8,151.8 772.0,151.7 772.1,152.5 772.3,153.6 772.8,152.6 773.0,150.7 773.1,150.8 773.3,150.5 773.5,150.2 774.0,150.5 774.1,150.7 774.3,149.4 774.5,149.3 774.6,148.6 775.2,148.4 775.3,149.2 775.5,149.0 775.7,148.5 775.8,147.7 776.3,144.7 776.5,144.9 776.7,145.3 776.8,144.2 777.0,143.2 777.5,140.8 777.7,140.6 777.8,139.9 778.0,141.1 778.2,138.8 778.7,137.9 778.8,136.2 779.0,136.0 779.2,134.6 779.4,134.2 779.9,134.1 780.0,132.3 780.2,133.1 780.4,135.2 780.5,134.0 781.0,130.9 781.2,128.7 781.4,127.6 781.5,128.1 781.7,128.6 782.2,125.4 782.4,123.8 783.9,115.3 784.1,118.4 784.6,115.8 784.7,115.6 784.9,110.5 785.1,109.5 785.2,106.4 785.7,108.9 785.9,104.2 786.1,109.8 786.2,111.0 786.4,110.6 786.9,108.5 787.1,113.6 787.2,109.7 787.4,109.8 787.6,109.9 788.1,108.9 788.3,112.4 788.4,113.6 788.6,111.7 788.8,111.4 789.3,107.6 789.4,106.0 789.6,105.3 789.8,101.5 789.9,105.0 790.4,108.6 790.6,112.4 790.8,110.6 790.9,109.9 791.1,114.5 791.6,113.0 791.8,109.5 792.0,107.6 792.1,108.0 792.3,105.9 792.8,103.7 793.0,104.8 793.1,105.0 793.3,105.5 793.5,104.1 794.0,104.2 794.1,106.3 794.3,104.7 794.5,105.3 794.6,102.3 795.1,100.9 795.3,104.2 795.5,101.4 795.6,101.9 795.8,100.9 796.3,96.9 796.5,95.0 796.7,94.4 796.8,95.3 797.0,93.6 797.5,95.6 797.7,98.9 797.8,100.3 798.7,94.7 798.8,92.3 799.0,93.5 799.2,94.3 799.3,92.6 799.8,89.3 800.0,89.2 800.2,87.8 800.4,88.7 800.5,88.7 801.0,88.5 801.2,87.7 801.4,83.0 801.5,82.5 801.7,79.3 802.2,75.0 802.4,74.4 802.5,68.3 802.7,58.0 802.9,72.5 803.4,94.0 803.5,84.5 803.7,76.8 803.9,82.8 804.0,87.2 804.6,78.4 804.7,78.7 804.9,77.3 805.1,78.0 805.2,81.3 807.1,74.6 807.2,74.0 807.4,74.8 807.6,74.5 808.1,67.5 808.2,70.5 808.4,76.9 808.6,75.7 808.8,77.2 809.3,79.7 809.4,76.9 809.6,76.1 809.8,76.7 809.9,80.1 810.4,82.4 810.6,83.2 810.8,83.3 810.9,92.7 811.1,97.1 811.6,117.6 811.8,109.7 811.9,102.5 812.1,106.1 812.3,105.4 812.8,104.2 813.0,104.2 813.1,95.4 813.3,101.7 813.5,100.7 814.1,100.6 814.3,91.1 814.5,95.2 814.6,92.5 815.1,93.5 815.3,90.1 815.5,88.7 815.6,86.4 815.8,87.6 816.3,87.1 816.5,87.0 816.6,86.4 816.8,88.3 817.0,89.8 817.5,88.0 817.7,90.0 817.8,90.6 818.0,89.6 819.0,85.6 819.2,82.4 819.3,83.1 819.8,83.3 820.0,83.3 820.2,82.1 820.3,83.3 820.5,88.3 821.0,90.6 821.2,90.3 821.4,92.8 821.5,91.7 821.7,89.6 822.2,85.5 822.4,86.5 822.5,88.3 822.7,92.3 822.9,87.0 823.4,86.3 823.5,84.6 823.7,86.5 823.9,88.1 824.0,89.8 824.5,97.9 824.7,94.5 824.9,100.6 825.0,105.3 825.2,101.2 825.7,93.4 825.9,92.7 826.1,92.1 826.2,92.9 826.9,94.4 827.1,101.4 827.2,100.7 827.4,103.3 827.6,104.9 828.1,103.3 828.2,103.3 828.4,105.0 828.6,104.1 828.7,99.8 829.2,100.1 829.4,100.8 829.6,102.1 829.8,100.7 829.9,101.5 830.4,104.9 830.6,103.6 830.8,102.7 830.9,103.6 831.1,109.3 831.6,108.4 831.8,103.0 831.9,101.9 832.1,101.5 832.3,106.1 832.8,102.9 832.9,107.6 833.1,106.3 833.3,108.6 833.4,105.7 834.0,105.8 834.1,103.5 834.3,95.8 834.5,92.6 834.6,90.2 835.1,88.1 835.3,87.8 835.5,86.5 835.6,87.3 835.8,86.6 836.3,84.5 836.5,86.5 836.6,91.7 836.8,86.3 837.0,83.5 837.5,81.4 837.6,81.2 837.8,80.4 838.0,80.9 838.2,80.1 838.7,85.8 838.8,85.9 839.0,92.7 839.2,88.8 839.3,86.6 839.8,88.7 840.0,88.8" fill="none" stroke="#9ee5c9" stroke-width="2" stroke-linejoin="round" stroke-linecap="round"/>
<text x="64" y="30" fill="#e6e1d5" font-size="18" font-weight="600">每日定投 · 投入 vs 市值（截至 2026-09-08）</text>
<circle cx="832" cy="28" r="4" fill="#9ee5c9"/>
<text x="822" y="32" fill="#a9b4b1" font-size="12" text-anchor="end">当前市值</text>
<circle cx="746" cy="28" r="4" fill="#7d8a88"/>
<text x="736" y="32" fill="#a9b4b1" font-size="12" text-anchor="end">累计投入</text>
</svg>