<svg xmlns="http://www.w3.org/2000/svg" viewBox="0 0 860 440" font-family="-apple-system,BlinkMacSystemFont,Segoe UI,Helvetica,Arial,sans-serif">
<rect width="860" height="440" fill="#101716"/>
<line x1="64" y1="58.0" x2="840" y2="58.0" stroke="#2a3432" stroke-width="1"/>
<text x="54" y="62.0" fill="#7d8a88" font-size="12" text-anchor="end">1,866,218</text>
<line x1="64" y1="142.5" x2="840" y2="142.5" stroke="#2a3432" stroke-width="1"/>
<text x="54" y="146.5" fill="#7d8a88" font-size="12" text-anchor="end">1,399,739</text>
<line x1="64" y1="227.0" x2="840" y2="227.0" stroke="#2a3432" stroke-width="1"/>
<text x="54" y="231.0" fill="#7d8a88" font-size="12" text-anchor="end">933,259</text>
<line x1="64" y1="311.5" x2="840" y2="311.5" stroke="#2a3432" stroke-width="1"/>
<text x="54" y="315.5" fill="#7d8a88" font-size="12" text-anchor="end">466,780</text>
<line x1="64" y1="396.0" x2="840" y2="396.0" stroke="#2a3432" stroke-width="1"/>
<text x="54" y="400.0" fill="#7d8a88" font-size="12" text-anchor="end">300</text>
<text x="64.0" y="418" fill="#7d8a88" font-size="12" text-anchor="middle">2014-01</text>
<text x="321.9" y="418" fill="#7d8a88" font-size="12" text-anchor="middle">2018-04</text>
<text x="581.4" y="418" fill="#7d8a88" font-size="12" text-anchor="middle">2022-06</text>
<text x="840.0" y="418" fill="#7d8a88" font-size="12" text-anchor="middle">2026-09</text>
<polyline points="64.0,396.0 64.2,395.9 64.3,395.9 64.8,395.8 65.0,395.8 65.2,395.7 65.3,395.7 65.5,395.6 66.0,395.6 66.2,395.5 66.3,395.5 66.5,395.4 67.9,395.3 68.4,395.3 68.5,395.2 68.7,395.2 68.9,395.1 69.0,395.1 69.5,395.0 69.7,395.0 69.9,394.9 70.0,394.9 70.2,394.8 70.7,394.8 70.9,394.7 71.0,394.6 71.2,394.6 71.4,394.5 71.9,394.5 72.0,394.4 72.2,394.4 72.4,394.3 72.6,394.3 73.1,394.2 73.2,394.2 73.4,394.1 73.6,394.0 73.7,394.0 74.2,393.9 74.4,393.9 74.6,393.8 74.7,393.8 74.9,393.7 75.4,393.7 75.6,393.6 75.7,393.6 75.9,393.5 76.1,393.4 76.6,393.4 76.7,393.3 76.9,393.3 77.1,393.2 77.2,393.2 77.9,393.1 78.1,393.1 78.3,393.0 78.4,393.0 78.9,392.9 79.1,392.8 79.3,392.8 79.4,392.7 79.6,392.7 80.1,392.6 80.3,392.6 80.4,392.5 80.6,392.5 80.8,392.4 81.3,392.4 81.4,392.3 81.6,392.3 82.4,392.2 82.6,392.1 82.8,392.1 82.9,392.0 83.1,392.0 83.6,391.9 83.8,391.9 84.0,391.8 84.1,391.8 84.3,391.7 84.8,391.7 85.0,391.6 85.1,391.5 85.3,391.5 85.5,391.4 86.0,391.4 86.1,391.3 86.3,391.3 86.5,391.2 86.6,391.2 87.3,391.1 87.5,391.1 87.6,391.0 87.8,390.9 88.3,390.9 88.5,390.8 88.6,390.8 88.8,390.7 89.0,390.7 89.5,390.6 89.7,390.6 89.8,390.5 90.0,390.5 90.2,390.4 90.7,390.3 90.8,390.3 91.0,390.2 91.2,390.2 91.3,390.1 91.8,390.1 92.0,390.0 92.2,390.0 92.3,389.9 92.5,389.9 93.0,389.8 93.2,389.8 93.3,389.7 93.5,389.6 93.7,389.6 94.2,389.5 94.3,389.5 94.5,389.4 94.7,389.4 94.9,389.3 95.4,389.3 95.5,389.2 95.7,389.2 95.9,389.1 96.0,389.0 96.5,389.0 96.7,388.9 96.9,388.9 97.0,388.8 97.2,388.8 97.7,388.7 97.9,388.7 98.0,388.6 98.2,388.6 98.4,388.5 98.9,388.4 99.0,388.4 99.2,388.3 99.4,388.3 99.5,388.2 100.1,388.2 100.2,388.1 100.4,388.1 100.6,388.0 100.7,388.0 101.2,387.9 101.4,387.8 101.6,387.8 101.7,387.7 101.9,387.7 102.4,387.6 102.6,387.6 102.7,387.5 102.9,387.5 103.1,387.4 103.7,387.4 103.9,387.3 104.1,387.3 104.2,387.2 104.7,387.1 104.9,387.1 105.1,387.0 105.2,387.0 105.4,386.9 105.9,386.9 106.1,386.8 106.3,386.8 106.4,386.7 106.6,386.7 107.1,386.6 107.3,386.5 108.6,386.5 108.8,386.4 108.9,386.4 109.4,386.3 109.6,386.3 109.8,386.2 109.9,386.2 110.1,386.1 110.6,386.1 110.8,386.0 110.9,385.9 111.1,385.9 111.3,385.8 111.8,385.8 112.0,385.7 112.1,385.7 112.3,385.6 112.5,385.6 113.0,385.5 113.1,385.5 113.3,385.4 113.5,385.3 113.6,385.3 114.1,385.2 114.3,385.2 114.5,385.1 114.6,385.1 114.8,385.0 115.3,385.0 115.5,384.9 115.6,384.9 115.8,384.8 116.0,384.8 116.5,384.7 116.6,384.6 116.8,384.6 117.0,384.5 117.2,384.5 117.7,384.4 117.8,384.4 118.0,384.3 118.2,384.3 118.3,384.2 118.8,384.2 119.0,384.1 119.2,384.0 119.3,384.0 119.5,383.9 120.0,383.9 120.2,383.8 120.3,383.8 120.5,383.7 120.7,383.7 121.2,383.6 121.3,383.6 121.5,383.5 121.7,383.4 121.8,383.4 122.4,383.3 122.5,383.3 122.7,383.2 123.5,383.2 123.7,383.1 123.9,383.1 124.0,383.0 124.2,383.0 124.7,382.9 124.9,382.8 125.0,382.8 125.2,382.7 125.4,382.7 125.9,382.6 126.0,382.6 126.2,382.5 126.4,382.5 126.5,382.4 127.0,382.4 127.2,382.3 127.4,382.3 127.5,382.2 127.7,382.1 128.2,382.1 128.4,382.0 128.6,382.0 128.7,381.9 128.9,381.9 129.4,381.8 129.6,381.8 129.7,381.7 129.9,381.7 130.1,381.6 130.6,381.5 130.7,381.5 132.1,381.4 132.2,381.4 132.4,381.3 132.9,381.3 133.1,381.2 133.2,381.2 133.4,381.1 133.6,381.1 134.1,381.0 134.3,380.9 134.4,380.9 134.6,380.8 134.8,380.8 135.3,380.7 135.4,380.7 135.6,380.6 135.8,380.6 135.9,380.5 136.4,380.5 136.6,380.4 136.8,380.3 136.9,380.3 137.1,380.2 137.6,380.2 137.8,380.1 137.9,380.1 138.1,380.0 138.3,380.0 139.0,379.9 139.1,379.9 139.3,379.8 139.5,379.8 140.0,379.7 140.1,379.6 140.3,379.6 140.5,379.5 140.6,379.5 141.1,379.4 141.3,379.4 141.5,379.3 141.6,379.3 141.8,379.2 142.3,379.2 142.5,379.1 142.6,379.0 142.8,379.0 143.5,378.9 143.6,378.9 143.8,378.8 144.0,378.8 144.1,378.7 144.7,378.7 144.8,378.6 145.0,378.6 145.2,378.5 145.3,378.4 145.8,378.4 146.0,378.3 146.2,378.3 146.3,378.2 146.5,378.2 147.0,378.1 147.2,378.1 147.3,378.0 147.5,378.0 147.7,377.9 148.2,377.8 148.3,377.8 148.5,377.7 148.7,377.7 148.8,377.6 149.3,377.6 149.5,377.5 149.7,377.5 149.8,377.4 150.0,377.4 150.5,377.3 150.7,377.3 150.9,377.2 151.0,377.1 151.2,377.1 151.9,377.0 152.0,377.0 152.2,376.9 152.4,376.9 152.9,376.8 153.0,376.8 153.2,376.7 153.4,376.7 153.5,376.6 154.0,376.5 154.2,376.5 154.4,376.4 154.5,376.4 154.7,376.3 155.2,376.3 155.4,376.2 155.6,376.2 155.7,376.1 155.9,376.1 156.4,376.0 156.6,375.9 156.7,375.9 156.9,375.8 157.1,375.8 157.6,375.7 157.7,375.7 157.9,375.6 158.1,375.6 158.2,375.5 158.7,375.5 158.9,375.4 159.1,375.3 159.2,375.3 159.4,375.2 159.9,375.2 160.1,375.1 160.2,375.1 160.4,375.0 160.6,375.0 161.1,374.9 161.3,374.9 161.4,374.8 161.6,374.8 161.8,374.7 162.3,374.6 162.4,374.6 162.6,374.5 162.8,374.5 162.9,374.4 163.4,374.4 163.6,374.3 163.8,374.3 164.6,374.2 164.8,374.2 164.9,374.1 165.1,374.0 165.3,374.0 165.8,373.9 165.9,373.9 166.1,373.8 166.3,373.8 166.4,373.7 167.0,373.7 167.1,373.6 167.3,373.6 167.5,373.5 167.6,373.4 168.1,373.4 168.3,373.3 168.5,373.3 169.8,373.2 170.0,373.2 170.5,373.1 170.6,373.1 170.8,373.0 171.0,373.0 171.1,372.9 171.6,372.8 171.8,372.8 172.0,372.7 172.2,372.7 172.3,372.6 172.8,372.6 173.0,372.5 173.2,372.5 173.3,372.4 173.5,372.4 174.0,372.3 174.2,372.3 174.3,372.2 174.5,372.1 174.7,372.1 175.2,372.0 175.3,372.0 175.5,371.9 175.7,371.9 175.8,371.8 176.3,371.8 176.5,371.7 176.7,371.7 176.8,371.6 177.0,371.5 177.5,371.5 177.7,371.4 177.9,371.4 178.0,371.3 178.2,371.3 178.7,371.2 178.9,371.2 179.0,371.1 179.2,371.1 179.4,371.0 179.9,370.9 180.0,370.9 180.2,370.8 180.4,370.8 180.5,370.7 181.0,370.7 181.2,370.6 181.4,370.6 181.5,370.5 181.7,370.5 182.2,370.4 182.4,370.4 182.5,370.3 182.7,370.2 182.9,370.2 183.4,370.1 183.6,370.1 183.7,370.0 183.9,370.0 184.6,369.9 184.7,369.9 184.9,369.8 185.1,369.8 185.2,369.7 185.7,369.6 185.9,369.6 186.1,369.5 186.2,369.5 186.4,369.4 186.9,369.4 187.1,369.3 187.2,369.3 187.4,369.2 187.6,369.2 188.1,369.1 188.2,369.0 188.4,369.0 188.6,368.9 188.8,368.9 189.3,368.8 189.4,368.8 189.6,368.7 189.8,368.7 189.9,368.6 191.6,368.6 191.8,368.5 191.9,368.4 192.1,368.4 192.3,368.3 192.8,368.3 192.9,368.2 193.1,368.2 193.3,368.1 193.4,368.1 193.9,368.0 194.1,368.0 194.3,367.9 194.5,367.9 194.6,367.8 195.1,367.7 195.3,367.7 195.5,367.6 195.6,367.6 195.8,367.5 196.3,367.5 196.5,367.4 196.6,367.4 196.8,367.3 197.0,367.3 197.5,367.2 197.6,367.1 197.8,367.1 198.0,367.0 198.1,367.0 198.6,366.9 198.8,366.9 199.0,366.8 199.1,366.8 199.3,366.7 200.0,366.7 200.2,366.6 200.3,366.5 200.5,366.5 201.0,366.4 201.2,366.4 201.3,366.3 201.5,366.3 201.7,366.2 202.2,366.2 202.3,366.1 202.5,366.1 202.7,366.0 202.8,365.9 203.3,365.9 203.5,365.8 203.7,365.8 203.8,365.7 204.0,365.7 204.7,365.6 204.8,365.6 205.0,365.5 205.2,365.5 205.7,365.4 205.9,365.4 206.0,365.3 206.2,365.2 206.4,365.2 206.9,365.1 207.0,365.1 207.2,365.0 207.4,365.0 207.5,364.9 208.0,364.9 208.2,364.8 208.4,364.8 208.5,364.7 208.7,364.6 209.2,364.6 209.4,364.5 209.5,364.5 209.7,364.4 209.9,364.4 210.4,364.3 210.5,364.3 210.7,364.2 211.6,364.2 211.7,364.1 211.9,364.0 212.1,364.0 212.2,363.9 212.7,363.9 212.9,363.8 213.1,363.8 213.2,363.7 213.4,363.7 213.9,363.6 214.1,363.6 214.2,363.5 214.4,363.4 214.6,363.4 215.1,363.3 215.2,363.3 215.4,363.2 215.6,363.2 215.7,363.1 216.2,363.1 216.4,363.0 216.6,363.0 216.8,362.9 216.9,362.9 217.4,362.8 217.6,362.7 217.8,362.7 217.9,362.6 218.1,362.6 218.6,362.5 218.8,362.5 218.9,362.4 219.1,362.4 219.3,362.3 219.8,362.3 219.9,362.2 220.1,362.1 220.3,362.1 220.4,362.0 220.9,362.0 221.1,361.9 221.3,361.9 221.4,361.8 221.6,361.8 222.1,361.7 222.3,361.7 222.5,361.6 222.6,361.5 222.8,361.5 223.3,361.4 223.5,361.4 223.6,361.3 223.8,361.3 224.0,361.2 224.5,361.2 224.6,361.1 224.8,361.1 225.0,361.0 225.1,360.9 225.6,360.9 225.8,360.8 226.0,360.8 226.1,360.7 226.3,360.7 226.8,360.6 227.0,360.6 227.1,360.5 228.0,360.5 228.2,360.4 228.3,360.4 228.5,360.3 228.7,360.2 229.2,360.2 229.3,360.1 229.5,360.1 229.7,360.0 229.8,360.0 231.5,359.9 231.7,359.9 231.8,359.8 232.0,359.8 232.2,359.7 232.7,359.6 232.8,359.6 233.0,359.5 233.2,359.5 233.4,359.4 233.9,359.4 234.0,359.3 234.2,359.3 234.4,359.2 234.5,359.2 235.0,359.1 235.2,359.0 235.4,359.0 235.5,358.9 235.7,358.9 236.2,358.8 236.4,358.8 236.5,358.7 236.7,358.7 236.9,358.6 237.4,358.6 237.5,358.5 237.7,358.4 237.9,358.4 238.0,358.3 238.5,358.3 238.7,358.2 238.9,358.2 239.1,358.1 239.2,358.1 239.7,358.0 239.9,358.0 240.1,357.9 240.2,357.9 240.4,357.8 240.9,357.7 241.1,357.7 241.2,357.6 241.4,357.6 241.6,357.5 242.1,357.5 242.2,357.4 242.4,357.4 242.6,357.3 242.7,357.3 243.2,357.2 243.4,357.1 243.6,357.1 243.7,357.0 243.9,357.0 244.4,356.9 244.6,356.9 244.8,356.8 244.9,356.8 245.1,356.7 245.8,356.7 245.9,356.6 246.1,356.5 246.3,356.5 246.8,356.4 246.9,356.4 247.1,356.3 247.3,356.3 247.4,356.2 247.9,356.2 248.1,356.1 248.3,356.1 248.4,356.0 248.6,355.9 249.1,355.9 249.3,355.8 249.4,355.8 249.6,355.7 251.0,355.7 251.5,355.6 251.6,355.6 251.8,355.5 252.0,355.5 252.1,355.4 252.6,355.4 252.8,355.3 253.0,355.2 253.1,355.2 253.3,355.1 253.8,355.1 254.0,355.0 254.1,355.0 254.3,354.9 254.5,354.9 255.0,354.8 255.1,354.8 255.3,354.7 255.5,354.6 255.7,354.6 256.2,354.5 256.3,354.5 256.5,354.4 256.7,354.4 256.8,354.3 257.3,354.3 257.5,354.2 257.7,354.2 257.8,354.1 258.0,354.0 258.5,354.0 258.7,353.9 258.8,353.9 259.0,353.8 259.2,353.8 259.7,353.7 259.8,353.7 260.0,353.6 260.2,353.6 260.3,353.5 261.2,353.4 261.4,353.4 261.5,353.3 262.0,353.3 262.2,353.2 262.4,353.2 262.5,353.1 262.7,353.1 263.2,353.0 263.4,353.0 263.5,352.9 263.7,352.9 263.9,352.8 264.4,352.7 264.5,352.7 264.7,352.6 264.9,352.6 265.0,352.5 265.7,352.5 265.9,352.4 266.0,352.4 266.2,352.3 266.7,352.3 266.9,352.2 267.1,352.1 267.2,352.1 267.4,352.0 267.9,352.0 268.1,351.9 268.2,351.9 268.4,351.8 268.6,351.8 269.1,351.7 269.2,351.7 269.4,351.6 269.6,351.5 269.7,351.5 270.6,351.4 270.7,351.4 270.9,351.3 271.4,351.3 271.6,351.2 271.7,351.2 271.9,351.1 272.1,351.1 272.6,351.0 272.8,350.9 272.9,350.9 273.1,350.8 273.3,350.8 273.8,350.7 273.9,350.7 274.1,350.6 274.3,350.6 274.4,350.5 274.9,350.5 275.1,350.4 275.3,350.4 275.4,350.3 275.6,350.2 276.1,350.2 276.3,350.1 276.4,350.1 276.6,350.0 276.8,350.0 277.3,349.9 277.5,349.9 277.6,349.8 277.8,349.8 278.0,349.7 278.5,349.6 278.6,349.6 278.8,349.5 279.0,349.5 279.1,349.4 279.6,349.4 279.8,349.3 280.0,349.3 280.1,349.2 280.3,349.2 280.8,349.1 281.0,349.0 281.1,349.0 281.3,348.9 281.5,348.9 282.0,348.8 282.1,348.8 282.3,348.7 282.5,348.7 282.6,348.6 283.2,348.6 283.3,348.5 283.5,348.4 283.7,348.4 283.8,348.3 284.3,348.3 284.5,348.2 284.7,348.2 284.8,348.1 285.0,348.1 285.5,348.0 285.7,348.0 285.8,347.9 286.0,347.9 286.2,347.8 286.7,347.7 286.8,347.7 287.0,347.6 287.2,347.6 287.3,347.5 287.8,347.5 288.0,347.4 288.2,347.4 288.3,347.3 288.5,347.3 289.0,347.2 289.2,347.1 289.4,347.1 289.5,347.0 289.7,347.0 290.2,346.9 290.4,346.9 290.5,346.8 290.7,346.8 290.9,346.7 292.5,346.7 292.7,346.6 292.9,346.5 293.0,346.5 293.2,346.4 293.7,346.4 293.9,346.3 294.1,346.3 294.2,346.2 294.4,346.2 294.9,346.1 295.1,346.1 295.2,346.0 295.4,345.9 295.6,345.9 296.1,345.8 296.2,345.8 296.4,345.7 296.6,345.7 296.7,345.6 297.2,345.6 297.4,345.5 297.6,345.5 297.7,345.4 297.9,345.4 298.4,345.3 298.6,345.2 298.7,345.2 298.9,345.1 299.1,345.1 299.6,345.0 299.8,345.0 299.9,344.9 300.1,344.9 300.3,344.8 300.8,344.8 300.9,344.7 301.1,344.6 301.3,344.6 301.4,344.5 301.9,344.5 302.1,344.4 302.3,344.4 302.4,344.3 302.6,344.3 303.1,344.2 303.3,344.2 303.4,344.1 303.6,344.0 303.8,344.0 304.3,343.9 304.4,343.9 304.6,343.8 304.8,343.8 304.9,343.7 305.5,343.7 305.6,343.6 305.8,343.6 306.0,343.5 306.1,343.5 306.8,343.4 307.0,343.3 307.1,343.3 307.3,343.2 307.8,343.2 308.0,343.1 308.1,343.1 308.3,343.0 308.5,343.0 309.0,342.9 309.1,342.9 309.3,342.8 309.5,342.7 309.6,342.7 310.1,342.6 310.3,342.6 310.5,342.5 310.6,342.5 310.8,342.4 311.3,342.4 311.5,342.3 311.7,342.3 311.8,342.2 312.0,342.1 312.5,342.1 312.7,342.0 312.8,342.0 313.0,341.9 313.2,341.9 313.7,341.8 313.8,341.8 314.0,341.7 315.3,341.7 315.5,341.6 316.0,341.5 316.2,341.5 316.4,341.4 316.5,341.4 316.7,341.3 317.2,341.3 317.4,341.2 317.5,341.2 317.7,341.1 317.9,341.1 318.4,341.0 318.5,341.0 318.7,340.9 318.9,340.8 319.0,340.8 319.5,340.7 319.7,340.7 319.9,340.6 320.0,340.6 320.2,340.5 320.7,340.5 320.9,340.4 321.0,340.4 321.2,340.3 321.4,340.2 321.9,340.2 322.1,340.1 322.2,340.1 323.1,340.0 323.2,340.0 323.4,339.9 323.6,339.9 323.7,339.8 324.2,339.8 324.4,339.7 324.6,339.6 324.7,339.6 324.9,339.5 325.4,339.5 325.6,339.4 325.7,339.4 325.9,339.3 326.1,339.3 326.9,339.2 327.1,339.2 327.2,339.1 327.8,339.0 327.9,339.0 328.1,338.9 328.3,338.9 328.4,338.8 328.9,338.8 329.1,338.7 329.3,338.7 329.4,338.6 329.6,338.6 330.1,338.5 330.3,338.5 330.4,338.4 330.6,338.3 330.8,338.3 331.3,338.2 331.4,338.2 331.6,338.1 331.8,338.1 331.9,338.0 332.4,338.0 332.6,337.9 332.8,337.9 333.0,337.8 333.1,337.7 333.6,337.7 333.8,337.6 334.0,337.6 334.1,337.5 334.3,337.5 335.0,337.4 335.1,337.4 335.3,337.3 335.5,337.3 336.0,337.2 336.1,337.1 336.3,337.1 336.5,337.0 336.6,337.0 337.1,336.9 337.3,336.9 337.5,336.8 337.6,336.8 337.8,336.7 338.3,336.7 338.5,336.6 338.7,336.5 338.8,336.5 339.0,336.4 339.5,336.4 339.7,336.3 339.8,336.3 340.0,336.2 340.2,336.2 340.7,336.1 340.8,336.1 341.0,336.0 341.2,336.0 341.3,335.9 341.8,335.8 342.0,335.8 342.2,335.7 342.3,335.7 342.5,335.6 343.0,335.6 343.2,335.5 343.3,335.5 343.5,335.4 343.7,335.4 344.2,335.3 344.4,335.2 344.5,335.2 344.7,335.1 344.9,335.1 345.4,335.0 345.5,335.0 345.7,334.9 345.9,334.9 346.0,334.8 346.5,334.8 346.7,334.7 346.9,334.6 347.0,334.6 347.2,334.5 347.7,334.5 347.9,334.4 348.0,334.4 348.2,334.3 348.4,334.3 348.9,334.2 349.0,334.2 349.2,334.1 349.4,334.0 349.6,334.0 350.1,333.9 350.2,333.9 350.4,333.8 350.6,333.8 350.7,333.7 351.4,333.7 351.6,333.6 351.7,333.6 351.9,333.5 353.6,333.5 353.7,333.4 353.9,333.3 354.1,333.3 354.2,333.2 354.7,333.2 354.9,333.1 355.1,333.1 355.3,333.0 355.4,333.0 355.9,332.9 356.1,332.9 356.3,332.8 356.4,332.7 356.6,332.7 357.1,332.6 357.3,332.6 357.4,332.5 357.6,332.5 357.8,332.4 358.3,332.4 358.4,332.3 358.6,332.3 358.8,332.2 358.9,332.1 359.4,332.1 359.6,332.0 359.8,332.0 359.9,331.9 360.1,331.9 360.6,331.8 360.8,331.8 361.0,331.7 361.1,331.7 361.3,331.6 361.8,331.5 362.0,331.5 362.1,331.4 362.3,331.4 362.5,331.3 363.0,331.3 363.1,331.2 363.3,331.2 363.5,331.1 363.6,331.1 364.1,331.0 364.3,331.0 364.5,330.9 364.6,330.8 364.8,330.8 365.3,330.7 365.5,330.7 365.6,330.6 365.8,330.6 366.0,330.5 366.5,330.5 366.7,330.4 366.8,330.4 367.0,330.3 367.2,330.2 368.0,330.2 368.2,330.1 368.3,330.1 368.8,330.0 369.0,330.0 369.2,329.9 369.3,329.9 369.5,329.8 370.0,329.8 370.2,329.7 370.3,329.6 370.5,329.6 370.7,329.5 371.2,329.5 371.3,329.4 371.5,329.4 371.7,329.3 371.9,329.3 372.4,329.2 372.5,329.2 372.7,329.1 372.9,329.0 373.0,329.0 374.7,328.9 374.9,328.9 375.0,328.8 375.2,328.8 375.4,328.7 375.9,328.7 376.0,328.6 376.2,328.6 376.4,328.5 376.5,328.5 377.0,328.4 377.2,328.3 377.4,328.3 377.6,328.2 377.7,328.2 378.2,328.1 378.4,328.1 378.6,328.0 378.7,328.0 378.9,327.9 379.4,327.9 379.6,327.8 379.7,327.7 379.9,327.7 380.1,327.6 380.6,327.6 380.7,327.5 380.9,327.5 381.1,327.4 381.2,327.4 381.7,327.3 381.9,327.3 382.1,327.2 382.2,327.1 382.4,327.1 382.9,327.0 383.1,327.0 383.3,326.9 383.4,326.9 384.1,326.8 384.3,326.8 384.4,326.7 384.6,326.7 384.8,326.6 385.3,326.5 385.4,326.5 385.6,326.4 385.8,326.4 385.9,326.3 386.4,326.3 386.6,326.2 386.8,326.2 386.9,326.1 387.1,326.1 387.6,326.0 387.8,326.0 388.8,325.9 389.0,325.8 389.1,325.8 389.3,325.7 389.5,325.7 390.0,325.6 390.1,325.6 390.3,325.5 390.5,325.5 390.6,325.4 391.1,325.4 391.3,325.3 391.5,325.2 391.6,325.2 391.8,325.1 392.3,325.1 392.5,325.0 392.6,325.0 392.8,324.9 393.0,324.9 393.5,324.8 393.6,324.8 393.8,324.7 394.0,324.6 394.7,324.6 394.8,324.5 395.0,324.5 395.2,324.4 395.3,324.4 395.8,324.3 396.0,324.3 396.2,324.2 396.3,324.2 396.5,324.1 397.0,324.0 397.2,324.0 397.3,323.9 397.5,323.9 397.7,323.8 398.2,323.8 398.3,323.7 398.5,323.7 398.7,323.6 398.8,323.6 399.4,323.5 399.5,323.5 399.7,323.4 399.9,323.3 400.0,323.3 400.5,323.2 400.7,323.2 400.9,323.1 401.0,323.1 401.2,323.0 401.7,323.0 401.9,322.9 402.0,322.9 402.2,322.8 402.4,322.7 402.9,322.7 403.0,322.6 403.2,322.6 403.4,322.5 403.5,322.5 404.0,322.4 404.2,322.4 404.4,322.3 404.5,322.3 404.7,322.2 405.2,322.1 405.4,322.1 405.6,322.0 405.7,322.0 405.9,321.9 406.4,321.9 406.6,321.8 406.7,321.8 406.9,321.7 407.1,321.7 407.6,321.6 407.7,321.5 407.9,321.5 408.1,321.4 408.2,321.4 408.7,321.3 408.9,321.3 409.1,321.2 409.2,321.2 409.4,321.1 409.9,321.1 410.1,321.0 410.2,321.0 410.4,320.9 411.1,320.8 411.3,320.8 411.4,320.7 411.6,320.7 411.8,320.6 412.3,320.6 412.4,320.5 412.6,320.5 412.8,320.4 412.9,320.4 413.4,320.3 414.8,320.2 414.9,320.2 415.1,320.1 415.3,320.1 415.8,320.0 415.9,320.0 416.1,319.9 416.3,319.9 416.5,319.8 417.0,319.8 417.1,319.7 417.3,319.6 417.5,319.6 417.6,319.5 418.1,319.5 418.3,319.4 418.5,319.4 418.6,319.3 418.8,319.3 419.3,319.2 419.5,319.2 419.6,319.1 419.8,319.1 420.0,319.0 420.5,318.9 420.6,318.9 420.8,318.8 421.0,318.8 421.1,318.7 421.7,318.7 421.8,318.6 422.0,318.6 422.2,318.5 422.3,318.5 422.8,318.4 423.0,318.3 423.2,318.3 423.3,318.2 423.5,318.2 424.0,318.1 424.2,318.1 424.3,318.0 424.5,318.0 424.7,317.9 425.2,317.9 425.3,317.8 425.5,317.7 425.7,317.7 425.8,317.6 426.3,317.6 426.5,317.5 426.7,317.5 426.8,317.4 427.0,317.4 427.5,317.3 427.7,317.3 427.9,317.2 428.0,317.1 428.2,317.1 428.7,317.0 428.9,317.0 429.2,316.9 429.4,316.9 429.9,316.8 430.0,316.8 430.2,316.7 430.4,316.7 430.5,316.6 431.0,316.6 431.2,316.5 431.4,316.4 431.5,316.4 431.7,316.3 432.2,316.3 432.4,316.2 432.5,316.2 432.7,316.1 434.6,316.1 434.7,316.0 434.9,316.0 435.1,315.9 435.2,315.8 435.7,315.8 435.9,315.7 436.1,315.7 436.2,315.6 436.4,315.6 436.9,315.5 437.1,315.5 437.2,315.4 437.4,315.4 437.6,315.3 438.1,315.2 438.3,315.2 438.4,315.1 438.6,315.1 438.8,315.0 439.3,315.0 439.4,314.9 439.6,314.9 439.8,314.8 439.9,314.8 440.4,314.7 440.6,314.6 440.8,314.6 440.9,314.5 441.1,314.5 441.6,314.4 441.8,314.4 441.9,314.3 442.1,314.3 442.3,314.2 442.8,314.2 442.9,314.1 443.1,314.1 443.3,314.0 443.4,313.9 444.0,313.9 444.1,313.8 444.3,313.8 444.5,313.7 444.6,313.7 445.3,313.6 445.5,313.6 445.6,313.5 445.8,313.5 446.3,313.4 446.5,313.3 446.6,313.3 446.8,313.2 447.0,313.2 447.5,313.1 447.6,313.1 447.8,313.0 448.0,313.0 448.1,312.9 448.6,312.9 448.8,312.8 449.0,312.7 449.1,312.7 450.2,312.6 450.3,312.6 450.5,312.5 451.0,312.5 451.2,312.4 451.3,312.4 451.5,312.3 451.7,312.3 452.2,312.2 452.3,312.1 452.5,312.1 452.7,312.0 452.8,312.0 453.3,311.9 453.5,311.9 453.7,311.8 453.8,311.8 454.0,311.7 454.5,311.7 454.7,311.6 454.9,311.6 455.0,311.5 455.2,311.4 455.7,311.4 455.9,311.3 456.0,311.3 456.2,311.2 456.4,311.2 456.9,311.1 457.0,311.1 457.2,311.0 457.4,311.0 457.5,310.9 458.0,310.8 458.2,310.8 458.4,310.7 459.2,310.7 459.4,310.6 459.5,310.6 459.7,310.5 459.9,310.5 460.4,310.4 460.6,310.4 460.7,310.3 460.9,310.2 461.1,310.2 461.6,310.1 461.7,310.1 461.9,310.0 462.1,310.0 462.2,309.9 462.7,309.9 462.9,309.8 463.1,309.8 463.2,309.7 463.4,309.6 463.9,309.6 464.1,309.5 464.2,309.5 464.4,309.4 464.6,309.4 465.1,309.3 465.2,309.3 465.4,309.2 465.6,309.2 465.7,309.1 466.3,309.1 466.4,309.0 466.6,308.9 466.8,308.9 466.9,308.8 467.4,308.8 467.6,308.7 467.8,308.7 467.9,308.6 468.1,308.6 468.6,308.5 468.8,308.5 468.9,308.4 469.1,308.3 469.3,308.3 469.8,308.2 469.9,308.2 470.1,308.1 470.3,308.1 470.4,308.0 470.9,308.0 471.1,307.9 471.3,307.9 471.5,307.8 471.6,307.7 472.1,307.7 472.3,307.6 472.5,307.6 472.6,307.5 472.8,307.5 473.3,307.4 473.5,307.4 473.6,307.3 473.8,307.3 474.0,307.2 474.5,307.1 474.6,307.1 474.8,307.0 476.3,307.0 476.8,306.9 477.0,306.9 477.2,306.8 477.3,306.8 477.5,306.7 478.0,306.7 478.2,306.6 478.3,306.6 478.5,306.5 478.7,306.4 479.2,306.4 479.3,306.3 479.5,306.3 479.7,306.2 479.8,306.2 480.3,306.1 480.5,306.1 480.7,306.0 480.8,306.0 481.0,305.9 481.5,305.8 481.7,305.8 481.8,305.7 482.0,305.7 482.2,305.6 482.7,305.6 482.9,305.5 483.0,305.5 483.2,305.4 483.4,305.4 483.9,305.3 484.0,305.2 484.2,305.2 484.4,305.1 484.5,305.1 485.0,305.0 485.2,305.0 485.4,304.9 485.5,304.9 485.7,304.8 486.2,304.8 486.4,304.7 486.5,304.6 486.7,304.6 486.9,304.5 487.4,304.5 487.5,304.4 487.7,304.4 487.9,304.3 488.1,304.3 488.6,304.2 488.7,304.2 488.9,304.1 489.1,304.1 489.2,304.0 489.7,303.9 489.9,303.9 490.1,303.8 490.2,303.8 490.9,303.7 491.1,303.7 491.2,303.6 491.4,303.6 491.6,303.5 492.1,303.5 492.2,303.4 492.4,303.3 492.6,303.3 492.7,303.2 493.2,303.2 493.4,303.1 493.6,303.1 493.8,303.0 493.9,303.0 494.4,302.9 494.6,302.9 494.8,302.8 494.9,302.7 495.1,302.7 495.6,302.6 495.8,302.6 495.9,302.5 496.1,302.5 496.3,302.4 496.8,302.4 496.9,302.3 497.1,302.3 498.4,302.2 498.6,302.1 499.1,302.1 499.3,302.0 499.5,302.0 499.6,301.9 499.8,301.9 500.3,301.8 500.5,301.8 500.6,301.7 500.8,301.7 501.0,301.6 501.5,301.6 501.6,301.5 501.8,301.4 502.0,301.4 502.1,301.3 502.6,301.3 502.8,301.2 503.0,301.2 503.1,301.1 503.3,301.1 503.8,301.0 504.0,301.0 504.1,300.9 504.3,300.8 504.5,300.8 505.0,300.7 505.2,300.7 505.3,300.6 505.5,300.6 505.7,300.5 506.3,300.5 506.5,300.4 506.7,300.4 506.8,300.3 507.3,300.2 507.5,300.2 507.7,300.1 507.8,300.1 508.0,300.0 508.5,300.0 508.7,299.9 508.8,299.9 509.0,299.8 509.2,299.8 509.7,299.7 509.8,299.6 510.0,299.6 510.2,299.5 510.4,299.5 511.4,299.4 511.5,299.4 512.0,299.3 512.2,299.3 512.4,299.2 512.5,299.2 512.7,299.1 513.2,299.1 513.4,299.0 513.5,298.9 513.7,298.9 513.9,298.8 514.4,298.8 514.5,298.7 514.7,298.7 514.9,298.6 515.0,298.6 515.5,298.5 515.7,298.5 515.9,298.4 516.1,298.3 516.2,298.3 516.7,298.2 516.9,298.2 517.1,298.1 517.2,298.1 517.4,298.0 518.1,298.0 518.2,297.9 518.4,297.9 518.6,297.8 519.1,297.7 519.2,297.7 519.4,297.6 519.6,297.6 519.7,297.5 520.2,297.5 520.4,297.4 520.6,297.4 520.7,297.3 520.9,297.3 521.4,297.2 521.6,297.1 521.8,297.1 521.9,297.0 522.1,297.0 522.6,296.9 522.8,296.9 522.9,296.8 523.1,296.8 523.3,296.7 523.8,296.7 523.9,296.6 524.1,296.6 524.3,296.5 524.4,296.4 524.9,296.4 525.1,296.3 525.3,296.3 525.4,296.2 525.6,296.2 526.1,296.1 526.3,296.1 526.4,296.0 526.6,296.0 526.8,295.9 527.3,295.8 527.5,295.8 527.6,295.7 527.8,295.7 528.0,295.6 528.5,295.6 528.6,295.5 528.8,295.5 529.0,295.4 529.1,295.4 529.6,295.3 529.8,295.2 530.0,295.2 530.1,295.1 530.3,295.1 530.8,295.0 531.0,295.0 531.1,294.9 531.3,294.9 531.5,294.8 532.0,294.8 532.1,294.7 532.3,294.6 532.5,294.6 532.7,294.5 533.2,294.5 533.3,294.4 533.5,294.4 533.7,294.3 533.8,294.3 534.7,294.2 534.8,294.2 535.0,294.1 535.5,294.1 535.7,294.0 535.8,293.9 536.0,293.9 537.3,293.8 537.8,293.8 538.0,293.7 538.2,293.7 538.4,293.6 538.5,293.6 539.0,293.5 539.2,293.5 539.4,293.4 539.5,293.3 539.7,293.3 540.2,293.2 540.4,293.2 540.5,293.1 540.7,293.1 540.9,293.0 541.4,293.0 541.5,292.9 541.7,292.9 541.9,292.8 542.0,292.7 542.5,292.7 542.7,292.6 542.9,292.6 543.0,292.5 543.2,292.5 543.7,292.4 543.9,292.4 544.1,292.3 544.2,292.3 544.4,292.2 544.9,292.2 545.1,292.1 545.2,292.0 545.4,292.0 545.6,291.9 546.1,291.9 546.2,291.8 546.4,291.8 546.6,291.7 546.7,291.7 547.2,291.6 547.4,291.6 547.6,291.5 547.7,291.4 547.9,291.4 548.4,291.3 548.6,291.3 548.7,291.2 548.9,291.2 549.1,291.1 549.6,291.1 549.8,291.0 549.9,291.0 550.1,290.9 550.3,290.8 550.8,290.8 550.9,290.7 551.1,290.7 551.3,290.6 551.4,290.6 552.1,290.5 552.3,290.5 552.4,290.4 552.6,290.4 553.1,290.3 553.3,290.2 553.4,290.2 553.6,290.1 553.8,290.1 554.3,290.0 554.4,290.0 554.6,289.9 554.8,289.9 555.0,289.8 555.5,289.8 555.6,289.7 555.8,289.7 556.0,289.6 556.1,289.5 557.8,289.5 558.0,289.4 558.1,289.4 558.3,289.3 558.5,289.3 559.0,289.2 559.1,289.2 559.3,289.1 559.5,289.1 559.6,289.0 560.2,288.9 560.3,288.9 560.5,288.8 560.7,288.8 560.8,288.7 561.3,288.7 561.5,288.6 561.7,288.6 561.8,288.5 562.0,288.5 562.5,288.4 562.7,288.3 562.8,288.3 563.0,288.2 563.2,288.2 563.7,288.1 563.8,288.1 564.0,288.0 564.2,288.0 564.3,287.9 564.8,287.9 565.0,287.8 565.2,287.7 565.3,287.7 565.5,287.6 566.0,287.6 566.2,287.5 566.4,287.5 566.5,287.4 566.7,287.4 567.5,287.3 567.7,287.3 567.9,287.2 568.4,287.2 568.5,287.1 568.7,287.1 568.9,287.0 569.0,287.0 569.5,286.9 569.7,286.8 569.9,286.8 570.0,286.7 570.2,286.7 570.7,286.6 570.9,286.6 571.0,286.5 571.2,286.5 571.4,286.4 572.4,286.4 572.6,286.3 573.1,286.2 573.2,286.2 573.4,286.1 573.6,286.1 573.7,286.0 574.2,286.0 574.4,285.9 574.6,285.9 574.7,285.8 574.9,285.8 575.4,285.7 575.6,285.6 575.7,285.6 575.9,285.5 576.1,285.5 576.6,285.4 576.8,285.4 576.9,285.3 577.1,285.3 577.8,285.2 577.9,285.2 578.1,285.1 578.3,285.0 578.4,285.0 578.9,284.9 579.1,284.9 579.3,284.8 579.4,284.8 579.6,284.7 580.1,284.7 580.3,284.6 580.4,284.6 580.6,284.5 580.8,284.5 581.3,284.4 581.4,284.3 581.6,284.3 581.8,284.2 581.9,284.2 582.5,284.1 582.6,284.1 582.8,284.0 583.0,284.0 583.1,283.9 583.6,283.9 583.8,283.8 584.0,283.7 584.1,283.7 584.3,283.6 584.8,283.6 585.0,283.5 585.1,283.5 585.3,283.4 585.5,283.4 586.0,283.3 586.1,283.3 586.3,283.2 586.5,283.1 586.6,283.1 587.1,283.0 587.3,283.0 587.5,282.9 587.6,282.9 587.8,282.8 588.3,282.8 588.5,282.7 588.7,282.7 588.8,282.6 589.0,282.5 589.5,282.5 589.7,282.4 589.8,282.4 590.0,282.3 590.2,282.3 590.7,282.2 590.8,282.2 591.0,282.1 591.2,282.1 591.3,282.0 591.8,282.0 592.0,281.9 592.2,281.8 592.3,281.8 592.5,281.7 593.0,281.7 593.2,281.6 593.4,281.6 593.5,281.5 593.7,281.5 594.4,281.4 594.5,281.4 594.7,281.3 594.9,281.2 595.4,281.2 595.5,281.1 595.7,281.1 595.9,281.0 596.0,281.0 596.5,280.9 596.7,280.9 596.9,280.8 597.0,280.8 597.2,280.7 598.9,280.6 599.1,280.6 599.2,280.5 599.4,280.5 599.6,280.4 600.1,280.4 600.2,280.3 600.4,280.3 600.6,280.2 600.7,280.2 601.2,280.1 601.4,280.0 601.6,280.0 601.7,279.9 601.9,279.9 602.4,279.8 602.6,279.8 602.7,279.7 602.9,279.7 603.1,279.6 603.6,279.6 603.7,279.5 603.9,279.5 604.1,279.4 604.2,279.3 604.8,279.3 604.9,279.2 605.1,279.2 605.3,279.1 605.4,279.1 605.9,279.0 606.1,279.0 606.3,278.9 606.4,278.9 606.6,278.8 607.1,278.7 607.3,278.7 607.4,278.6 607.6,278.6 607.8,278.5 608.3,278.5 608.4,278.4 608.6,278.4 608.8,278.3 608.9,278.3 609.4,278.2 609.6,278.1 609.8,278.1 609.9,278.0 610.1,278.0 610.6,277.9 610.8,277.9 611.0,277.8 611.1,277.8 611.3,277.7 611.8,277.7 612.0,277.6 612.1,277.5 612.3,277.5 612.5,277.4 613.1,277.4 613.3,277.3 613.5,277.3 613.6,277.2 614.1,277.2 614.3,277.1 614.5,277.1 614.6,277.0 614.8,277.0 615.3,276.9 615.5,276.8 615.7,276.8 615.8,276.7 616.0,276.7 617.7,276.6 617.8,276.6 618.0,276.5 618.2,276.5 618.3,276.4 618.8,276.4 619.0,276.3 619.2,276.2 619.3,276.2 619.5,276.1 620.0,276.1 620.2,276.0 620.3,276.0 620.5,275.9 620.7,275.9 621.2,275.8 621.4,275.8 621.5,275.7 621.7,275.6 621.9,275.6 622.4,275.5 622.5,275.5 622.7,275.4 622.9,275.4 623.0,275.3 623.5,275.3 623.7,275.2 623.9,275.2 624.0,275.1 624.2,275.1 624.7,275.0 624.9,274.9 625.0,274.9 625.2,274.8 625.4,274.8 625.9,274.7 626.0,274.7 626.2,274.6 626.4,274.6 626.5,274.5 627.1,274.5 627.2,274.4 627.4,274.3 627.6,274.3 627.7,274.2 628.2,274.2 628.4,274.1 628.7,274.1 628.9,274.0 629.4,274.0 629.6,273.9 629.7,273.9 629.9,273.8 630.1,273.7 630.6,273.7 630.7,273.6 630.9,273.6 631.1,273.5 631.2,273.5 631.7,273.4 631.9,273.4 632.1,273.3 632.3,273.3 632.4,273.2 633.4,273.1 633.6,273.1 634.1,273.0 634.3,273.0 634.4,272.9 634.6,272.9 634.8,272.8 635.3,272.8 635.4,272.7 635.6,272.7 635.8,272.6 635.9,272.6 636.4,272.5 636.6,272.4 636.8,272.4 636.9,272.3 637.1,272.3 637.6,272.2 637.8,272.2 638.0,272.1 638.1,272.1 638.3,272.0 638.8,272.0 639.0,271.9 639.1,271.8 639.3,271.8 639.5,271.7 640.0,271.7 640.1,271.6 640.3,271.6 640.5,271.5 640.6,271.5 641.1,271.4 641.3,271.4 641.5,271.3 642.3,271.2 642.5,271.2 642.6,271.1 642.8,271.1 643.0,271.0 643.5,271.0 643.7,270.9 643.8,270.9 644.0,270.8 644.2,270.8 644.7,270.7 644.8,270.6 645.0,270.6 645.2,270.5 645.3,270.5 645.8,270.4 646.0,270.4 646.2,270.3 646.3,270.3 646.5,270.2 647.0,270.2 647.2,270.1 647.3,270.1 647.5,270.0 647.7,269.9 648.2,269.9 648.3,269.8 648.5,269.8 648.7,269.7 648.9,269.7 649.4,269.6 649.5,269.6 649.7,269.5 649.9,269.5 650.0,269.4 650.5,269.3 650.7,269.3 650.9,269.2 651.0,269.2 651.2,269.1 651.7,269.1 651.9,269.0 652.0,269.0 652.2,268.9 652.4,268.9 652.9,268.8 653.0,268.7 653.2,268.7 653.4,268.6 653.5,268.6 654.0,268.5 654.2,268.5 654.4,268.4 654.6,268.4 654.7,268.3 655.2,268.3 655.4,268.2 655.6,268.1 655.7,268.1 655.9,268.0 656.4,268.0 656.6,267.9 656.7,267.9 656.9,267.8 657.1,267.8 657.6,267.7 657.7,267.7 657.9,267.6 658.1,267.6 659.9,267.5 660.1,267.4 660.3,267.4 660.4,267.3 660.6,267.3 661.1,267.2 661.3,267.2 661.4,267.1 661.6,267.1 661.8,267.0 662.3,267.0 662.4,266.9 662.6,266.8 662.8,266.8 662.9,266.7 663.4,266.7 663.6,266.6 663.8,266.6 663.9,266.5 664.1,266.5 664.6,266.4 664.8,266.4 664.9,266.3 665.1,266.2 665.3,266.2 665.8,266.1 666.0,266.1 666.1,266.0 666.3,266.0 666.5,265.9 667.0,265.9 667.1,265.8 667.3,265.8 667.5,265.7 667.6,265.6 668.1,265.6 668.3,265.5 668.5,265.5 668.6,265.4 668.8,265.4 669.3,265.3 669.5,265.3 669.6,265.2 669.8,265.2 670.0,265.1 670.5,265.1 670.6,265.0 670.8,264.9 671.0,264.9 671.2,264.8 671.7,264.8 671.8,264.7 672.0,264.7 672.2,264.6 672.3,264.6 672.8,264.5 673.0,264.5 673.2,264.4 673.3,264.3 673.5,264.3 674.2,264.2 674.3,264.2 674.5,264.1 674.7,264.1 675.2,264.0 675.3,264.0 675.5,263.9 675.7,263.9 675.8,263.8 676.3,263.7 676.5,263.7 676.7,263.6 676.9,263.6 677.0,263.5 677.5,263.5 677.7,263.4 677.9,263.4 678.0,263.3 678.2,263.3 678.7,263.2 678.9,263.1 679.0,263.1 679.2,263.0 679.4,263.0 679.9,262.9 680.0,262.9 680.2,262.8 680.4,262.8 682.2,262.7 682.4,262.7 682.6,262.6 682.7,262.6 682.9,262.5 683.4,262.4 683.6,262.4 683.7,262.3 683.9,262.3 684.1,262.2 684.6,262.2 684.7,262.1 684.9,262.1 685.1,262.0 685.2,262.0 685.7,261.9 685.9,261.8 686.1,261.8 686.2,261.7 686.4,261.7 686.9,261.6 687.1,261.6 687.2,261.5 687.4,261.5 687.6,261.4 688.1,261.4 688.3,261.3 688.4,261.2 688.6,261.2 688.8,261.1 689.3,261.1 689.4,261.0 689.6,261.0 690.4,260.9 690.6,260.9 690.8,260.8 690.9,260.8 691.1,260.7 691.6,260.6 691.8,260.6 691.9,260.5 692.1,260.5 692.3,260.4 692.8,260.4 692.9,260.3 693.1,260.3 693.3,260.2 693.5,260.2 694.0,260.1 694.1,260.1 695.1,260.0 695.3,259.9 695.5,259.9 695.6,259.8 695.8,259.8 696.3,259.7 696.5,259.7 696.6,259.6 696.8,259.6 697.0,259.5 697.5,259.5 697.6,259.4 697.8,259.3 698.0,259.3 698.1,259.2 698.6,259.2 698.8,259.1 699.0,259.1 699.2,259.0 699.3,259.0 699.8,258.9 700.0,258.9 700.2,258.8 700.3,258.7 700.5,258.7 701.2,258.6 701.3,258.6 701.5,258.5 701.7,258.5 702.2,258.4 702.3,258.4 702.5,258.3 702.7,258.3 702.8,258.2 703.3,258.1 703.5,258.1 703.7,258.0 703.8,258.0 704.0,257.9 704.5,257.9 704.7,257.8 704.9,257.8 705.0,257.7 705.2,257.7 705.7,257.6 705.9,257.6 706.0,257.5 706.2,257.4 706.4,257.4 706.9,257.3 707.0,257.3 707.2,257.2 707.4,257.2 707.5,257.1 708.0,257.1 708.2,257.0 708.4,257.0 708.5,256.9 708.7,256.8 709.2,256.8 709.4,256.7 709.5,256.7 709.7,256.6 709.9,256.6 710.4,256.5 710.6,256.5 710.7,256.4 710.9,256.4 711.1,256.3 711.6,256.2 711.7,256.2 711.9,256.1 712.1,256.1 712.2,256.0 712.7,256.0 712.9,255.9 713.1,255.9 713.2,255.8 713.4,255.8 713.9,255.7 714.1,255.6 714.2,255.6 714.4,255.5 714.6,255.5 715.1,255.4 715.2,255.4 715.4,255.3 715.6,255.3 715.8,255.2 716.3,255.2 716.4,255.1 716.6,255.1 716.8,255.0 716.9,254.9 717.8,254.9 717.9,254.8 718.1,254.8 718.6,254.7 718.8,254.7 718.9,254.6 719.1,254.6 719.3,254.5 719.8,254.5 721.1,254.4 721.3,254.3 721.5,254.3 721.6,254.2 722.1,254.2 722.3,254.1 722.5,254.1 722.6,254.0 722.8,254.0 723.3,253.9 723.5,253.9 723.6,253.8 723.8,253.7 724.0,253.7 724.5,253.6 724.6,253.6 724.8,253.5 725.0,253.5 725.1,253.4 725.6,253.4 725.8,253.3 726.0,253.3 726.1,253.2 726.3,253.1 726.8,253.1 727.0,253.0 727.2,253.0 727.3,252.9 727.5,252.9 728.0,252.8 728.2,252.8 728.3,252.7 728.5,252.7 728.7,252.6 729.2,252.6 729.3,252.5 729.5,252.4 729.7,252.4 729.8,252.3 730.3,252.3 730.5,252.2 730.7,252.2 730.8,252.1 731.0,252.1 731.5,252.0 731.7,252.0 731.8,251.9 732.0,251.8 732.2,251.8 732.7,251.7 732.9,251.7 733.0,251.6 733.2,251.6 733.4,251.5 733.9,251.5 734.0,251.4 734.2,251.4 734.4,251.3 734.5,251.2 735.0,251.2 735.2,251.1 735.5,251.1 735.7,251.0 736.2,251.0 736.4,250.9 736.5,250.9 736.7,250.8 736.9,250.8 737.4,250.7 737.6,250.7 737.7,250.6 737.9,250.5 738.1,250.5 738.6,250.4 738.7,250.4 738.9,250.3 739.1,250.3 739.2,250.2 739.7,250.2 741.2,250.1 741.4,250.1 741.6,250.0 742.1,249.9 742.2,249.9 742.4,249.8 742.6,249.8 742.7,249.7 743.3,249.7 743.4,249.6 743.6,249.6 743.8,249.5 743.9,249.5 744.4,249.4 744.6,249.3 744.8,249.3 744.9,249.2 745.1,249.2 745.6,249.1 745.8,249.1 745.9,249.0 746.1,249.0 746.3,248.9 746.8,248.9 746.9,248.8 747.1,248.7 747.3,248.7 747.4,248.6 747.9,248.6 748.1,248.5 748.3,248.5 748.4,248.4 748.6,248.4 749.1,248.3 749.3,248.3 749.5,248.2 749.6,248.2 749.8,248.1 750.3,248.0 750.5,248.0 750.6,247.9 750.8,247.9 751.5,247.8 751.6,247.8 751.8,247.7 752.0,247.7 752.1,247.6 752.6,247.6 752.8,247.5 753.0,247.4 753.1,247.4 753.3,247.3 753.8,247.3 754.0,247.2 754.2,247.2 754.3,247.1 754.5,247.1 755.0,247.0 755.2,247.0 755.3,246.9 756.3,246.8 756.5,246.8 756.7,246.7 756.8,246.7 757.3,246.6 757.5,246.6 757.7,246.5 757.8,246.5 758.0,246.4 758.5,246.4 758.7,246.3 758.8,246.2 759.0,246.2 759.2,246.1 759.7,246.1 759.9,246.0 760.0,246.0 760.2,245.9 760.4,245.9 761.0,245.8 761.2,245.8 761.4,245.7 761.5,245.7 762.0,245.6 762.2,245.5 762.4,245.5 762.5,245.4 762.7,245.4 763.2,245.3 763.4,245.3 763.5,245.2 763.7,245.2 763.9,245.1 764.4,245.1 764.5,245.0 764.7,244.9 764.9,244.9 765.0,244.8 765.6,244.8 765.7,244.7 765.9,244.7 766.1,244.6 766.2,244.6 766.7,244.5 766.9,244.5 767.1,244.4 767.2,244.3 767.4,244.3 767.9,244.2 768.1,244.2 768.2,244.1 768.4,244.1 768.6,244.0 769.1,244.0 769.2,243.9 769.4,243.9 769.6,243.8 769.7,243.7 770.2,243.7 770.4,243.6 770.6,243.6 770.8,243.5 770.9,243.5 771.4,243.4 771.6,243.4 771.8,243.3 771.9,243.3 772.1,243.2 772.6,243.2 772.8,243.1 772.9,243.0 773.1,243.0 773.3,242.9 773.8,242.9 773.9,242.8 774.1,242.8 774.3,242.7 774.4,242.7 774.9,242.6 775.1,242.6 775.3,242.5 775.4,242.4 775.6,242.4 776.1,242.3 776.3,242.3 776.5,242.2 776.6,242.2 776.8,242.1 777.3,242.1 777.5,242.0 777.6,242.0 777.8,241.9 778.0,241.8 778.5,241.8 778.6,241.7 778.8,241.7 779.0,241.6 779.1,241.6 779.6,241.5 779.8,241.5 780.0,241.4 780.1,241.4 780.3,241.3 780.8,241.2 781.0,241.2 782.5,241.1 782.7,241.1 783.2,241.0 783.3,241.0 783.5,240.9 783.7,240.9 783.8,240.8 784.3,240.8 784.5,240.7 784.7,240.7 784.8,240.6 785.0,240.5 785.5,240.5 785.7,240.4 785.8,240.4 786.0,240.3 786.2,240.3 786.7,240.2 786.8,240.2 787.0,240.1 787.2,240.1 787.4,240.0 787.9,239.9 788.0,239.9 788.2,239.8 788.4,239.8 788.5,239.7 789.0,239.7 789.2,239.6 789.4,239.6 789.5,239.5 789.7,239.5 790.2,239.4 790.4,239.3 790.5,239.3 790.7,239.2 790.9,239.2 791.4,239.1 791.5,239.1 791.7,239.0 791.9,239.0 792.0,238.9 792.5,238.9 792.7,238.8 792.9,238.7 793.1,238.7 793.2,238.6 793.7,238.6 793.9,238.5 794.1,238.5 794.2,238.4 794.4,238.4 794.9,238.3 795.1,238.3 795.2,238.2 795.4,238.2 795.6,238.1 796.1,238.0 796.2,238.0 796.4,237.9 797.2,237.9 797.4,237.8 797.6,237.8 797.7,237.7 797.9,237.7 798.4,237.6 798.6,237.6 798.8,237.5 798.9,237.4 799.1,237.4 799.6,237.3 799.8,237.3 799.9,237.2 800.1,237.2 800.3,237.1 800.8,237.1 800.9,237.0 801.1,237.0 801.3,236.9 801.4,236.8 801.9,236.8 802.1,236.7 802.3,236.7 802.4,236.6 802.6,236.6 803.1,236.5 803.3,236.5 803.4,236.4 803.6,236.4 803.8,236.3 805.6,236.2 805.8,236.2 806.0,236.1 806.1,236.1 806.6,236.0 806.8,236.0 807.0,235.9 807.1,235.9 807.3,235.8 807.8,235.8 808.0,235.7 808.1,235.7 808.3,235.6 808.5,235.5 809.0,235.5 809.1,235.4 809.3,235.4 809.5,235.3 809.7,235.3 810.2,235.2 810.3,235.2 810.5,235.1 810.7,235.1 810.8,235.0 811.3,234.9 811.5,234.9 811.7,234.8 811.8,234.8 812.0,234.7 812.7,234.7 812.8,234.6 813.0,234.6 813.2,234.5 813.7,234.5 813.8,234.4 814.0,234.3 814.2,234.3 814.3,234.2 814.8,234.2 815.0,234.1 815.2,234.1 815.4,234.0 815.5,234.0 816.0,233.9 816.2,233.9 816.4,233.8 816.5,233.7 817.5,233.7 817.7,233.6 817.9,233.6 818.4,233.5 818.5,233.5 818.7,233.4 818.9,233.4 819.0,233.3 819.5,233.3 819.7,233.2 819.9,233.2 820.0,233.1 820.2,233.0 820.7,233.0 820.9,232.9 821.1,232.9 821.2,232.8 821.4,232.8 821.9,232.7 822.1,232.7 822.2,232.6 822.4,232.6 822.6,232.5 823.1,232.4 823.2,232.4 823.4,232.3 823.6,232.3 823.7,232.2 824.2,232.2 824.4,232.1 824.6,232.1 824.7,232.0 825.4,232.0 825.6,231.9 825.7,231.8 825.9,231.8 826.1,231.7 826.6,231.7 826.8,231.6 826.9,231.6 827.1,231.5 827.3,231.5 827.8,231.4 827.9,231.4 828.1,231.3 828.3,231.2 828.4,231.2 828.9,231.1 829.1,231.1 829.3,231.0 829.4,231.0 829.6,230.9 830.1,230.9 830.3,230.8 830.4,230.8 830.6,230.7 830.8,230.7 831.3,230.6 831.4,230.5 831.6,230.5 831.8,230.4 832.0,230.4 832.5,230.3 832.6,230.3 832.8,230.2 833.0,230.2 833.1,230.1 833.6,230.1 833.8,230.0 834.0,229.9 834.1,229.9 834.3,229.8 834.8,229.8 835.0,229.7 835.1,229.7 835.3,229.6 835.5,229.6 836.0,229.5 836.1,229.5 836.3,229.4 836.5,229.3 836.6,229.3 837.1,229.2 837.3,229.2 837.5,229.1 837.7,229.1 837.8,229.0 838.3,229.0 838.5,228.9 838.7,228.9 838.8,228.8 839.0,228.7 839.5,228.7 839.7,228.6 839.8,228.6 840.0,228.5" fill="none" stroke="#7d8a88" stroke-width="2" stroke-linejoin="round" stroke-linecap="round"/>
<polyline points="64.0,396.0 64.2,395.9 64.3,395.9 64.8,395.8 65.0,395.8 65.2,395.7 65.3,395.7 65.5,395.6 66.0,395.6 66.2,395.5 66.3,395.5 66.5,395.4 67.9,395.3 68.4,395.3 68.5,395.2 68.7,395.2 68.9,395.1 69.0,395.1 69.5,395.0 69.7,394.9 69.9,394.9 70.0,394.8 70.2,394.8 70.7,394.7 70.9,394.7 71.0,394.6 71.2,394.6 71.4,394.5 71.9,394.4 72.0,394.4 72.2,394.3 72.4,394.3 72.6,394.2 73.1,394.2 73.2,394.1 73.4,394.1 73.6,394.0 73.7,394.0 74.2,393.9 74.4,393.8 74.6,393.8 74.7,393.8 74.9,393.7 75.4,393.6 75.6,393.6 75.7,393.5 75.9,393.5 76.1,393.4 76.6,393.4 76.7,393.3 76.9,393.3 77.1,393.2 77.2,393.1 77.9,393.1 78.1,393.0 78.3,392.9 78.4,392.9 78.9,392.8 79.1,392.8 79.3,392.8 79.4,392.7 79.6,392.6 80.1,392.6 80.3,392.5 80.4,392.5 80.6,392.4 80.8,392.4 81.3,392.3 81.4,392.3 81.6,392.2 82.4,392.2 82.6,392.1 82.8,392.1 82.9,392.0 83.1,392.0 83.6,391.9 83.8,391.8 84.0,391.8 84.1,391.7 84.3,391.7 84.8,391.7 85.0,391.6 85.1,391.5 85.3,391.5 85.5,391.4 86.0,391.3 86.1,391.3 86.3,391.2 86.5,391.2 86.6,391.1 87.3,391.1 87.5,391.1 87.6,391.0 87.8,390.9 88.3,390.9 88.5,390.8 88.6,390.7 88.8,390.7 89.0,390.6 89.5,390.5 89.7,390.5 89.8,390.5 90.0,390.4 90.2,390.3 90.7,390.2 90.8,390.2 91.0,390.1 91.2,390.0 91.3,390.0 91.8,389.9 92.0,389.9 92.2,389.8 92.3,389.7 92.5,389.7 93.0,389.6 93.2,389.6 93.3,389.5 93.5,389.5 93.7,389.4 94.2,389.3 94.3,389.3 94.5,389.3 94.7,389.2 94.9,389.2 95.4,389.1 95.5,389.0 95.7,388.9 95.9,388.9 96.0,388.8 96.5,388.6 96.7,388.6 96.9,388.6 97.0,388.5 97.2,388.5 97.7,388.4 97.9,388.4 98.0,388.3 98.2,388.3 98.4,388.2 98.9,388.1 99.0,388.1 99.2,388.0 99.4,388.0 99.5,387.9 100.1,387.8 100.2,387.8 100.4,387.7 100.6,387.7 100.7,387.6 101.2,387.6 101.4,387.5 101.6,387.5 101.7,387.4 101.9,387.3 102.4,387.3 102.6,387.2 102.7,387.1 102.9,387.0 103.1,387.0 103.7,386.9 103.9,386.9 104.1,386.9 104.2,386.8 104.7,386.8 104.9,386.8 105.1,386.7 105.2,386.7 105.4,386.6 105.9,386.6 106.1,386.6 106.3,386.5 106.4,386.4 106.6,386.4 107.1,386.3 107.3,386.2 108.6,386.2 108.8,386.1 108.9,386.1 109.4,386.1 109.6,386.1 109.8,386.0 109.9,386.0 110.1,386.0 110.6,385.9 110.8,385.8 110.9,385.7 111.1,385.7 111.3,385.7 111.8,385.6 112.0,385.5 112.1,385.4 112.3,385.3 112.5,385.2 113.0,385.2 113.1,385.2 113.3,385.2 113.5,385.1 113.6,385.0 114.1,384.8 114.3,384.8 114.5,384.7 114.6,384.7 114.8,384.6 115.3,384.5 115.5,384.5 115.6,384.4 115.8,384.4 116.0,384.2 116.5,384.0 116.6,383.9 116.8,383.8 117.0,383.7 117.2,383.5 117.7,383.6 117.8,383.2 118.0,383.1 118.2,382.7 118.3,382.7 118.8,382.4 119.0,382.6 119.2,382.3 119.3,382.4 119.5,382.4 120.0,382.3 120.2,382.1 120.3,382.0 120.5,381.9 120.7,381.6 121.2,381.6 121.3,381.7 121.5,381.8 121.7,381.6 121.8,381.2 122.4,381.2 122.5,381.2 122.7,380.9 123.5,380.7 123.7,380.7 123.9,380.7 124.0,380.7 124.2,380.6 124.7,380.6 124.9,380.6 125.0,380.6 125.2,380.3 125.4,380.1 125.9,380.7 126.0,380.4 126.2,380.0 126.4,379.9 126.5,379.7 127.0,379.7 127.2,379.7 127.4,379.8 127.5,379.9 127.7,380.0 128.2,380.0 128.4,379.8 128.6,379.8 128.7,379.8 128.9,379.8 129.4,379.8 129.6,379.7 129.7,379.5 129.9,379.5 130.1,379.3 130.6,379.2 130.7,379.1 132.1,379.1 132.2,378.9 132.4,378.8 132.9,378.7 133.1,378.8 133.2,378.7 133.4,378.8 133.6,378.8 134.1,378.7 134.3,378.8 134.4,378.8 134.6,378.6 134.8,378.5 135.3,378.2 135.4,378.1 135.6,377.9 135.8,377.7 135.9,377.6 136.4,377.3 136.6,377.3 136.8,377.3 136.9,377.3 137.1,377.2 137.6,376.9 137.8,376.9 137.9,376.8 138.1,376.7 138.3,376.5 139.0,376.2 139.1,376.1 139.3,376.2 139.5,375.9 140.0,375.7 140.1,375.7 140.3,375.7 140.5,375.3 140.6,375.0 141.1,375.2 141.3,374.9 141.5,374.6 141.6,374.5 141.8,374.5 142.3,374.2 142.5,374.3 142.6,374.1 142.8,374.1 143.5,374.1 143.6,374.4 143.8,374.5 144.0,374.7 144.1,374.5 144.7,374.0 144.8,373.8 145.0,373.9 145.2,373.8 145.3,373.9 145.8,373.8 146.0,373.4 146.2,373.4 146.3,373.1 146.5,372.8 147.0,372.4 147.2,372.2 147.3,372.2 147.5,372.9 147.7,372.9 148.2,372.3 148.3,372.1 148.5,372.2 148.7,371.9 148.8,371.9 149.3,371.5 149.5,371.6 149.7,371.5 149.8,371.4 150.0,371.3 150.5,371.6 150.7,371.9 150.9,371.7 151.0,372.1 151.2,372.7 151.9,372.2 152.0,371.9 152.2,372.3 152.4,373.1 152.9,373.4 153.0,372.8 153.2,373.4 153.4,373.6 153.5,374.0 154.0,373.7 154.2,374.1 154.4,375.3 154.5,374.2 154.7,373.3 155.2,373.0 155.4,373.0 155.6,373.4 155.7,373.2 155.9,372.7 156.4,372.8 156.6,372.7 156.7,372.8 156.9,372.4 157.1,372.6 157.6,373.7 157.7,373.6 157.9,373.1 158.1,373.3 158.2,373.3 158.7,373.2 158.9,372.8 159.1,373.0 159.2,373.0 159.4,372.8 159.9,372.2 160.1,371.9 160.2,371.8 160.4,371.5 160.6,371.6 161.1,371.4 161.3,372.0 161.4,371.7 161.6,371.9 161.8,372.3 162.3,373.7 162.4,374.4 162.6,374.2 162.8,373.6 162.9,373.0 163.4,373.0 163.6,373.0 163.8,373.1 164.6,373.3 164.8,373.0 164.9,372.7 165.1,373.0 165.3,372.9 165.8,373.1 165.9,373.3 166.1,372.7 166.3,372.7 166.4,372.6 167.0,372.5 167.1,372.3 167.3,372.6 167.5,372.4 167.6,372.5 168.1,372.5 168.3,372.9 168.5,372.7 169.8,372.0 170.0,371.7 170.5,371.2 170.6,371.3 170.8,371.2 171.0,370.9 171.1,370.7 171.6,370.6 171.8,370.4 172.0,370.6 172.2,370.5 172.3,370.1 172.8,370.0 173.0,369.9 173.2,370.0 173.3,370.0 173.5,370.0 174.0,370.2 174.2,370.2 174.3,369.6 174.5,369.4 174.7,369.2 175.2,369.1 175.3,369.1 175.5,369.1 175.7,369.2 175.8,369.4 176.3,369.3 176.5,369.2 176.7,369.3 176.8,368.9 177.0,368.8 177.5,368.9 177.7,368.8 177.9,368.7 178.0,368.7 178.2,369.3 178.7,369.2 178.9,369.0 179.0,368.5 179.2,368.6 179.4,368.8 179.9,368.4 180.0,368.6 180.2,368.6 180.4,368.6 180.5,368.5 181.0,368.3 181.2,368.3 181.4,368.2 181.5,367.8 181.7,367.9 182.2,367.5 182.4,367.4 182.5,367.3 182.7,367.3 182.9,367.2 183.4,367.5 183.6,367.3 183.7,367.2 183.9,367.3 184.6,367.9 184.7,368.0 184.9,367.7 185.1,367.8 185.2,368.1 185.7,368.6 185.9,368.6 186.1,368.7 186.2,368.6 186.4,368.8 186.9,368.8 187.1,368.3 187.2,368.6 187.4,368.9 187.6,368.6 188.1,368.6 188.2,369.1 188.4,369.0 188.6,369.3 188.8,368.9 189.3,368.8 189.4,368.5 189.6,368.5 189.8,367.9 189.9,367.9 191.6,367.6 191.8,367.4 191.9,367.2 192.1,367.2 192.3,367.0 192.8,366.9 192.9,366.9 193.1,366.7 193.3,367.1 193.4,366.9 193.9,367.1 194.1,366.8 194.3,366.3 194.5,366.1 194.6,365.8 195.1,365.7 195.3,365.7 195.5,365.9 195.6,366.1 195.8,365.9 196.3,365.6 196.5,365.8 196.6,365.6 196.8,365.3 197.0,365.1 197.5,364.9 197.6,364.8 197.8,364.8 198.0,365.2 198.1,365.0 198.6,365.1 198.8,365.1 199.0,364.6 199.1,364.7 199.3,364.5 200.0,364.4 200.2,364.4 200.3,364.4 200.5,364.4 201.0,364.1 201.2,364.0 201.3,363.9 201.5,363.8 201.7,363.8 202.2,363.9 202.3,363.6 202.5,363.7 202.7,363.5 202.8,363.6 203.3,363.7 203.5,363.5 203.7,363.4 203.8,363.2 204.0,363.1 204.7,362.6 204.8,362.8 205.0,362.9 205.2,363.0 205.7,363.0 205.9,363.1 206.0,362.8 206.2,362.8 206.4,362.8 206.9,362.7 207.0,362.7 207.2,362.8 207.4,362.9 207.5,362.8 208.0,362.7 208.2,362.8 208.4,362.8 208.5,362.6 208.7,362.6 209.2,362.4 209.4,361.9 209.5,361.9 209.7,361.8 209.9,361.7 210.4,361.6 210.5,361.5 210.7,361.3 211.6,361.4 211.7,361.4 211.9,361.0 212.1,360.9 212.2,361.0 212.7,360.9 212.9,360.9 213.1,361.0 213.2,360.9 213.4,360.5 213.9,360.2 214.1,360.2 214.2,360.0 214.4,359.7 214.6,359.4 215.1,359.1 215.2,359.1 215.4,358.7 215.6,358.6 215.7,358.6 216.2,358.2 216.4,357.8 216.6,357.8 216.8,357.9 216.9,357.6 217.4,357.7 217.6,357.5 217.8,357.6 217.9,357.3 218.1,357.4 218.6,357.3 218.8,357.0 218.9,357.2 219.1,357.1 219.3,356.8 219.8,356.8 219.9,356.6 220.1,356.7 220.3,356.8 220.4,356.5 220.9,356.5 221.1,356.4 221.3,356.2 221.4,356.3 221.6,356.1 222.1,355.7 222.3,355.7 222.5,355.8 222.6,355.7 222.8,355.6 223.3,355.8 223.5,355.7 223.6,355.6 223.8,355.8 224.0,355.7 224.5,355.7 224.6,355.4 224.8,355.3 225.0,355.5 225.1,355.3 225.6,354.9 225.8,354.5 226.0,354.2 226.1,354.2 226.3,354.3 226.8,355.0 227.0,354.8 227.1,354.9 228.0,354.8 228.2,354.7 228.3,354.4 228.5,354.0 228.7,353.9 229.2,354.2 229.3,354.1 229.5,354.2 229.7,354.2 229.8,353.9 231.5,354.1 231.7,353.9 231.8,353.9 232.0,353.5 232.2,353.3 232.7,353.5 232.8,353.2 233.0,353.1 233.2,353.0 233.4,352.9 233.9,352.6 234.0,352.5 234.2,352.4 234.4,352.5 234.5,352.5 235.0,352.4 235.2,352.2 235.4,352.2 235.5,352.1 235.7,352.3 236.2,352.1 236.4,351.8 236.5,352.0 236.7,351.7 236.9,351.8 237.4,352.2 237.5,352.0 237.7,351.4 237.9,351.2 238.0,351.3 238.5,351.1 238.7,350.6 238.9,350.3 239.1,349.6 239.2,349.2 239.7,349.3 239.9,349.5 240.1,349.4 240.2,349.1 240.4,349.2 240.9,348.9 241.1,348.4 241.2,347.8 241.4,347.9 241.6,348.2 242.1,348.2 242.2,347.3 242.4,347.6 242.6,348.4 242.7,347.9 243.2,347.5 243.4,347.4 243.6,346.2 243.7,346.4 243.9,347.2 244.4,347.0 244.6,347.7 244.8,349.5 244.9,350.0 245.1,350.3 245.8,351.5 245.9,351.1 246.1,351.1 246.3,351.2 246.8,351.0 246.9,351.0 247.1,351.0 247.3,351.0 247.4,351.0 247.9,350.8 248.1,350.8 248.3,350.6 248.4,350.8 248.6,350.6 249.1,350.8 249.3,350.8 249.4,350.7 249.6,350.5 251.0,350.5 251.5,350.1 251.6,350.0 251.8,349.8 252.0,349.7 252.1,349.5 252.6,349.2 252.8,349.2 253.0,349.1 253.1,348.9 253.3,348.9 253.8,348.6 254.0,348.5 254.1,348.3 254.3,348.2 254.5,347.9 255.0,348.0 255.1,347.8 255.3,347.6 255.5,346.6 255.7,346.7 256.2,346.0 256.3,346.5 256.5,346.9 256.7,347.5 256.8,347.1 257.3,346.6 257.5,346.5 257.7,346.7 257.8,346.1 258.0,346.2 258.5,346.1 258.7,345.9 258.8,346.5 259.0,346.4 259.2,346.4 259.7,346.5 259.8,346.3 260.0,346.2 260.2,346.3 260.3,346.0 261.2,345.6 261.4,345.7 261.5,345.6 262.0,345.6 262.2,345.5 262.4,345.4 262.5,345.3 262.7,345.5 263.2,345.7 263.4,345.4 263.5,345.6 263.7,345.6 263.9,345.4 264.4,345.6 264.5,345.2 264.7,345.0 264.9,345.3 265.0,345.1 265.7,345.2 265.9,345.2 266.0,345.5 266.2,345.6 266.7,345.6 266.9,345.5 267.1,345.7 267.2,345.5 267.4,345.4 267.9,345.2 268.1,344.8 268.2,345.0 268.4,345.2 268.6,345.2 269.1,344.9 269.2,344.7 269.4,344.8 269.6,344.2 269.7,344.0 270.6,344.2 270.7,344.2 270.9,344.0 271.4,343.9 271.6,343.6 271.7,343.4 271.9,343.3 272.1,343.3 272.6,343.4 272.8,343.2 272.9,343.3 273.1,343.4 273.3,343.4 273.8,343.2 273.9,343.0 274.1,342.9 274.3,342.7 274.4,342.5 274.9,342.2 275.1,342.2 275.3,342.5 275.4,342.3 275.6,342.5 276.1,342.6 276.3,342.8 276.4,342.5 276.6,342.4 276.8,342.5 277.3,342.5 277.5,342.3 277.6,342.3 277.8,341.9 278.0,341.8 278.5,341.8 278.6,341.6 278.8,341.1 279.0,340.9 279.1,340.9 279.6,340.8 279.8,340.8 280.0,341.0 280.1,340.7 280.3,340.7 280.8,340.5 281.0,340.3 281.1,340.2 281.3,340.5 281.5,340.5 282.0,340.3 282.1,340.3 282.3,340.3 282.5,340.2 282.6,340.6 283.2,340.3 283.3,340.2 283.5,340.3 283.7,339.9 283.8,340.0 284.3,340.0 284.5,339.9 284.7,339.7 284.8,339.9 285.0,339.5 285.5,339.1 285.7,339.0 285.8,339.2 286.0,339.2 286.2,338.9 286.7,338.6 286.8,338.6 287.0,338.6 287.2,338.7 287.3,338.6 287.8,338.6 288.0,338.5 288.2,338.4 288.3,338.4 288.5,338.2 289.0,338.2 289.2,338.2 289.4,338.0 289.5,338.1 289.7,338.0 290.2,338.2 290.4,337.8 290.5,337.9 290.7,337.8 290.9,337.5 292.5,337.0 292.7,336.9 292.9,336.7 293.0,336.5 293.2,336.5 293.7,336.5 293.9,336.4 294.1,336.3 294.2,336.4 294.4,336.2 294.9,336.1 295.1,335.9 295.2,335.8 295.4,335.6 295.6,335.4 296.1,335.3 296.2,335.2 296.4,335.2 296.6,335.1 296.7,335.0 297.2,334.7 297.4,334.5 297.6,334.6 297.7,334.3 297.9,334.1 298.4,334.1 298.6,334.2 298.7,334.4 298.9,334.2 299.1,333.9 299.6,333.6 299.8,333.2 299.9,333.1 300.1,333.8 300.3,333.7 300.8,334.0 300.9,333.8 301.1,333.5 301.3,333.8 301.4,333.7 301.9,333.0 302.1,333.2 302.3,333.6 302.4,334.0 302.6,333.6 303.1,333.1 303.3,333.3 303.4,333.1 303.6,332.9 303.8,333.3 304.3,333.1 304.4,332.4 304.6,332.6 304.8,332.4 304.9,332.4 305.5,332.4 305.6,332.4 305.8,332.6 306.0,332.5 306.1,332.2 306.8,331.8 307.0,331.5 307.1,331.4 307.3,331.2 307.8,330.8 308.0,330.6 308.1,330.4 308.3,330.3 308.5,329.6 309.0,329.4 309.1,329.2 309.3,329.4 309.5,329.1 309.6,329.3 310.1,328.8 310.3,328.4 310.5,328.3 310.6,328.4 310.8,328.4 311.3,328.7 311.5,329.3 311.7,329.3 311.8,329.4 312.0,329.4 312.5,330.2 312.7,332.0 312.8,332.4 313.0,332.3 313.2,333.9 313.7,333.3 313.8,332.5 314.0,332.0 315.3,331.5 315.5,331.1 316.0,330.1 316.2,330.3 316.4,330.8 316.5,330.9 316.7,331.3 317.2,331.2 317.4,330.6 317.5,330.7 317.7,330.3 317.9,330.1 318.4,329.5 318.5,329.9 318.7,330.0 318.9,329.8 319.0,330.2 319.5,330.1 319.7,330.2 319.9,330.2 320.0,330.2 320.2,331.2 320.7,331.5 320.9,331.0 321.0,331.9 321.2,331.7 321.4,331.6 321.9,331.6 322.1,331.9 322.2,331.8 323.1,331.7 323.2,331.0 323.4,330.8 323.6,330.9 323.7,331.0 324.2,331.3 324.4,331.3 324.6,331.0 324.7,330.7 324.9,331.1 325.4,331.2 325.6,330.6 325.7,331.0 325.9,331.4 326.1,330.9 326.9,331.0 327.1,330.9 327.2,330.9 327.8,330.2 327.9,329.9 328.1,329.9 328.3,329.5 328.4,329.4 328.9,329.0 329.1,329.1 329.3,329.5 329.4,329.6 329.6,329.3 330.1,328.8 330.3,328.8 330.4,329.2 330.6,329.1 330.8,329.0 331.3,328.8 331.4,329.0 331.6,329.7 331.8,328.9 331.9,329.1 332.4,328.6 332.6,328.3 332.8,328.3 333.0,328.0 333.1,328.4 333.6,328.0 333.8,327.6 334.0,327.7 334.1,327.8 334.3,327.5 335.0,329.0 335.1,328.7 335.3,328.7 335.5,328.6 336.0,328.6 336.1,329.0 336.3,329.6 336.5,329.8 336.6,328.7 337.1,329.3 337.3,328.9 337.5,329.3 337.6,329.2 337.8,328.7 338.3,327.8 338.5,327.6 338.7,327.8 338.8,327.1 339.0,327.1 339.5,327.1 339.7,327.4 339.8,327.3 340.0,327.0 340.2,326.5 340.7,326.3 340.8,325.5 341.0,325.4 341.2,325.4 341.3,325.1 341.8,325.5 342.0,325.8 342.2,326.0 342.3,326.6 342.5,326.3 343.0,326.2 343.2,325.1 343.3,325.7 343.5,325.5 343.7,325.4 344.2,325.6 344.4,325.7 344.5,325.9 344.7,326.6 344.9,326.5 345.4,326.1 345.5,325.7 345.7,325.7 345.9,325.6 346.0,325.5 346.5,324.7 346.7,324.4 346.9,324.4 347.0,324.4 347.2,324.6 347.7,324.8 347.9,324.5 348.0,325.0 348.2,325.2 348.4,325.0 348.9,325.2 349.0,325.1 349.2,325.0 349.4,324.7 349.6,324.4 350.1,324.7 350.2,324.4 350.4,323.9 350.6,323.8 350.7,322.8 351.4,323.1 351.6,322.6 351.7,323.0 351.9,322.8 353.6,323.8 353.7,323.6 353.9,323.5 354.1,325.9 354.2,325.0 354.7,325.2 354.9,325.2 355.1,324.6 355.3,325.1 355.4,324.6 355.9,323.5 356.1,324.5 356.3,324.4 356.4,324.8 356.6,324.9 357.1,325.7 357.3,325.4 357.4,324.9 357.6,324.5 357.8,323.2 358.3,323.8 358.4,323.5 358.6,323.5 358.8,323.0 358.9,323.4 359.4,323.3 359.6,323.7 359.8,323.9 359.9,323.7 360.1,323.5 360.6,323.0 360.8,323.8 361.0,324.1 361.1,324.1 361.3,324.6 361.8,324.5 362.0,324.3 362.1,323.8 362.3,323.4 362.5,323.0 363.0,321.9 363.1,322.3 363.3,322.9 363.5,323.6 363.6,323.4 364.1,324.0 364.3,323.7 364.5,323.5 364.6,323.1 364.8,323.7 365.3,323.9 365.5,324.6 365.6,324.7 365.8,325.4 366.0,325.6 366.5,325.9 366.7,326.7 366.8,326.8 367.0,325.8 367.2,325.4 368.0,325.5 368.2,325.2 368.3,324.8 368.8,324.2 369.0,323.9 369.2,323.6 369.3,323.8 369.5,323.5 370.0,323.8 370.2,323.2 370.3,323.4 370.5,323.6 370.7,322.6 371.2,322.3 371.3,322.6 371.5,322.8 371.7,322.6 371.9,322.3 372.4,322.2 372.5,322.1 372.7,322.1 372.9,321.5 373.0,320.6 374.7,320.3 374.9,319.8 375.0,319.0 375.2,318.8 375.4,319.2 375.9,317.9 376.0,317.9 376.2,317.8 376.4,317.8 376.5,317.3 377.0,315.6 377.2,316.2 377.4,316.4 377.6,316.6 377.7,315.8 378.2,315.8 378.4,315.8 378.6,315.5 378.7,316.1 378.9,316.9 379.4,316.3 379.6,315.7 379.7,315.7 379.9,315.6 380.1,315.2 380.6,314.3 380.7,314.2 380.9,314.2 381.1,314.2 381.2,313.7 381.7,314.8 381.9,314.9 382.1,314.4 382.2,314.7 382.4,313.8 382.9,312.8 383.1,312.6 383.3,311.9 383.4,311.6 384.1,311.2 384.3,311.1 384.4,311.1 384.6,311.4 384.8,311.6 385.3,311.8 385.4,310.7 385.6,311.0 385.8,311.4 385.9,310.6 386.4,311.2 386.6,311.2 386.8,310.9 386.9,311.3 387.1,311.5 387.6,311.2 387.8,310.9 388.8,312.8 389.0,312.3 389.1,313.0 389.3,313.3 389.5,312.4 390.0,312.5 390.1,312.6 390.3,311.9 390.5,311.6 390.6,311.8 391.1,312.2 391.3,312.0 391.5,311.9 391.6,312.4 391.8,312.4 392.3,312.0 392.5,311.7 392.6,312.1 392.8,312.2 393.0,312.3 393.5,312.2 393.6,312.0 393.8,311.1 394.0,311.1 394.7,310.0 394.8,309.3 395.0,309.3 395.2,309.2 395.3,308.8 395.8,309.0 396.0,308.8 396.2,308.2 396.3,306.5 396.5,306.2 397.0,305.8 397.2,305.6 397.3,306.3 397.5,305.9 397.7,305.9 398.2,305.0 398.3,304.8 398.5,304.1 398.7,304.2 398.8,304.0 399.4,305.0 399.5,305.4 399.7,305.2 399.9,304.4 400.0,304.2 400.5,303.7 400.7,303.9 400.9,304.3 401.0,304.4 401.2,303.3 401.7,303.9 401.9,303.8 402.0,303.3 402.2,302.7 402.4,302.9 402.9,302.6 403.0,302.3 403.2,302.4 403.4,303.5 403.5,303.3 404.0,302.7 404.2,303.6 404.4,302.9 404.5,302.0 404.7,301.6 405.2,301.2 405.4,301.2 405.6,301.5 405.7,301.7 405.9,301.4 406.4,300.3 406.6,300.3 406.7,300.5 406.9,300.0 407.1,299.6 407.6,299.4 407.7,298.6 407.9,298.7 408.1,298.2 408.2,298.2 408.7,298.0 408.9,297.8 409.1,297.1 409.2,296.5 409.4,297.0 409.9,296.7 410.1,297.4 410.2,297.4 410.4,296.7 411.1,297.0 411.3,297.5 411.4,297.1 411.6,296.9 411.8,296.7 412.3,296.7 412.4,296.4 412.6,296.7 412.8,297.1 412.9,297.3 413.4,297.7 414.8,297.9 414.9,297.7 415.1,297.6 415.3,296.9 415.8,297.0 415.9,296.9 416.1,296.8 416.3,296.6 416.5,297.0 417.0,296.9 417.1,296.7 417.3,296.8 417.5,296.7 417.6,296.1 418.1,295.7 418.3,295.9 418.5,296.1 418.6,295.9 418.8,295.0 419.3,294.7 419.5,294.6 419.6,295.4 419.8,295.0 420.0,295.7 420.5,296.1 420.6,296.3 420.8,296.0 421.0,295.7 421.1,295.7 421.7,294.9 421.8,293.9 422.0,294.6 422.2,295.1 422.3,295.4 422.8,295.1 423.0,294.7 423.2,294.5 423.3,294.4 423.5,294.6 424.0,294.0 424.2,294.4 424.3,294.2 424.5,294.0 424.7,293.9 425.2,293.8 425.3,293.8 425.5,294.2 425.7,293.8 425.8,293.4 426.3,292.9 426.5,292.1 426.7,292.4 426.8,292.6 427.0,292.2 427.5,292.1 427.7,291.7 427.9,291.5 428.0,291.0 428.2,290.7 428.7,290.3 428.9,290.1 429.2,289.4 429.4,288.5 429.9,288.6 430.0,288.5 430.2,288.6 430.4,288.9 430.5,288.4 431.0,288.1 431.2,288.3 431.4,288.4 431.5,288.5 431.7,288.3 432.2,288.0 432.4,288.2 432.5,288.0 432.7,288.9 434.6,291.2 434.7,290.3 434.9,289.9 435.1,288.6 435.2,288.4 435.7,288.0 435.9,287.1 436.1,286.2 436.2,284.3 436.4,285.9 436.9,284.8 437.1,285.4 437.2,285.0 437.4,283.9 437.6,283.4 438.1,283.7 438.3,284.5 438.4,285.6 438.6,285.8 438.8,288.6 439.3,287.5 439.4,287.7 439.6,287.1 439.8,285.8 439.9,286.4 440.4,289.8 440.6,288.4 440.8,289.3 440.9,291.5 441.1,293.7 441.6,296.7 441.8,298.8 441.9,299.7 442.1,300.1 442.3,298.2 442.8,301.3 442.9,297.4 443.1,294.6 443.3,295.3 443.4,294.6 444.0,295.7 444.1,295.1 444.3,296.3 444.5,295.4 444.6,295.6 445.3,292.1 445.5,292.8 445.6,291.6 445.8,291.4 446.3,291.9 446.5,290.2 446.6,290.1 446.8,290.0 447.0,289.5 447.5,289.5 447.6,290.2 447.8,290.3 448.0,289.3 448.1,289.4 448.6,288.8 448.8,288.4 449.0,287.7 449.1,286.3 450.2,286.7 450.3,287.3 450.5,286.1 451.0,285.8 451.2,286.4 451.3,286.6 451.5,287.2 451.7,286.2 452.2,284.5 452.3,283.9 452.5,284.0 452.7,284.5 452.8,285.4 453.3,284.8 453.5,283.5 453.7,284.1 453.8,283.2 454.0,283.3 454.5,282.0 454.7,281.8 454.9,281.6 455.0,281.7 455.2,281.2 455.7,280.7 455.9,279.9 456.0,279.6 456.2,280.6 456.4,281.8 456.9,283.5 457.0,281.0 457.2,280.5 457.4,280.6 457.5,279.8 458.0,279.7 458.2,279.2 458.4,278.5 459.2,280.0 459.4,279.4 459.5,277.7 459.7,276.8 459.9,275.7 460.4,272.7 460.6,273.3 460.7,272.7 460.9,271.7 461.1,273.2 461.6,271.1 461.7,271.8 461.9,271.6 462.1,273.7 462.2,273.3 462.7,272.2 462.9,271.0 463.1,269.7 463.2,269.1 463.4,271.3 463.9,269.9 464.1,269.4 464.2,268.2 464.4,268.7 464.6,267.6 465.1,267.1 465.2,266.6 465.4,265.1 465.6,264.6 465.7,264.2 466.3,264.0 466.4,265.6 466.6,269.0 466.8,267.8 466.9,266.7 467.4,265.3 467.6,264.4 467.8,265.2 467.9,267.1 468.1,266.4 468.6,266.1 468.8,264.7 468.9,265.7 469.1,264.2 469.3,262.8 469.8,262.5 469.9,262.3 470.1,262.0 470.3,260.2 470.4,263.5 470.9,266.5 471.1,265.4 471.3,267.9 471.5,267.0 471.6,267.2 472.1,266.9 472.3,266.3 472.5,266.4 472.6,267.8 472.8,266.3 473.3,267.3 473.5,269.3 473.6,269.3 473.8,271.4 474.0,270.5 474.5,269.7 474.6,268.5 474.8,269.0 476.3,266.8 476.8,264.7 477.0,263.9 477.2,264.7 477.3,265.5 477.5,265.2 478.0,265.4 478.2,266.0 478.3,265.6 478.5,266.2 478.7,266.4 479.2,267.1 479.3,266.7 479.5,266.9 479.7,267.8 479.8,269.6 480.3,268.6 480.5,267.1 480.7,265.8 480.8,264.5 481.0,263.9 481.5,262.4 481.7,263.9 481.8,264.1 482.0,264.1 482.2,264.3 482.7,263.2 482.9,263.5 483.0,264.2 483.2,264.0 483.4,264.0 483.9,263.4 484.0,264.0 484.2,264.5 484.4,264.4 484.5,263.8 485.0,265.2 485.2,263.4 485.4,263.0 485.5,262.3 485.7,262.2 486.2,262.5 486.4,262.0 486.5,262.3 486.7,263.1 486.9,263.5 487.4,262.9 487.5,262.8 487.7,262.0 487.9,261.0 488.1,260.7 488.6,260.0 488.7,261.6 488.9,261.2 489.1,260.9 489.2,260.1 489.7,259.6 489.9,259.5 490.1,259.3 490.2,258.0 490.9,257.2 491.1,256.8 491.2,256.1 491.4,254.6 491.6,254.3 492.1,256.2 492.2,254.3 492.4,254.6 492.6,255.5 492.7,255.8 493.2,256.2 493.4,256.4 493.6,256.0 493.8,253.9 493.9,254.3 494.4,253.5 494.6,254.9 494.8,254.7 494.9,257.4 495.1,257.4 495.6,256.6 495.8,255.4 495.9,255.3 496.1,255.6 496.3,255.1 496.8,254.1 496.9,252.0 497.1,250.9 498.4,252.4 498.6,252.4 499.1,253.9 499.3,253.6 499.5,255.3 499.6,254.4 499.8,257.7 500.3,256.7 500.5,257.2 500.6,256.0 500.8,258.9 501.0,259.9 501.5,260.1 501.6,260.6 501.8,260.0 502.0,257.6 502.1,258.0 502.6,258.2 502.8,257.4 503.0,257.2 503.1,256.4 503.3,258.4 503.8,258.1 504.0,258.0 504.1,259.1 504.3,259.0 504.5,257.5 505.0,257.0 505.2,256.7 505.3,257.7 505.5,255.7 505.7,254.2 506.3,253.9 506.5,254.1 506.7,253.6 506.8,253.9 507.3,254.5 507.5,254.9 507.7,253.9 507.8,254.2 508.0,253.3 508.5,251.8 508.7,252.7 508.8,252.4 509.0,252.1 509.2,252.1 509.7,252.3 509.8,251.8 510.0,251.8 510.2,250.9 510.4,251.5 511.4,251.8 511.5,251.5 512.0,251.2 512.2,251.8 512.4,251.8 512.5,253.4 512.7,251.2 513.2,249.7 513.4,249.2 513.5,250.0 513.7,249.9 513.9,249.6 514.4,249.1 514.5,247.4 514.7,247.1 514.9,247.5 515.0,247.6 515.5,247.3 515.7,246.8 515.9,247.9 516.1,248.3 516.2,248.6 516.7,247.7 516.9,247.8 517.1,247.7 517.2,247.7 517.4,247.5 518.1,248.4 518.2,249.2 518.4,250.1 518.6,250.2 519.1,250.9 519.2,249.4 519.4,248.6 519.6,248.7 519.7,247.7 520.2,247.4 520.4,248.0 520.6,247.9 520.7,247.2 520.9,247.9 521.4,247.3 521.6,246.7 521.8,246.3 521.9,246.9 522.1,246.9 522.6,245.8 522.8,245.4 522.9,246.0 523.1,244.9 523.3,245.6 523.8,246.2 523.9,246.1 524.1,245.4 524.3,245.3 524.4,245.5 524.9,246.5 525.1,248.2 525.3,247.7 525.4,246.8 525.6,247.3 526.1,246.1 526.3,246.3 526.4,245.5 526.6,245.9 526.8,245.9 527.3,246.3 527.5,246.0 527.6,246.2 527.8,246.0 528.0,245.7 528.5,245.5 528.6,246.0 528.8,245.4 529.0,246.8 529.1,247.1 529.6,245.6 529.8,244.4 530.0,244.7 530.1,245.6 530.3,244.9 530.8,244.7 531.0,244.2 531.1,243.5 531.3,243.9 531.5,243.8 532.0,242.8 532.1,242.3 532.3,243.2 532.5,243.6 532.7,242.8 533.2,243.6 533.3,244.2 533.5,244.9 533.7,245.5 533.8,245.2 534.7,246.1 534.8,245.7 535.0,245.4 535.5,244.7 535.7,245.6 535.8,246.8 536.0,246.5 537.3,245.3 537.8,245.7 538.0,246.6 538.2,245.7 538.4,244.8 538.5,243.8 539.0,244.9 539.2,243.9 539.4,243.9 539.5,243.4 539.7,242.6 540.2,242.5 540.4,242.0 540.5,243.0 540.7,242.9 540.9,242.7 541.4,242.2 541.5,242.5 541.7,242.6 541.9,241.9 542.0,241.1 542.5,240.6 542.7,240.5 542.9,241.0 543.0,239.7 543.2,239.7 543.7,239.3 543.9,239.3 544.1,239.0 544.2,239.4 544.4,238.4 544.9,238.8 545.1,240.0 545.2,239.9 545.4,239.6 545.6,240.7 546.1,240.9 546.2,241.5 546.4,241.8 546.6,242.7 546.7,241.9 547.2,241.8 547.4,240.8 547.6,239.0 547.7,238.3 547.9,238.8 548.4,237.7 548.6,238.6 548.7,239.8 548.9,237.7 549.1,239.0 549.6,240.7 549.8,240.4 549.9,239.9 550.1,238.4 550.3,238.1 550.8,237.9 550.9,236.8 551.1,237.4 551.3,237.3 551.4,236.8 552.1,236.8 552.3,237.3 552.4,239.6 552.6,239.3 553.1,239.5 553.3,239.8 553.4,238.3 553.6,239.1 553.8,240.1 554.3,240.0 554.4,239.9 554.6,241.8 554.8,241.2 555.0,242.7 555.5,243.5 555.6,245.1 555.8,244.8 556.0,247.5 556.1,247.3 557.8,244.0 558.0,244.1 558.1,242.6 558.3,241.9 558.5,244.1 559.0,244.4 559.1,243.8 559.3,243.4 559.5,243.0 559.6,243.1 560.2,243.6 560.3,244.8 560.5,244.3 560.7,246.6 560.8,245.2 561.3,244.9 561.5,243.3 561.7,243.8 561.8,243.1 562.0,244.0 562.5,245.1 562.7,246.6 562.8,245.8 563.0,245.7 563.2,245.3 563.7,247.1 563.8,250.8 564.0,248.0 564.2,245.3 564.3,244.5 564.8,243.8 565.0,243.4 565.2,242.4 565.3,242.9 565.5,242.3 566.0,242.8 566.2,243.2 566.4,273.2 566.5,273.6 566.7,273.1 567.5,273.4 567.7,274.2 567.9,273.5 568.4,274.6 568.5,274.2 568.7,273.9 568.9,273.2 569.0,273.3 569.5,273.4 569.7,273.7 569.9,274.5 570.0,274.1 570.2,274.2 570.7,277.5 570.9,277.6 571.0,277.2 571.2,276.5 571.4,274.3 572.4,274.5 572.6,276.3 573.1,276.5 573.2,276.9 573.4,276.6 573.6,276.8 573.7,276.4 574.2,277.0 574.4,276.0 574.6,276.3 574.7,277.1 574.9,276.1 575.4,276.3 575.6,277.2 575.7,276.7 575.9,276.1 576.1,275.0 576.6,274.6 576.8,274.1 576.9,274.4 577.1,274.3 577.8,273.4 577.9,273.6 578.1,272.5 578.3,273.0 578.4,273.1 578.9,274.0 579.1,274.8 579.3,274.8 579.4,275.0 579.6,274.4 580.1,274.4 580.3,274.1 580.4,274.5 580.6,273.5 580.8,272.8 581.3,271.3 581.4,270.9 581.6,272.3 581.8,272.1 581.9,272.7 582.5,271.8 582.6,271.6 582.8,273.3 583.0,273.4 583.1,273.3 583.6,274.2 583.8,274.6 584.0,274.8 584.1,275.0 584.3,275.8 584.8,274.5 585.0,275.1 585.1,274.0 585.3,274.7 585.5,273.8 586.0,274.0 586.1,273.6 586.3,273.8 586.5,272.9 586.6,272.1 587.1,271.8 587.3,272.2 587.5,272.8 587.6,272.1 587.8,270.9 588.3,271.1 588.5,271.0 588.7,271.5 588.8,270.0 589.0,269.7 589.5,269.2 589.7,269.0 589.8,268.8 590.0,269.5 590.2,269.7 590.7,269.9 590.8,270.3 591.0,270.7 591.2,269.7 591.3,269.6 591.8,271.3 592.0,271.0 592.2,271.6 592.3,272.8 592.5,272.7 593.0,272.3 593.2,271.7 593.4,272.1 593.5,271.3 593.7,270.5 594.4,269.4 594.5,271.6 594.7,272.1 594.9,273.7 595.4,273.7 595.5,273.0 595.7,273.6 595.9,274.5 596.0,274.5 596.5,275.7 596.7,274.6 596.9,275.5 597.0,274.5 597.2,275.2 598.9,275.8 599.1,276.0 599.2,275.0 599.4,275.4 599.6,273.6 600.1,274.4 600.2,273.3 600.4,274.0 600.6,274.6 600.7,275.1 601.2,274.6 601.4,274.1 601.6,273.8 601.7,273.8 601.9,275.2 602.4,274.6 602.6,272.9 602.7,272.7 602.9,273.8 603.1,272.7 603.6,272.1 603.7,271.8 603.9,270.7 604.1,271.6 604.2,268.7 604.8,269.5 604.9,268.4 605.1,268.1 605.3,268.2 605.4,268.6 605.9,268.8 606.1,268.9 606.3,268.4 606.4,268.1 606.6,267.5 607.1,268.0 607.3,267.2 607.4,267.5 607.6,266.1 607.8,266.1 608.3,266.4 608.4,267.2 608.6,267.7 608.8,267.5 608.9,266.6 609.4,267.3 609.6,266.8 609.8,265.9 609.9,266.5 610.1,267.4 610.6,268.0 610.8,269.1 611.0,268.2 611.1,267.7 611.3,268.5 611.8,268.2 612.0,267.4 612.1,267.8 612.3,268.4 612.5,267.5 613.1,267.5 613.3,267.3 613.5,266.4 613.6,266.8 614.1,265.5 614.3,265.5 614.5,265.1 614.6,264.9 614.8,264.1 615.3,263.7 615.5,263.4 615.7,263.4 615.8,263.5 616.0,262.7 617.7,261.6 617.8,262.7 618.0,261.5 618.2,260.8 618.3,261.7 618.8,263.1 619.0,263.0 619.2,262.7 619.3,262.1 619.5,263.1 620.0,262.2 620.2,261.7 620.3,262.2 620.5,262.0 620.7,263.3 621.2,261.8 621.4,261.9 621.5,262.5 621.7,262.5 621.9,262.6 622.4,263.0 622.5,262.6 622.7,262.0 622.9,262.4 623.0,261.7 623.5,260.9 623.7,261.3 623.9,262.4 624.0,262.4 624.2,263.4 624.7,262.4 624.9,262.6 625.0,262.1 625.2,262.2 625.4,261.2 625.9,260.2 626.0,259.6 626.2,259.9 626.4,259.5 626.5,259.2 627.1,259.3 627.2,259.7 627.4,259.3 627.6,258.4 627.7,257.7 628.2,257.7 628.4,256.5 628.7,256.1 628.9,255.6 629.4,256.3 629.6,255.9 629.7,255.5 629.9,255.8 630.1,255.0 630.6,254.7 630.7,254.8 630.9,255.2 631.1,255.2 631.2,256.3 631.7,257.1 631.9,256.6 632.1,256.7 632.3,256.3 632.4,255.8 633.4,254.7 633.6,254.7 634.1,254.3 634.3,254.5 634.4,254.5 634.6,254.4 634.8,255.3 635.3,254.3 635.4,254.6 635.6,255.0 635.8,254.6 635.9,254.2 636.4,253.9 636.6,254.6 636.8,255.1 636.9,255.5 637.1,255.7 637.6,255.0 637.8,255.0 638.0,254.7 638.1,254.5 638.3,253.5 638.8,253.7 639.0,253.7 639.1,253.5 639.3,253.6 639.5,252.7 640.0,252.2 640.1,251.2 640.3,251.3 640.5,251.1 640.6,249.9 641.1,250.1 641.3,249.9 641.5,250.7 642.3,251.4 642.5,251.3 642.6,250.9 642.8,250.8 643.0,250.2 643.5,249.0 643.7,248.9 643.8,249.2 644.0,249.5 644.2,250.0 644.7,249.9 644.8,249.3 645.0,249.3 645.2,247.7 645.3,248.0 645.8,247.8 646.0,247.4 646.2,246.0 646.3,246.6 646.5,246.9 647.0,247.1 647.2,246.1 647.3,245.8 647.5,245.6 647.7,245.4 648.2,244.9 648.3,244.6 648.5,245.2 648.7,245.4 648.9,245.1 649.4,245.5 649.5,245.2 649.7,245.3 649.9,245.6 650.0,246.4 650.5,246.4 650.7,245.8 650.9,246.6 651.0,246.7 651.2,247.8 651.7,248.0 651.9,247.6 652.0,247.8 652.2,246.7 652.4,247.8 652.9,246.8 653.0,246.0 653.2,245.2 653.4,244.9 653.5,244.9 654.0,243.8 654.2,244.0 654.4,244.1 654.6,245.1 654.7,244.6 655.2,244.3 655.4,244.1 655.6,244.5 655.7,243.8 655.9,244.3 656.4,244.9 656.6,244.4 656.7,244.1 656.9,245.1 657.1,245.0 657.6,245.1 657.7,245.5 657.9,246.5 658.1,247.8 659.9,248.3 660.1,248.8 660.3,248.3 660.4,247.1 660.6,247.6 661.1,247.3 661.3,246.5 661.4,246.2 661.6,247.3 661.8,247.2 662.3,248.2 662.4,248.1 662.6,248.1 662.8,248.1 662.9,247.2 663.4,247.0 663.6,246.8 663.8,246.6 663.9,246.1 664.1,245.1 664.6,244.6 664.8,245.0 664.9,245.2 665.1,245.3 665.3,245.4 665.8,245.1 666.0,244.6 666.1,243.4 666.3,243.9 666.5,243.8 667.0,244.8 667.1,244.6 667.3,245.3 667.5,244.9 667.6,245.1 668.1,244.6 668.3,244.3 668.5,244.2 668.6,244.2 668.8,244.1 669.3,243.3 669.5,245.3 669.6,244.9 669.8,245.2 670.0,244.6 670.5,244.4 670.6,244.2 670.8,244.8 671.0,243.4 671.2,243.8 671.7,243.9 671.8,243.4 672.0,243.3 672.2,243.4 672.3,242.7 672.8,242.4 673.0,242.2 673.2,241.8 673.3,240.8 673.5,240.9 674.2,241.0 674.3,241.4 674.5,242.1 674.7,242.2 675.2,242.9 675.3,242.0 675.5,242.4 675.7,241.8 675.8,241.8 676.3,241.2 676.5,241.0 676.7,242.8 676.9,243.2 677.0,242.2 677.5,242.5 677.7,241.9 677.9,240.8 678.0,240.6 678.2,240.7 678.7,240.7 678.9,240.5 679.0,240.9 679.2,241.0 679.4,240.4 679.9,240.4 680.0,239.2 680.2,238.5 680.4,236.6 682.2,236.8 682.4,236.8 682.6,236.5 682.7,235.5 682.9,234.8 683.4,235.2 683.6,234.5 683.7,234.3 683.9,233.9 684.1,232.9 684.6,231.7 684.7,230.5 684.9,230.3 685.1,229.8 685.2,228.9 685.7,228.2 685.9,228.6 686.1,229.0 686.2,229.0 686.4,228.8 686.9,228.8 687.1,229.0 687.2,228.3 687.4,225.8 687.6,226.3 688.1,226.7 688.3,226.1 688.4,225.8 688.6,224.3 688.8,223.0 689.3,222.0 689.4,222.2 689.6,222.5 690.4,220.8 690.6,220.4 690.8,220.5 690.9,221.7 691.1,219.3 691.6,220.2 691.8,221.3 691.9,220.7 692.1,221.0 692.3,221.5 692.8,222.9 692.9,224.7 693.1,222.6 693.3,223.2 693.5,221.7 694.0,221.4 694.1,221.5 695.1,221.3 695.3,220.5 695.5,220.7 695.6,220.5 695.8,218.1 696.3,218.3 696.5,218.4 696.6,217.5 696.8,215.9 697.0,215.6 697.5,213.7 697.6,214.8 697.8,214.2 698.0,216.3 698.1,218.4 698.6,217.2 698.8,217.4 699.0,217.1 699.2,218.7 699.3,218.4 699.8,218.1 700.0,216.9 700.2,217.1 700.3,215.2 700.5,215.1 701.2,217.6 701.3,217.0 701.5,216.6 701.7,216.4 702.2,216.7 702.3,216.2 702.5,215.8 702.7,214.9 702.8,214.8 703.3,216.3 703.5,216.4 703.7,215.8 703.8,216.0 704.0,214.3 704.5,214.2 704.7,214.0 704.9,212.6 705.0,213.0 705.2,212.5 705.7,212.5 705.9,212.4 706.0,212.3 706.2,210.8 706.4,211.1 706.9,209.5 707.0,208.0 707.2,206.1 707.4,206.6 707.5,209.9 708.0,211.0 708.2,211.4 708.4,211.0 708.5,215.0 708.7,213.9 709.2,212.2 709.4,212.7 709.5,211.4 709.7,210.3 709.9,212.1 710.4,218.5 710.6,218.5 710.7,217.9 710.9,218.2 711.1,216.5 711.6,215.1 711.7,213.7 711.9,213.1 712.1,212.0 712.2,210.9 712.7,210.9 712.9,210.3 713.1,210.0 713.2,210.2 713.4,210.4 713.9,209.4 714.1,209.7 714.2,209.4 714.4,210.0 714.6,209.5 715.1,210.0 715.2,209.7 715.4,212.9 715.6,211.9 715.8,212.2 716.3,213.7 716.4,213.5 716.6,212.9 716.8,212.2 716.9,210.8 717.8,210.7 717.9,209.7 718.1,208.4 718.6,207.4 718.8,206.1 718.9,205.3 719.1,202.8 719.3,201.3 719.8,196.9 721.1,194.9 721.3,200.1 721.5,197.7 721.6,197.7 722.1,195.3 722.3,194.9 722.5,194.6 722.6,194.1 722.8,192.0 723.3,191.1 723.5,191.1 723.6,190.5 723.8,192.2 724.0,191.7 724.5,190.7 724.6,190.5 724.8,189.4 725.0,190.7 725.1,192.1 725.6,192.3 725.8,190.9 726.0,189.3 726.1,189.0 726.3,188.5 726.8,187.3 727.0,188.5 727.2,188.9 727.3,190.7 727.5,192.5 728.0,191.1 728.2,189.2 728.3,188.8 728.5,187.7 728.7,187.4 729.2,187.5 729.3,188.6 729.5,186.9 729.7,187.7 729.8,186.1 730.3,185.9 730.5,184.4 730.7,184.6 730.8,184.2 731.0,184.0 731.5,183.5 731.7,183.3 731.8,182.0 732.0,180.6 732.2,182.2 732.7,182.4 732.9,182.9 733.0,183.5 733.2,186.4 733.4,186.8 733.9,184.2 734.0,184.2 734.2,183.6 734.4,183.3 734.5,183.6 735.0,184.4 735.2,185.2 735.5,185.3 735.7,185.3 736.2,184.8 736.4,184.8 736.5,184.5 736.7,184.1 736.9,184.4 737.4,185.4 737.6,184.1 737.7,184.0 737.9,182.5 738.1,182.1 738.6,181.6 738.7,181.6 738.9,180.6 739.1,180.7 739.2,179.5 739.7,180.5 741.2,177.2 741.4,176.9 741.6,176.1 742.1,174.6 742.2,173.9 742.4,174.3 742.6,174.0 742.7,172.9 743.3,174.6 743.4,173.5 743.6,172.8 743.8,172.6 743.9,173.3 744.4,174.1 744.6,175.6 744.8,176.1 744.9,176.5 745.1,179.8 745.6,178.6 745.8,179.1 745.9,178.3 746.1,177.7 746.3,178.7 746.8,178.6 746.9,180.6 747.1,180.7 747.3,180.3 747.4,177.5 747.9,177.5 748.1,176.0 748.3,175.2 748.4,174.0 748.6,175.6 749.1,174.4 749.3,173.8 749.5,173.8 749.6,174.2 749.8,173.1 750.3,174.0 750.5,172.4 750.6,172.8 750.8,173.2 751.5,186.1 751.6,182.7 751.8,182.5 752.0,174.0 752.1,173.6 752.6,171.6 752.8,171.8 753.0,169.6 753.1,168.7 753.3,168.5 753.8,166.9 754.0,162.9 754.2,168.6 754.3,167.6 754.5,166.8 755.0,167.6 755.2,167.0 755.3,167.6 756.3,164.3 756.5,162.9 756.7,163.7 756.8,164.0 757.3,165.1 757.5,165.2 757.7,164.2 757.8,168.4 758.0,166.4 758.5,165.9 758.7,165.2 758.8,161.8 759.0,162.3 759.2,162.7 759.7,163.2 759.9,164.2 760.0,163.6 760.2,163.7 760.4,163.6 761.0,161.7 761.2,160.8 761.4,160.6 761.5,160.6 762.0,161.3 762.2,161.5 762.4,160.3 762.5,159.3 762.7,158.8 763.2,158.5 763.4,159.4 763.5,160.6 763.7,161.9 763.9,162.1 764.4,161.5 764.5,161.1 764.7,159.8 764.9,159.5 765.0,160.4 765.6,159.9 765.7,158.6 765.9,158.1 766.1,156.8 766.2,156.8 766.7,157.9 766.9,156.7 767.1,158.3 767.2,156.8 767.4,156.4 767.9,155.9 768.1,155.1 768.2,156.2 768.4,155.3 768.6,154.3 769.1,153.4 769.2,152.4 769.4,151.0 769.6,152.2 769.7,152.3 770.2,151.8 770.4,151.8 770.6,151.7 770.8,152.5 770.9,153.6 771.4,152.6 771.6,150.7 771.8,150.8 771.9,150.5 772.1,150.2 772.6,150.5 772.8,150.7 772.9,149.4 773.1,149.3 773.3,148.6 773.8,148.4 773.9,149.2 774.1,149.0 774.3,148.5 774.4,147.7 774.9,144.7 775.1,144.9 775.3,145.3 775.4,144.2 775.6,143.2 776.1,140.8 776.3,140.6 776.5,139.9 776.6,141.1 776.8,138.8 777.3,137.9 777.5,136.2 777.6,136.0 777.8,134.6 778.0,134.2 778.5,134.1 778.6,132.3 778.8,133.1 779.0,135.2 779.1,134.0 779.6,130.9 779.8,128.7 780.0,127.6 780.1,128.1 780.3,128.6 780.8,125.4 781.0,123.8 782.5,115.3 782.7,118.4 783.2,115.8 783.3,115.6 783.5,110.5 783.7,109.5 783.8,106.4 784.3,108.9 784.5,104.2 784.7,109.8 784.8,111.0 785.0,110.6 785.5,108.5 785.7,113.6 785.8,109.7 786.0,109.8 786.2,109.9 786.7,108.9 786.8,112.4 787.0,113.6 787.2,111.7 787.4,111.4 787.9,107.6 788.0,106.0 788.2,105.3 788.4,101.5 788.5,105.0 789.0,108.6 789.2,112.4 789.4,110.6 789.5,109.9 789.7,114.5 790.2,113.0 790.4,109.5 790.5,107.6 790.7,108.0 790.9,105.9 791.4,103.7 791.5,104.8 791.7,105.0 791.9,105.5 792.0,104.1 792.5,104.2 792.7,106.3 792.9,104.7 793.1,105.3 793.2,102.3 793.7,100.9 793.9,104.2 794.1,101.4 794.2,101.9 794.4,100.9 794.9,96.9 795.1,95.0 795.2,94.4 795.4,95.3 795.6,93.6 796.1,95.6 796.2,98.9 796.4,100.3 797.2,94.7 797.4,92.3 797.6,93.5 797.7,94.3 797.9,92.6 798.4,89.3 798.6,89.2 798.8,87.8 798.9,88.7 799.1,88.7 799.6,88.5 799.8,87.7 799.9,83.0 800.1,82.5 800.3,79.3 800.8,75.0 800.9,74.4 801.1,68.3 801.3,58.0 801.4,72.5 801.9,94.0 802.1,84.5 802.3,76.8 802.4,82.8 802.6,87.2 803.1,78.4 803.3,78.7 803.4,77.3 803.6,78.0 803.8,81.3 805.6,74.6 805.8,74.0 806.0,74.8 806.1,74.5 806.6,67.5 806.8,70.5 807.0,76.9 807.1,75.7 807.3,77.2 807.8,79.7 808.0,76.9 808.1,76.1 808.3,76.7 808.5,80.1 809.0,82.4 809.1,83.2 809.3,83.3 809.5,92.7 809.7,97.1 810.2,117.6 810.3,109.7 810.5,102.5 810.7,106.1 810.8,105.4 811.3,104.2 811.5,104.2 811.7,95.4 811.8,101.7 812.0,100.7 812.7,100.6 812.8,91.1 813.0,95.2 813.2,92.5 813.7,93.5 813.8,90.1 814.0,88.7 814.2,86.4 814.3,87.6 814.8,87.1 815.0,87.0 815.2,86.4 815.4,88.3 815.5,89.8 816.0,88.0 816.2,90.0 816.4,90.6 816.5,89.6 817.5,85.6 817.7,82.4 817.9,83.1 818.4,83.3 818.5,83.3 818.7,82.1 818.9,83.3 819.0,88.3 819.5,90.6 819.7,90.3 819.9,92.8 820.0,91.7 820.2,89.6 820.7,85.5 820.9,86.5 821.1,88.3 821.2,92.3 821.4,87.0 821.9,86.3 822.1,84.6 822.2,86.5 822.4,88.1 822.6,89.8 823.1,97.9 823.2,94.5 823.4,100.6 823.6,105.3 823.7,101.2 824.2,93.4 824.4,92.7 824.6,92.1 824.7,92.9 825.4,94.4 825.6,101.4 825.7,100.7 825.9,103.3 826.1,104.9 826.6,103.3 826.8,103.3 826.9,105.0 827.1,104.1 827.3,99.8 827.8,100.1 827.9,100.8 828.1,102.1 828.3,100.7 828.4,101.5 828.9,104.9 829.1,103.6 829.3,102.7 829.4,103.6 829.6,109.3 830.1,108.4 830.3,103.0 830.4,101.9 830.6,101.5 830.8,106.1 831.3,102.9 831.4,107.6 831.6,106.3 831.8,108.6 832.0,105.7 832.5,105.8 832.6,103.5 832.8,95.8 833.0,92.6 833.1,90.2 833.6,88.1 833.8,87.8 834.0,86.5 834.1,87.3 834.3,86.6 834.8,84.5 835.0,86.5 835.1,91.7 835.3,86.3 835.5,83.5 836.0,81.4 836.1,81.2 836.3,80.4 836.5,80.9 836.6,80.1 837.1,85.8 837.3,85.9 837.5,92.7 837.7,88.8 837.8,86.6 838.3,88.7 838.5,88.8 838.7,88.7 838.8,88.4 839.0,91.7 839.5,93.3 839.7,95.0 839.8,92.6 840.0,93.7" fill="none" stroke="#9ee5c9" stroke-width="2" stroke-linejoin="round" stroke-linecap="round"/>
<text x="64" y="30" fill="#e6e1d5" font-size="18" font-weight="600">每日定投 · 投入 vs 市值（截至 2026-09-17）</text>
<circle cx="832" cy="28" r="4" fill="#9ee5c9"/>
<text x="822" y="32" fill="#a9b4b1" font-size="12" text-anchor="end">当前市值</text>
<circle cx="746" cy="28" r="4" fill="#7d8a88"/>
<text x="736" y="32" fill="#a9b4b1" font-size="12" text-anchor="end">累计投入</text>
</svg>